<svg width="358" height="606" viewBox="0 0 358 606" fill="none" xmlns="http://www.w3.org/2000/svg">
<g opacity="0.45">
<g clip-path="url(#clip0_3465_1536)">
<path d="M213.187 15.9388L202.804 22.2918L209.658 0.98764L213.085 15.5213L213.187 15.9388Z" fill="#5E646B"/>
<path d="M196.465 41.7685L207.171 35.2027L199.912 31.0081L196.465 41.7685Z" fill="#5E646B"/>
<path d="M226.506 33.5879H226.49L223.295 21.3387L218.113 1.52331L215.965 -6.67696L214.116 -13.7665L212.089 -14.9403L205.275 -18.8789L185.082 35.187L192.164 39.2871L196.465 41.7724L199.912 31.012L207.167 35.2067L219.451 42.312L221.096 49.2755L222.914 57.0622L226.502 59.1182L234.375 63.691L226.506 33.5879ZM210.016 26.451L209.654 26.2462L202.808 22.2879L209.654 0.983717L213.085 15.5292L215.914 27.4633L216.579 30.2321L210.016 26.451Z" stroke="#34393A" stroke-width="0.6" stroke-miterlimit="10" stroke-linecap="round" stroke-linejoin="round"/>
<path d="M250.857 73.7385C250.763 73.7385 250.672 73.7149 250.59 73.6676L239.805 67.4327C239.639 67.3382 239.537 67.1609 239.537 66.968V1.22004C239.537 1.02705 239.639 0.853749 239.805 0.755283C239.97 0.660755 240.175 0.660755 240.34 0.755283L251.077 6.95866C251.243 7.05319 251.345 7.23043 251.345 7.42342V60.1935C251.376 60.2604 251.392 60.3353 251.392 60.414V73.2028C251.392 73.3958 251.29 73.5691 251.125 73.6676C251.042 73.7149 250.948 73.7385 250.857 73.7385ZM240.607 66.6568L250.322 72.2733V60.5992C250.291 60.5322 250.275 60.4574 250.275 60.3786V7.73457L240.607 2.14957V66.6568Z" fill="#34393A"/>
<path d="M250.858 60.9497C250.751 60.9497 250.645 60.9182 250.555 60.8552L250.508 60.8237C250.362 60.7252 250.275 60.5598 250.275 60.3825V7.42342C250.275 7.22649 250.386 7.04137 250.563 6.95078C250.74 6.86019 250.952 6.87201 251.113 6.98229L251.161 7.0138C251.306 7.11227 251.393 7.27769 251.393 7.45493V60.414C251.393 60.611 251.283 60.7961 251.106 60.8867C251.027 60.93 250.944 60.9497 250.858 60.9497Z" fill="#34393A"/>
<path d="M216.579 30.7678C216.488 30.7678 216.394 30.7442 216.311 30.6969L202.54 22.7526C202.323 22.6266 202.221 22.3666 202.3 22.1264L209.146 0.822212C209.221 0.593771 209.433 0.436227 209.677 0.451981C209.917 0.459859 210.122 0.629219 210.177 0.865538L213.608 15.411L217.102 30.114C217.153 30.3227 217.074 30.5393 216.901 30.6693C216.803 30.7323 216.693 30.7678 216.579 30.7678ZM203.449 22.0397L215.768 29.149L215.394 27.5893L212.565 15.6552L209.575 2.9806L203.449 22.0397Z" fill="#34393A"/>
<path d="M250.858 60.9497C250.751 60.9497 250.645 60.9182 250.555 60.8552L250.508 60.8237C250.362 60.7252 250.275 60.5598 250.275 60.3825V7.42341C250.275 7.22647 250.386 7.04136 250.563 6.95077C250.74 6.86018 250.952 6.87199 251.113 6.98228L251.161 7.01379C251.306 7.11225 251.393 7.27768 251.393 7.45492V60.414C251.393 60.611 251.283 60.7961 251.106 60.8867C251.027 60.93 250.944 60.9497 250.858 60.9497Z" fill="#34393A"/>
<path d="M250.857 7.99058C250.751 7.99058 250.645 7.95907 250.554 7.89605L250.523 7.87636L239.805 1.68085C239.64 1.58633 239.541 1.41303 239.537 1.22397C239.533 1.03492 239.632 0.857677 239.793 0.75921L250.531 -5.82622C250.7 -5.92862 250.908 -5.93256 251.078 -5.83409L261.874 0.400792C262.036 0.495319 262.138 0.668621 262.142 0.857677C262.146 1.04673 262.047 1.22397 261.886 1.32244L251.137 7.90786C251.05 7.96694 250.952 7.99058 250.857 7.99058ZM241.119 1.20822L250.853 6.83261L260.56 0.889184L250.818 -4.73915L241.119 1.20822Z" fill="#34393A"/>
<path d="M250.857 73.7385C250.767 73.7385 250.676 73.7149 250.598 73.6715C250.428 73.577 250.326 73.3998 250.326 73.2028V7.45885C250.326 7.27374 250.425 7.10044 250.582 7.00197L261.331 0.416546C261.497 0.314141 261.705 0.310202 261.874 0.40473C262.044 0.499258 262.146 0.676498 262.146 0.873431V66.6214C262.146 66.8065 262.047 66.9798 261.89 67.0782L251.141 73.6637C251.05 73.7109 250.956 73.7385 250.857 73.7385ZM251.392 7.75819V72.2497L261.076 66.322V1.82658L251.392 7.75819Z" fill="#34393A"/>
<path d="M234.383 64.2267C234.316 64.2267 234.249 64.2148 234.183 64.1873C234.025 64.1243 233.907 63.9903 233.864 63.8249L226.018 33.836C225.998 33.8006 225.983 33.7612 225.971 33.7218L222.776 21.4726L213.596 -13.6326C213.537 -13.8611 213.632 -14.1013 213.836 -14.2234L224.57 -20.8088C224.716 -20.8955 224.893 -20.9113 225.05 -20.8482C225.208 -20.7852 225.326 -20.6513 225.369 -20.4859L227.218 -13.3963L240.596 37.7116C240.608 37.755 240.612 37.8022 240.612 37.8456V60.1935C240.612 60.3786 240.513 60.5519 240.356 60.6504L234.663 64.1479C234.576 64.1991 234.482 64.2267 234.383 64.2267ZM226.978 33.3358C226.998 33.3713 227.014 33.4106 227.025 33.45L234.718 62.856L239.542 59.8941V37.9125L226.179 -13.1245L224.511 -19.517L214.73 -13.5184L226.978 33.3358Z" fill="#34393A"/>
<path d="M196.465 42.3041C196.347 42.3041 196.233 42.2647 196.135 42.1899C195.957 42.052 195.887 41.8196 195.954 41.607L199.4 30.8466C199.451 30.693 199.566 30.5669 199.719 30.5118C199.869 30.4527 200.038 30.4645 200.179 30.5472L207.435 34.7419C207.6 34.8364 207.698 35.0097 207.702 35.1988C207.706 35.3878 207.608 35.5651 207.447 35.6635L196.744 42.2253C196.662 42.2805 196.563 42.3041 196.465 42.3041ZM200.219 31.8037L197.413 40.5593L206.121 35.2145L200.219 31.8037Z" fill="#34393A"/>
<path d="M202.807 22.8235C202.626 22.8235 202.449 22.7329 202.351 22.5675C202.197 22.3155 202.276 21.9846 202.528 21.831L212.907 15.4819C213.159 15.3283 213.49 15.4071 213.643 15.6591C213.797 15.9112 213.718 16.2421 213.466 16.3957L203.087 22.7448C202.996 22.796 202.902 22.8235 202.807 22.8235Z" fill="#34393A"/>
</g>
<path d="M161.914 310.368C160.182 310.368 158.497 309.457 157.57 307.824C156.9 306.647 156.726 305.276 157.069 303.962C157.413 302.648 158.245 301.551 159.403 300.874C161.792 299.471 164.861 300.307 166.241 302.736C167.621 305.165 166.798 308.284 164.409 309.687C163.625 310.147 162.763 310.368 161.914 310.368ZM161.901 301.52C161.274 301.52 160.639 301.683 160.056 302.024C159.198 302.524 158.589 303.338 158.332 304.307C158.075 305.276 158.206 306.289 158.702 307.161C159.72 308.957 161.988 309.576 163.756 308.537C165.523 307.501 166.132 305.196 165.109 303.4C164.426 302.197 163.181 301.52 161.901 301.52Z" fill="#3A3A3A"/>
<path d="M329.533 161.598C327.801 161.598 326.116 160.687 325.189 159.054C324.519 157.878 324.345 156.506 324.689 155.192C325.033 153.878 325.864 152.781 327.022 152.104C328.18 151.427 329.529 151.241 330.822 151.595C332.115 151.945 333.194 152.79 333.86 153.966C334.531 155.143 334.705 156.515 334.361 157.829C334.017 159.143 333.186 160.24 332.028 160.917C331.24 161.382 330.378 161.598 329.533 161.598ZM329.516 152.75C328.876 152.75 328.241 152.922 327.67 153.254C326.813 153.759 326.203 154.568 325.947 155.537C325.69 156.506 325.82 157.519 326.317 158.391C327.335 160.187 329.603 160.802 331.37 159.767C332.228 159.262 332.837 158.453 333.094 157.484C333.351 156.515 333.22 155.502 332.724 154.63C332.228 153.759 331.431 153.139 330.478 152.878C330.16 152.794 329.838 152.75 329.516 152.75Z" fill="#3A3A3A"/>
<path d="M312.022 201.966C311.796 201.966 311.578 201.847 311.456 201.634C311.278 201.316 311.382 200.909 311.695 200.727L312.074 200.506C312.388 200.325 312.788 200.431 312.967 200.749C313.145 201.068 313.041 201.475 312.727 201.656L312.348 201.878C312.244 201.935 312.131 201.966 312.022 201.966Z" fill="#3A3A3A"/>
<path d="M317.006 199.054C316.78 199.054 316.562 198.935 316.44 198.722C316.262 198.404 316.366 197.997 316.68 197.815L317.446 197.369C317.759 197.187 318.156 197.293 318.338 197.612C318.517 197.93 318.412 198.338 318.099 198.519L317.333 198.966C317.228 199.023 317.115 199.054 317.006 199.054ZM322.378 195.913C322.151 195.913 321.934 195.794 321.812 195.581C321.634 195.263 321.738 194.856 322.051 194.674L322.818 194.227C323.131 194.046 323.527 194.152 323.71 194.471C323.888 194.789 323.784 195.196 323.47 195.378L322.704 195.824C322.6 195.886 322.491 195.913 322.378 195.913ZM327.754 192.776C327.527 192.776 327.31 192.657 327.188 192.444C327.009 192.126 327.114 191.719 327.427 191.537L328.193 191.09C328.507 190.909 328.903 191.015 329.086 191.334C329.264 191.652 329.16 192.059 328.846 192.241L328.08 192.688C327.976 192.75 327.863 192.776 327.754 192.776ZM333.125 189.639C332.899 189.639 332.681 189.52 332.559 189.307C332.381 188.989 332.485 188.582 332.799 188.4L333.565 187.954C333.878 187.772 334.274 187.878 334.457 188.197C334.636 188.515 334.531 188.923 334.218 189.104L333.452 189.551C333.347 189.608 333.238 189.639 333.125 189.639ZM338.501 186.498C338.275 186.498 338.057 186.379 337.935 186.166C337.757 185.848 337.861 185.445 338.175 185.259L338.941 184.812C339.254 184.631 339.65 184.737 339.833 185.056C340.012 185.374 339.907 185.777 339.594 185.963L338.828 186.409C338.723 186.471 338.61 186.498 338.501 186.498ZM343.873 183.361C343.646 183.361 343.429 183.242 343.307 183.029C343.128 182.711 343.237 182.304 343.546 182.122L344.312 181.675C344.626 181.494 345.022 181.6 345.205 181.919C345.383 182.237 345.279 182.644 344.965 182.826L344.199 183.273C344.095 183.33 343.986 183.361 343.873 183.361ZM349.249 180.22C349.022 180.22 348.805 180.1 348.683 179.888C348.504 179.569 348.609 179.162 348.922 178.981L349.688 178.534C350.002 178.353 350.398 178.459 350.581 178.778C350.759 179.096 350.65 179.503 350.341 179.684L349.575 180.131C349.471 180.193 349.357 180.22 349.249 180.22ZM354.62 177.083C354.394 177.083 354.176 176.964 354.054 176.751C353.876 176.433 353.98 176.026 354.294 175.844L355.06 175.397C355.373 175.216 355.769 175.327 355.952 175.641C356.131 175.959 356.026 176.366 355.713 176.548L354.947 176.994C354.842 177.052 354.733 177.083 354.62 177.083ZM359.996 173.942C359.77 173.942 359.552 173.822 359.43 173.61C359.252 173.291 359.356 172.884 359.67 172.703L360.436 172.256C360.749 172.075 361.145 172.181 361.328 172.499C361.507 172.818 361.402 173.225 361.089 173.406L360.323 173.853C360.218 173.915 360.105 173.942 359.996 173.942ZM365.368 170.805C365.141 170.805 364.924 170.685 364.802 170.473C364.623 170.154 364.728 169.747 365.041 169.566L365.807 169.119C366.121 168.938 366.517 169.044 366.7 169.363C366.878 169.681 366.774 170.088 366.46 170.269L365.694 170.716C365.594 170.774 365.481 170.805 365.368 170.805ZM370.743 167.668C370.517 167.668 370.3 167.549 370.178 167.336C369.999 167.018 370.104 166.611 370.417 166.429L371.183 165.982C371.497 165.801 371.893 165.907 372.076 166.226C372.254 166.544 372.149 166.951 371.836 167.133L371.07 167.579C370.965 167.637 370.852 167.668 370.743 167.668ZM376.115 164.527C375.889 164.527 375.671 164.407 375.549 164.195C375.371 163.876 375.475 163.469 375.789 163.288L376.555 162.841C376.868 162.66 377.269 162.766 377.447 163.084C377.626 163.403 377.521 163.81 377.208 163.991L376.442 164.438C376.337 164.5 376.228 164.527 376.115 164.527ZM381.491 161.39C381.265 161.39 381.047 161.27 380.925 161.058C380.747 160.739 380.851 160.332 381.164 160.151L381.931 159.704C382.244 159.523 382.644 159.629 382.823 159.948C383.001 160.266 382.897 160.673 382.584 160.855L381.817 161.301C381.713 161.359 381.6 161.39 381.491 161.39Z" fill="#3A3A3A"/>
<path d="M349.792 448.768V452.901L325.92 466.913L322.398 464.842L349.792 448.768Z" fill="#3A3A3A"/>
<path d="M330.669 469.911V473.831L303.959 474.694V470.562L330.669 469.699V469.911Z" fill="#3A3A3A"/>
<path d="M303.959 471.224C303.781 471.224 303.606 471.149 303.485 471.016C303.358 470.879 303.293 470.689 303.31 470.498L304.782 454.823C304.803 454.597 304.934 454.398 305.134 454.296C305.33 454.195 305.57 454.199 305.761 454.31L313.705 458.973L340.776 443.09C340.977 442.97 341.229 442.97 341.429 443.09L350.122 448.191C350.322 448.31 350.449 448.527 350.449 448.766C350.449 449.005 350.322 449.222 350.122 449.341L323.708 464.84L331 469.122C331.252 469.273 331.378 469.569 331.304 469.857C331.235 470.144 330.982 470.348 330.69 470.357C330.686 470.361 303.963 471.224 303.959 471.224ZM305.983 455.978L304.677 469.875L328.357 469.109L322.067 465.415C321.867 465.295 321.741 465.079 321.741 464.84C321.741 464.601 321.867 464.384 322.067 464.264L348.481 448.766L341.094 444.43L314.023 460.314C313.823 460.433 313.57 460.433 313.37 460.314L305.983 455.978Z" fill="#3A3A3A"/>
<path d="M325.919 467.574C325.693 467.574 325.475 467.454 325.354 467.242C325.175 466.924 325.28 466.521 325.593 466.335L349.138 452.513V448.766C349.138 448.399 349.43 448.102 349.791 448.102C350.152 448.102 350.444 448.399 350.444 448.766V452.898C350.444 453.137 350.318 453.354 350.117 453.474L326.246 467.485C326.141 467.547 326.028 467.574 325.919 467.574Z" fill="#3A3A3A"/>
<path d="M303.959 475.354C303.789 475.354 303.628 475.288 303.506 475.169C303.38 475.045 303.306 474.872 303.306 474.691V470.558C303.306 470.191 303.597 469.895 303.959 469.895C304.32 469.895 304.612 470.191 304.612 470.558V474.005L330.015 473.182V469.904C330.015 469.536 330.307 469.24 330.668 469.24C331.03 469.24 331.321 469.536 331.321 469.904V473.824C331.321 474.182 331.043 474.474 330.69 474.487C330.686 474.492 303.963 475.354 303.959 475.354Z" fill="#3A3A3A"/>
<path d="M286.994 526.236V541.376L274.096 548.941V533.806L286.994 526.236Z" fill="#3A3A3A"/>
<path d="M274.095 549.603C273.982 549.603 273.869 549.572 273.769 549.515C273.569 549.395 273.442 549.178 273.442 548.94V533.804C273.442 533.565 273.569 533.348 273.769 533.229L286.667 525.659C286.867 525.539 287.119 525.539 287.32 525.659C287.52 525.778 287.646 525.995 287.646 526.234V541.369C287.646 541.608 287.52 541.825 287.32 541.945L274.422 549.515C274.322 549.577 274.209 549.603 274.095 549.603ZM274.748 534.189V547.794L286.34 540.989V527.384L274.748 534.189Z" fill="#3A3A3A"/>
<path d="M274.096 549.603C273.987 549.603 273.874 549.577 273.769 549.515L260.871 541.945C260.671 541.825 260.545 541.608 260.545 541.369V526.234C260.545 525.995 260.671 525.778 260.871 525.659C261.072 525.539 261.324 525.539 261.524 525.659L274.422 533.229C274.736 533.41 274.84 533.817 274.662 534.136C274.483 534.454 274.083 534.56 273.769 534.379L261.851 527.384V540.989L274.422 548.369C274.736 548.55 274.84 548.957 274.662 549.276C274.54 549.488 274.322 549.603 274.096 549.603Z" fill="#3A3A3A"/>
<path d="M286.993 526.894C286.884 526.894 286.771 526.867 286.667 526.806L274.096 519.43L261.524 526.806C261.211 526.991 260.815 526.881 260.632 526.562C260.453 526.244 260.558 525.841 260.871 525.655L273.769 518.09C273.969 517.97 274.222 517.97 274.422 518.09L287.32 525.655C287.633 525.837 287.738 526.244 287.559 526.562C287.437 526.775 287.22 526.894 286.993 526.894Z" fill="#3A3A3A"/>
<path d="M330.449 120.653C330.725 120.509 330.986 120.353 331.221 120.198C331.009 124.782 327.288 128.434 322.726 128.434C318.104 128.434 314.343 124.687 314.224 120.024C314.533 120.243 314.876 120.456 315.256 120.653C317.358 121.751 320.102 122.304 322.853 122.304C325.604 122.304 328.351 121.751 330.449 120.653Z" fill="#3A3A3A"/>
<path d="M322.853 122.87C319.905 122.87 317.116 122.26 314.999 121.158C314.615 120.957 314.246 120.73 313.903 120.487C312.386 119.415 311.551 118.051 311.551 116.646C311.503 114.467 311.287 112.277 310.914 110.144C310.877 109.932 310.836 109.716 310.795 109.508C310.459 107.765 310.027 106.053 309.497 104.405C309.285 103.734 309.043 103.056 308.778 102.389C306.802 97.3541 303.627 92.6827 299.333 88.5039C292.578 81.9269 288.858 73.0653 288.858 63.5559C288.858 44.5068 304.108 29.0038 322.849 29C341.595 29.0038 356.844 44.5068 356.844 63.5559C356.844 73.0691 353.124 81.9269 346.37 88.5039C342.083 92.6752 338.904 97.3541 336.924 102.404C336.667 103.06 336.425 103.734 336.209 104.408C335.676 106.075 335.243 107.788 334.919 109.493C334.915 109.523 334.904 109.55 334.897 109.58C334.863 109.758 334.829 109.94 334.803 110.122C334.8 110.144 334.796 110.167 334.788 110.19C334.416 112.319 334.203 114.494 334.158 116.661C334.158 118.138 333.227 119.567 331.531 120.677C331.266 120.851 330.99 121.014 330.711 121.158C328.601 122.26 325.809 122.87 322.853 122.87ZM322.853 30.1328C304.726 30.1328 289.98 45.1281 289.98 63.5521C289.98 72.7509 293.577 81.3207 300.112 87.6818C304.521 91.9743 307.787 96.782 309.822 101.969C310.094 102.662 310.344 103.363 310.564 104.056C311.104 105.75 311.551 107.504 311.89 109.273C311.935 109.508 311.976 109.724 312.017 109.944C312.405 112.133 312.625 114.384 312.673 116.631C312.673 117.68 313.322 118.684 314.548 119.552C314.85 119.764 315.178 119.965 315.517 120.143C317.478 121.166 320.083 121.73 322.86 121.73C325.641 121.73 328.25 121.166 330.204 120.143C330.45 120.014 330.696 119.87 330.93 119.714C332.295 118.824 333.044 117.733 333.044 116.642C333.092 114.388 333.316 112.133 333.7 109.932C333.704 109.917 333.704 109.906 333.707 109.891C333.741 109.682 333.778 109.474 333.819 109.265C333.823 109.239 333.83 109.212 333.842 109.186C334.173 107.462 334.613 105.735 335.15 104.049C335.374 103.351 335.623 102.654 335.888 101.976C337.931 96.7744 341.2 91.9629 345.602 87.678C352.136 81.3169 355.733 72.7471 355.733 63.5483C355.729 45.1281 340.98 30.1328 322.853 30.1328Z" fill="#3A3A3A"/>
<path d="M331.941 74.7256C331.847 74.7256 331.75 74.7028 331.661 74.6498C330.356 73.8883 329.745 72.263 329.156 70.6907C328.612 69.2434 328.098 67.8758 327.143 67.3113C326.532 66.9551 326.297 67.1673 325.63 68.1599C325.097 68.9517 324.206 70.2777 322.626 69.3457C321.325 68.5842 320.713 66.9589 320.124 65.3904C319.58 63.9432 319.07 62.5755 318.115 62.0148C317.504 61.6549 317.269 61.8708 316.602 62.8634C316.073 63.6552 315.182 64.9813 313.601 64.0531C312.304 63.2915 311.697 61.67 311.108 60.1015C310.563 58.6543 310.049 57.2866 309.095 56.7259C308.826 56.5705 308.737 56.222 308.89 55.9492C309.043 55.6764 309.386 55.5817 309.654 55.7408C310.955 56.5023 311.566 58.1239 312.155 59.6961C312.699 61.1434 313.21 62.5073 314.164 63.068C314.779 63.4279 315.014 63.2158 315.681 62.2232C316.214 61.4313 317.101 60.1091 318.678 61.0335C319.975 61.7988 320.587 63.4204 321.176 64.9888C321.72 66.4399 322.234 67.8076 323.192 68.3645C323.807 68.7282 324.046 68.516 324.713 67.5196C325.246 66.7278 326.133 65.4056 327.71 66.33C329.011 67.0953 329.618 68.7168 330.211 70.2853C330.755 71.7364 331.27 73.104 332.228 73.6648C332.496 73.8201 332.585 74.1686 332.433 74.4414C332.325 74.6233 332.134 74.7256 331.941 74.7256Z" fill="#3A3A3A"/>
<path d="M322.853 115.362C319.666 115.362 316.482 114.65 314.056 113.226C312.662 112.411 311.629 111.437 310.984 110.335C310.828 110.066 310.914 109.717 311.178 109.554C311.443 109.395 311.786 109.482 311.946 109.751C312.483 110.672 313.407 111.532 314.615 112.237C319.159 114.904 326.55 114.904 331.094 112.237C332.32 111.521 333.219 110.68 333.767 109.74C333.789 109.698 333.819 109.66 333.852 109.63C334.069 109.41 334.427 109.407 334.646 109.63C334.84 109.827 334.863 110.134 334.714 110.354C334.065 111.449 333.036 112.415 331.657 113.226C329.227 114.65 326.04 115.362 322.853 115.362Z" fill="#3A3A3A"/>
<path d="M322.815 108.281C319.088 108.281 315.361 107.448 312.524 105.784C310.902 104.834 309.698 103.701 308.949 102.42C308.793 102.151 308.878 101.803 309.143 101.64C309.408 101.481 309.751 101.568 309.911 101.837C310.563 102.951 311.633 103.947 313.087 104.799C318.454 107.952 327.188 107.948 332.555 104.799C333.99 103.955 335.094 102.928 335.739 101.825C335.895 101.556 336.238 101.465 336.506 101.628C336.771 101.787 336.861 102.136 336.7 102.409C335.947 103.697 334.743 104.834 333.118 105.788C330.27 107.448 326.539 108.281 322.815 108.281Z" fill="#3A3A3A"/>
<path d="M322.727 129C317.777 129 313.796 125.064 313.665 120.036C313.658 119.722 313.9 119.46 314.209 119.453C314.213 119.453 314.221 119.453 314.224 119.453C314.526 119.453 314.776 119.699 314.783 120.006C314.899 124.412 318.388 127.864 322.727 127.864C326.98 127.864 330.465 124.484 330.666 120.169C330.681 119.854 330.938 119.616 331.251 119.627C331.561 119.642 331.799 119.907 331.784 120.222C331.557 125.143 327.58 129 322.727 129Z" fill="#3A3A3A"/>
<path d="M200.147 190.554V223.577L197.514 225.165V260.538L165.746 279.368V206.526L198.45 187.333L200.147 190.554Z" fill="#3A3A3A"/>
<path d="M183.424 158.829L169.921 168.603L135.52 188.787L181.63 155.427L183.424 158.829Z" fill="#3A3A3A"/>
<path d="M287.28 344.363C281.047 344.363 274.283 342.709 267.322 339.413C267.061 339.289 266.874 339.209 266.704 339.129C264.884 338.32 264.885 338.32 204.779 303.045L197.187 298.589C196.987 298.47 196.861 298.253 196.861 298.014V225.167C196.861 224.928 196.987 224.712 197.187 224.592C197.388 224.473 197.64 224.473 197.84 224.592L226.087 241.166L181.404 156.404L136.725 188.728L166.073 205.948C166.273 206.067 166.399 206.284 166.399 206.523V279.37C166.399 279.609 166.277 279.826 166.073 279.945C165.872 280.064 165.62 280.064 165.42 279.945L117.772 251.979C90.8666 236.179 68.9756 197.643 68.9756 166.076C68.9756 150.626 74.1338 139.092 83.5014 133.592C91.9374 128.641 103.02 129.172 114.803 135.061C114.294 127.942 114.481 121.262 115.369 115.187C118.782 91.8044 131.541 82.7345 136.869 79.9206C136.977 79.8631 137.06 79.8188 137.108 79.7923C137.138 79.7702 137.173 79.748 137.204 79.7303C150.245 73.0407 166.342 74.6247 183.763 84.3095C200.953 93.8661 217.794 110.462 231.188 131.048C245.161 152.52 254.137 176.756 256.496 199.338C273.059 207.191 288.782 222.513 300.809 242.52C312.536 262.031 319.262 283.94 319.262 302.637C319.262 320.631 313.268 334.059 302.385 340.448C297.928 343.063 292.813 344.363 287.28 344.363ZM198.167 297.634L205.432 301.899C265.472 337.138 265.472 337.139 267.226 337.917C267.405 337.997 267.601 338.085 267.875 338.214C280.616 344.248 292.639 344.638 301.728 339.302C312.192 333.161 317.951 320.14 317.951 302.642C317.951 263.022 289.4 216.199 255.608 200.391C255.399 200.294 255.256 200.09 255.23 199.856C250.69 154.975 219.692 105.807 183.132 85.482C166.125 76.0272 150.463 74.4433 137.835 80.8984C137.757 80.9515 137.648 81.009 137.465 81.1063C132.315 83.8273 119.979 92.614 116.653 115.391C115.731 121.704 115.578 128.69 116.188 136.15C116.201 136.335 116.14 136.517 116.018 136.654C115.77 136.928 115.317 136.915 115.052 136.685C103.36 130.601 92.3902 129.916 84.15 134.751C75.2047 139.999 70.2771 151.126 70.2771 166.085C70.2771 197.232 91.8765 235.255 118.421 250.842L165.089 278.233V206.908L135.188 189.361C134.997 189.25 134.875 189.043 134.862 188.817C134.853 188.591 134.953 188.374 135.136 188.246L181.247 154.882C181.399 154.772 181.591 154.732 181.774 154.776C181.956 154.82 182.113 154.94 182.2 155.108L228.315 242.586C228.455 242.847 228.402 243.17 228.193 243.378C227.985 243.586 227.662 243.626 227.414 243.475L198.162 226.313V297.634H198.167Z" fill="#3A3A3A"/>
<path d="M168.989 62.5096C168.776 62.5096 168.567 62.4034 168.441 62.2087C168.245 61.9034 168.328 61.492 168.632 61.2885C169.829 60.4921 170.735 60.0098 171.222 59.7532L171.427 59.6426C171.745 59.47 172.141 59.5895 172.311 59.9125C172.48 60.2355 172.363 60.6381 172.045 60.8106L171.823 60.9301C171.357 61.1778 170.487 61.6424 169.338 62.4034C169.237 62.4786 169.111 62.5096 168.989 62.5096Z" fill="#3A3A3A"/>
<path d="M302.054 340.538C301.828 340.538 301.61 340.419 301.488 340.207C301.31 339.888 301.414 339.485 301.727 339.3L336.129 319.111C346.593 312.975 352.352 299.954 352.352 282.451C352.352 242.836 323.801 196.013 290.009 180.205C289.8 180.107 289.657 179.904 289.631 179.669C285.09 134.793 254.097 85.6212 217.533 65.2913C200.53 55.8365 184.868 54.2526 172.236 60.7033C172.201 60.7254 172.166 60.7476 172.127 60.7697C171.805 60.9334 171.413 60.8006 171.252 60.4732C171.095 60.1547 171.213 59.7742 171.513 59.6016C171.539 59.5795 171.574 59.5618 171.605 59.5441C184.646 52.859 200.748 54.4429 218.164 64.1277C235.354 73.6843 252.195 90.2844 265.589 110.866C279.562 132.338 288.538 156.574 290.893 179.156C307.456 187.009 323.179 202.331 335.206 222.338C346.933 241.849 353.658 263.758 353.658 282.451C353.658 300.449 347.664 313.877 336.782 320.262L302.38 340.45C302.276 340.512 302.163 340.538 302.054 340.538Z" fill="#3A3A3A"/>
<path d="M137.491 80.9907C137.264 80.9907 137.047 80.8713 136.925 80.6589C136.746 80.3404 136.851 79.9377 137.164 79.7519L171.509 59.599C171.822 59.4176 172.219 59.5238 172.401 59.8424C172.58 60.1609 172.475 60.5636 172.162 60.7494L137.821 80.9022C137.717 80.9598 137.604 80.9907 137.491 80.9907Z" fill="#3A3A3A"/>
<path d="M83.8237 134.841C83.5974 134.841 83.3797 134.721 83.2578 134.509C83.0793 134.19 83.1838 133.788 83.4972 133.602L115.683 114.719C115.996 114.538 116.397 114.644 116.575 114.962C116.754 115.281 116.649 115.683 116.336 115.869L84.1502 134.752C84.0457 134.81 83.9325 134.841 83.8237 134.841Z" fill="#3A3A3A"/>
<path d="M200.147 224.246C199.786 224.246 199.494 223.949 199.494 223.582V190.563C199.494 190.196 199.786 189.9 200.147 189.9C200.508 189.9 200.8 190.196 200.8 190.563V223.582C200.8 223.949 200.508 224.246 200.147 224.246Z" fill="#3A3A3A"/>
<path d="M196.926 185.117C196.817 185.117 196.704 185.086 196.6 185.029L169.59 169.181C169.398 169.07 169.276 168.862 169.263 168.636C169.255 168.411 169.355 168.194 169.537 168.066L183.04 158.292C183.332 158.08 183.741 158.151 183.95 158.447C184.159 158.744 184.089 159.159 183.798 159.372L171.122 168.548L197.253 183.878C197.566 184.06 197.671 184.467 197.492 184.785C197.375 184.998 197.153 185.117 196.926 185.117Z" fill="#3A3A3A"/>
<path d="M135.519 189.457C135.293 189.457 135.075 189.337 134.953 189.125C134.775 188.807 134.879 188.404 135.193 188.218L169.594 168.034C169.907 167.853 170.303 167.959 170.486 168.278C170.665 168.596 170.56 168.999 170.247 169.185L135.845 189.368C135.741 189.426 135.628 189.457 135.519 189.457Z" fill="#3A3A3A"/>
<path d="M165.746 207.192C165.519 207.192 165.302 207.072 165.18 206.86C165.001 206.541 165.106 206.139 165.419 205.953L198.123 186.765C198.436 186.583 198.832 186.689 199.015 187.008C199.194 187.327 199.089 187.729 198.776 187.915L166.072 207.103C165.968 207.161 165.854 207.192 165.746 207.192Z" fill="#3A3A3A"/>
<path d="M165.746 280.036C165.519 280.036 165.302 279.917 165.18 279.709C164.997 279.39 165.101 278.987 165.415 278.802L197.183 259.967C197.492 259.781 197.892 259.892 198.075 260.206C198.258 260.525 198.153 260.927 197.84 261.113L166.072 279.947C165.968 280.009 165.855 280.036 165.746 280.036Z" fill="#3A3A3A"/>
<path d="M197.514 225.832C197.292 225.832 197.074 225.717 196.952 225.504C196.77 225.19 196.87 224.783 197.183 224.597L213.028 215.049C213.337 214.864 213.737 214.965 213.92 215.284C214.103 215.598 214.003 216.005 213.69 216.195L197.845 225.743C197.74 225.801 197.627 225.832 197.514 225.832Z" fill="#3A3A3A"/>
<path d="M128.01 311.244C128.01 312.213 127.675 313.293 127.126 314.244C126.586 315.191 125.846 316.023 125.024 316.5C123.374 317.469 122.033 316.686 122.033 314.748C122.033 312.81 123.374 310.457 125.024 309.492C126.669 308.523 128.01 309.306 128.01 311.244Z" fill="#3A3A3A"/>
<path d="M365.196 564.025C364.834 564.025 364.543 563.728 364.543 563.361V518.857L343.039 506.239C342.726 506.057 342.621 505.65 342.8 505.332C342.978 505.013 343.379 504.907 343.692 505.088L365.522 517.897C365.722 518.016 365.849 518.233 365.849 518.472V563.361C365.849 563.728 365.557 564.025 365.196 564.025Z" fill="#3A3A3A"/>
<path d="M347.667 574.192C347.553 574.192 347.44 574.161 347.34 574.103L325.51 561.295C325.31 561.175 325.184 560.959 325.184 560.72V515.83C325.184 515.591 325.31 515.375 325.51 515.255C325.71 515.136 325.958 515.136 326.163 515.255L347.993 528.064C348.193 528.183 348.32 528.4 348.32 528.639V573.528C348.32 573.767 348.193 573.984 347.993 574.103C347.893 574.161 347.78 574.192 347.667 574.192ZM326.489 560.335L347.014 572.378V529.019L326.489 516.976V560.335Z" fill="#3A3A3A"/>
<path d="M325.836 516.495C325.61 516.495 325.388 516.375 325.27 516.158C325.092 515.84 325.201 515.437 325.514 515.256L343.044 505.089C343.357 504.907 343.757 505.018 343.936 505.337C344.114 505.655 344.006 506.062 343.692 506.243L326.163 516.411C326.058 516.468 325.945 516.495 325.836 516.495Z" fill="#3A3A3A"/>
<path d="M347.666 529.304C347.44 529.304 347.218 529.184 347.1 528.968C346.922 528.649 347.031 528.242 347.344 528.061L364.874 517.893C365.187 517.712 365.587 517.823 365.766 518.141C365.944 518.46 365.836 518.867 365.522 519.048L347.993 529.215C347.888 529.277 347.775 529.304 347.666 529.304Z" fill="#3A3A3A"/>
<path d="M347.666 574.193C347.44 574.193 347.218 574.074 347.1 573.857C346.922 573.538 347.031 573.131 347.344 572.95L364.874 562.783C365.187 562.601 365.587 562.712 365.766 563.031C365.944 563.349 365.836 563.756 365.522 563.938L347.993 574.105C347.888 574.162 347.775 574.193 347.666 574.193Z" fill="#3A3A3A"/>
<path d="M354.793 556.38C354.431 556.38 354.14 556.084 354.14 555.717V550.394C354.14 550.027 354.431 549.73 354.793 549.73C355.154 549.73 355.446 550.027 355.446 550.394V555.717C355.446 556.084 355.154 556.38 354.793 556.38Z" fill="#3A3A3A"/>
<path d="M357.813 554.845C357.452 554.845 357.16 554.549 357.16 554.182V548.859C357.16 548.492 357.452 548.195 357.813 548.195C358.174 548.195 358.466 548.492 358.466 548.859V554.182C358.466 554.549 358.174 554.845 357.813 554.845Z" fill="#3A3A3A"/>
<path d="M355.271 546.001C354.875 546.001 354.5 545.903 354.165 545.709C353.39 545.253 352.964 544.35 352.964 543.169C352.964 540.988 354.422 538.426 356.281 537.338C357.286 536.745 358.266 536.67 359.041 537.125C359.815 537.581 360.242 538.484 360.242 539.665C360.242 540.727 359.898 541.913 359.267 543.001C358.644 544.094 357.809 544.983 356.925 545.496C356.359 545.828 355.793 546.001 355.271 546.001ZM357.944 538.156C357.652 538.156 357.304 538.267 356.938 538.484C355.493 539.329 354.274 541.47 354.274 543.165C354.274 543.846 354.474 544.35 354.823 544.554C355.171 544.757 355.706 544.682 356.285 544.342C356.977 543.939 357.639 543.227 358.148 542.329C358.653 541.452 358.945 540.479 358.945 539.661C358.945 538.979 358.745 538.475 358.396 538.271C358.266 538.196 358.113 538.156 357.944 538.156Z" fill="#3A3A3A"/>
<path d="M97.7974 520.084L76.0284 532.857L54.2549 520.084L76.0284 507.307L97.7974 520.084Z" fill="#3A3A3A"/>
<path d="M76.0279 589.16C75.9148 589.16 75.8016 589.129 75.7015 589.071C75.5012 588.952 75.375 588.735 75.375 588.496V532.856C75.375 532.617 75.5012 532.4 75.7015 532.281L97.4706 519.508C97.6708 519.388 97.9233 519.388 98.1235 519.508C98.3237 519.627 98.45 519.844 98.45 520.083V575.719C98.45 575.958 98.3237 576.174 98.1235 576.294L76.3544 589.071C76.2543 589.129 76.1411 589.16 76.0279 589.16ZM76.6809 533.241V587.35L97.1441 575.338V521.233L76.6809 533.241Z" fill="#3A3A3A"/>
<path d="M76.028 589.16C75.9192 589.16 75.806 589.133 75.7015 589.071L53.928 576.294C53.7278 576.174 53.6016 575.958 53.6016 575.719V520.083C53.6016 519.844 53.7278 519.627 53.928 519.508C54.1283 519.388 54.3807 519.388 54.581 519.508L76.3545 532.281C76.6679 532.462 76.7723 532.869 76.5939 533.188C76.4154 533.506 76.0149 533.612 75.7015 533.431L54.9074 521.233V575.338L76.3545 587.926C76.6679 588.107 76.7723 588.514 76.5939 588.833C76.472 589.04 76.2543 589.16 76.028 589.16Z" fill="#3A3A3A"/>
<path d="M97.7969 520.746C97.6881 520.746 97.5749 520.72 97.4704 520.658L76.0278 508.071L54.5808 520.658C54.2674 520.839 53.8669 520.733 53.6885 520.415C53.51 520.096 53.6145 519.694 53.9279 519.508L75.7014 506.73C75.9016 506.611 76.1541 506.611 76.3543 506.73L98.1234 519.508C98.4368 519.689 98.5413 520.096 98.3628 520.415C98.2409 520.627 98.0233 520.746 97.7969 520.746Z" fill="#3A3A3A"/>
<path d="M82.8708 532.532C82.6706 532.532 82.4704 532.488 82.305 532.395L53.4101 515.432C53.1489 515.29 52.9835 515.02 52.9835 514.719C52.9791 514.405 53.1576 514.118 53.4579 513.945L72.2279 502.933C72.5413 502.752 72.9592 502.712 73.2943 502.827C73.6339 502.946 73.8167 503.322 73.6992 503.672C73.5816 504.017 73.2116 504.203 72.8678 504.083L54.7769 514.706L82.8795 531.205L101.253 520.427C101.24 520.294 101.271 520.153 101.345 520.029C101.532 519.715 101.932 519.613 102.241 519.803L102.35 519.869C102.607 520.015 102.768 520.285 102.768 520.586C102.768 520.9 102.585 521.188 102.285 521.356L83.5281 532.364C83.3279 532.474 83.0972 532.532 82.8708 532.532ZM101.676 521.002C101.68 521.006 101.689 521.011 101.693 521.015L101.676 521.002ZM54.0456 514.273L54.063 514.281C54.0543 514.281 54.05 514.277 54.0456 514.273Z" fill="#3A3A3A"/>
<path d="M85.522 525.976C85.4088 525.976 85.2956 525.945 85.1955 525.887L64.4798 513.729C64.2796 513.61 64.1533 513.393 64.1533 513.154C64.1533 512.915 64.2796 512.698 64.4798 512.579L72.5284 507.854C72.7286 507.734 72.9811 507.734 73.1813 507.854L93.897 520.012C94.0973 520.131 94.2235 520.348 94.2235 520.587C94.2235 520.826 94.0973 521.043 93.897 521.162L85.8484 525.887C85.7483 525.949 85.6351 525.976 85.522 525.976ZM66.1121 513.154L85.522 524.547L92.2647 520.587L72.8549 509.194L66.1121 513.154Z" fill="#3A3A3A"/>
<path d="M78.5221 526.086C78.4133 526.086 78.3001 526.059 78.1957 525.997L64.2619 517.821C63.9485 517.64 63.844 517.233 64.0225 516.914C64.2009 516.596 64.6014 516.489 64.9148 516.671L78.8486 524.847C79.162 525.028 79.2665 525.435 79.088 525.754C78.9661 525.966 78.7485 526.086 78.5221 526.086Z" fill="#3A3A3A"/>
<path d="M102.041 521.072C101.884 521.072 101.723 521.028 101.575 520.94L72.6889 503.99C72.3015 503.76 72.0839 503.295 72.1535 502.866L75.8535 482.713C75.9101 482.421 76.0842 482.191 76.3367 482.076C76.5935 481.957 76.8895 481.979 77.1507 482.134L106.033 499.079C106.416 499.309 106.638 499.782 106.568 500.207L102.868 520.36C102.811 520.652 102.633 520.878 102.385 520.993C102.276 521.046 102.158 521.072 102.041 521.072ZM73.4725 502.919L101.701 519.484L105.253 500.159L77.0288 483.594L73.4725 502.919Z" fill="#3A3A3A"/>
<path d="M49.1136 602.281C50.5718 603.63 47.22 605.484 47.22 605.484C47.22 605.484 45.283 607.023 41.9051 608.762C40.0638 609.709 38.5707 609.444 37.5913 609.006C36.7947 608.647 36.3159 607.846 36.3376 607.006L36.3725 605.793C36.6728 606.116 37.0559 606.364 37.5086 606.493C40.4207 607.351 43.5418 606.276 44.2992 602.798C44.2861 602.466 44.2731 602.139 44.2556 601.816C46.7978 601.444 48.0297 601.281 49.1136 602.281Z" fill="#3A3A3A"/>
<path d="M31.3142 560.757C28.5675 569.987 27.057 579.07 26.8699 590.808C26.8437 592.63 26.8438 594.52 26.8786 596.48C26.8873 596.847 26.8002 597.174 26.6479 597.457C25.6641 599.262 21.8248 599.316 20.4319 597.9C20.1141 597.577 19.9226 597.174 19.9226 596.701C19.9226 596.701 19.7876 573.508 20.8106 567.832C21.8335 562.156 19.5526 550.471 19.7876 544.144C19.8529 542.281 19.9008 540.547 19.9313 538.928C19.9879 538.976 20.0444 539.025 20.101 539.074C21.0369 541.503 22.5561 543.042 24.8022 544.325C27.9799 546.148 30.9878 547.887 34.8532 548.635C36.0285 548.86 37.3474 548.732 38.6141 548.431C41.2216 547.821 42.6928 546.515 43.5243 545.14C43.6113 549.905 43.5896 554.798 43.4764 560.753C43.2021 575.495 43.3502 582.755 44.2512 601.815C44.2686 602.138 44.2817 602.466 44.2947 602.798C43.5373 606.271 40.4163 607.35 37.5041 606.492C37.0558 606.364 36.6684 606.116 36.368 605.793C36.0241 605.421 35.8021 604.948 35.7586 604.426C35.319 599.324 34.4005 581.702 34.2525 575.375C34.1741 571.606 32.7768 566.076 31.3142 560.757Z" fill="#3A3A3A"/>
<path d="M40.4207 493.443L36.6728 502.119C36.6728 502.119 35.8675 500.42 34.4528 501.23C33.0381 502.04 34.196 505.256 32.8596 506.079C31.8628 506.698 30.2348 507.641 28.1802 506.393C28.0932 503.5 27.8799 500.748 27.9974 498.363C28.128 495.775 30.5482 493.859 33.2079 494.208C35.8371 494.554 38.932 494.629 40.4207 493.443Z" fill="#3A3A3A"/>
<path d="M28.1846 591.454C29.386 592.104 28.1149 595.183 26.8831 597.581L26.6523 597.457C26.8047 597.174 26.8918 596.847 26.8831 596.48C26.8482 594.515 26.8482 592.63 26.8743 590.808C27.3053 591.002 27.758 591.223 28.1846 591.454Z" fill="#3A3A3A"/>
<path d="M26.6478 597.46L26.8785 597.584C26.5738 598.177 26.2691 598.726 26.0079 599.19C25.4855 600.11 24.4887 600.703 23.4005 600.69C22.8912 600.681 22.4341 600.628 21.9988 600.535C21.0064 600.314 20.3316 599.42 20.3969 598.438L20.4318 597.907C21.8247 599.323 25.664 599.265 26.6478 597.46Z" fill="#3A3A3A"/>
<path d="M23.4137 599.561C22.1774 599.561 20.8019 599.221 19.9705 598.376C19.5134 597.907 19.2697 597.331 19.2697 596.708C19.2653 595.761 19.1478 573.391 20.1664 567.719C20.741 564.534 20.236 559.313 19.7485 554.26C19.3785 550.447 19.0346 546.845 19.1347 544.12C19.1739 543.027 19.2871 538.607 19.2871 538.607C19.4655 531.577 19.2 526.896 18.9171 522.702C18.8648 521.963 18.8169 521.281 18.7691 520.644C18.6689 519.26 18.5819 518.061 18.5471 517.016C18.5166 516.056 18.5297 515.282 18.5906 514.579C18.6211 514.211 18.9432 513.946 19.3001 513.977C19.6614 514.008 19.927 514.331 19.8921 514.698C19.8355 515.344 19.8225 516.07 19.8529 516.972C19.8878 517.99 19.9748 519.175 20.075 520.547C20.1228 521.184 20.1707 521.87 20.223 522.609C20.4363 525.732 20.7888 530.957 20.5973 538.638C20.5973 538.638 20.4841 543.067 20.445 544.164C20.3492 546.797 20.6887 550.358 21.0544 554.123C21.5506 559.264 22.0643 564.582 21.4549 567.949C20.458 573.498 20.5756 596.464 20.5799 596.694C20.5799 596.969 20.6844 597.208 20.8977 597.429C21.5027 598.044 22.8608 598.358 24.1275 598.176C25.0808 598.039 25.7904 597.659 26.0777 597.132C26.1822 596.942 26.23 596.725 26.2257 596.486C26.1909 594.504 26.1908 592.589 26.217 590.792C26.3867 579.709 27.7666 570.383 30.6918 560.561C30.7963 560.211 31.1619 560.012 31.5058 560.118C31.8497 560.224 32.0456 560.596 31.9411 560.946C29.0551 570.644 27.6926 579.855 27.5228 590.81C27.4967 592.593 27.4967 594.495 27.5316 596.46C27.5403 596.933 27.4358 597.376 27.2182 597.774C26.7219 598.681 25.6859 599.291 24.306 599.491C24.0231 599.539 23.7227 599.561 23.4137 599.561Z" fill="#3A3A3A"/>
<path d="M39.3934 607.444C38.7187 607.444 38.0179 607.343 37.3258 607.139C36.7773 606.98 36.2854 606.675 35.898 606.254C35.4497 605.768 35.171 605.139 35.1145 604.493C34.6661 599.277 33.7477 581.606 33.6084 575.403C33.5256 571.736 32.1588 566.285 30.6919 560.945C30.435 560.02 30.1826 559.1 29.9301 558.197C29.1161 555.273 28.3456 552.507 27.8451 550.273C27.7667 549.915 27.9843 549.561 28.3369 549.481C28.6939 549.397 29.0378 549.623 29.1161 549.981C29.608 552.184 30.3741 554.932 31.1838 557.839C31.4362 558.741 31.6931 559.666 31.9455 560.591C33.4342 566.015 34.8272 571.563 34.9099 575.377C35.0492 581.562 35.9633 599.184 36.4117 604.383C36.4421 604.741 36.5901 605.077 36.847 605.352C37.0733 605.595 37.3606 605.772 37.6827 605.865C39.1671 606.303 40.6514 606.17 41.7571 605.507C42.7017 604.936 43.3546 603.985 43.6419 602.75C43.6288 602.449 43.6158 602.153 43.6027 601.861C42.6929 582.584 42.558 575.284 42.8279 560.754C42.9454 554.565 42.9585 549.755 42.8758 545.167C42.8148 541.8 42.6973 538.509 42.5101 534.806C42.4927 534.438 42.767 534.129 43.1283 534.107C43.4939 534.089 43.7943 534.368 43.816 534.735C44.0032 538.451 44.1207 541.756 44.1817 545.141C44.2644 549.747 44.2513 554.569 44.1338 560.776C43.8639 575.271 43.9989 582.553 44.9043 601.795C44.9217 602.118 44.9347 602.449 44.9478 602.781C44.9478 602.839 44.9434 602.896 44.9347 602.954C44.5778 604.595 43.7072 605.874 42.4231 606.648C41.5438 607.175 40.4947 607.444 39.3934 607.444Z" fill="#3A3A3A"/>
<path d="M42.9807 535.095C42.7544 535.095 42.5324 534.971 42.4105 534.754C41.2831 532.706 40.2906 530.688 39.1458 528.348L38.2926 526.614C38.1316 526.286 38.2621 525.888 38.5843 525.724C38.9064 525.561 39.2981 525.693 39.4592 526.021L40.3124 527.759C41.4528 530.082 42.4366 532.091 43.5466 534.108C43.7251 534.427 43.6119 534.834 43.2942 535.011C43.1984 535.068 43.0895 535.095 42.9807 535.095Z" fill="#3A3A3A"/>
<path d="M47.6513 539.83C47.4032 539.83 47.1551 539.808 46.907 539.759C45.8187 539.551 44.8567 538.887 44.2691 537.936C43.6553 536.945 43.1069 536.016 42.5932 535.091C42.5932 535.091 42.4496 534.835 42.4017 534.746C42.2319 534.423 42.3538 534.021 42.6716 533.848C42.9893 533.676 43.3854 533.799 43.5552 534.122C43.5987 534.202 43.7293 534.441 43.7293 534.441C44.2299 535.348 44.7697 536.259 45.3704 537.228C45.7665 537.87 46.4151 538.317 47.1464 538.454C47.8777 538.591 48.6046 538.423 49.1966 537.98C53.1186 535.029 56.675 531.556 59.2084 528.198C60.4055 526.61 62.0161 525.34 63.8661 524.522L64.9413 524.048C65.2416 523.915 65.4201 523.601 65.3809 523.274L65.3287 522.778C65.3069 522.588 65.3679 522.398 65.4984 522.256L66.2384 521.442C66.3777 521.292 66.4517 521.093 66.4517 520.885C66.4517 520.615 66.3298 520.372 66.1166 520.208C65.9033 520.049 65.6247 520.004 65.3765 520.088L63.9183 520.575C62.6168 521.009 61.485 521.818 60.6536 522.916L60.1443 523.584C59.5131 524.411 58.7514 525.119 57.8764 525.685L49.954 530.804C49.793 530.91 49.5971 530.937 49.4143 530.879C49.2315 530.822 49.0835 530.689 49.0051 530.512L45.8666 523.287C44.6043 520.38 42.8544 517.898 40.6605 515.907C38.7452 514.169 36.7907 512.978 33.9178 511.797C33.9004 511.793 33.8873 511.784 33.8699 511.775C33.8525 511.766 33.8351 511.757 33.8264 511.753C33.5042 511.585 33.378 511.182 33.5434 510.859C33.7045 510.541 34.0832 510.412 34.3966 510.563C34.4053 510.567 34.414 510.572 34.4227 510.576C37.4001 511.802 39.5244 513.102 41.5267 514.921C43.8556 517.036 45.7143 519.668 47.055 522.752L49.8844 529.273L57.1669 524.57C57.9112 524.088 58.5642 523.482 59.104 522.774L59.6132 522.106C60.6057 520.801 61.9551 519.836 63.5048 519.319L64.963 518.832C65.616 518.615 66.3342 518.735 66.887 519.146C67.4268 519.553 67.7489 520.203 67.7489 520.889C67.7489 521.429 67.5487 521.947 67.1917 522.345L66.652 522.938L66.6737 523.132C66.7738 524.044 66.282 524.902 65.4549 525.269L64.3797 525.743C62.7343 526.473 61.3022 527.601 60.2401 529.008C57.6327 532.459 53.9849 536.025 49.9671 539.051C49.2881 539.56 48.4828 539.83 47.6513 539.83Z" fill="#3A3A3A"/>
<path d="M36.1329 549.419C35.641 549.419 35.1752 549.379 34.7356 549.295C30.7918 548.534 27.7622 546.796 24.5541 544.951L24.4844 544.911C21.9771 543.473 20.4362 541.752 19.4959 539.323C19.4393 539.172 19.3784 539.022 19.3262 538.863C19.3175 538.841 19.3088 538.818 19.3044 538.801C19.1956 538.451 19.3827 538.08 19.7223 537.965C20.0574 537.854 20.4144 538.031 20.5363 538.363C20.545 538.38 20.5537 538.398 20.558 538.42C20.6059 538.562 20.6582 538.699 20.7104 538.836C21.5462 540.991 22.8651 542.46 25.1243 543.756L25.1939 543.796C28.3063 545.583 31.2445 547.269 34.9794 547.99C35.9544 548.176 37.1297 548.11 38.4704 547.791C40.5555 547.304 42.0703 546.296 42.9714 544.8C43.1586 544.486 43.5634 544.389 43.8681 544.583C44.1772 544.774 44.2729 545.185 44.0814 545.495C42.9888 547.304 41.1997 548.512 38.7621 549.083C37.8218 549.309 36.9382 549.419 36.1329 549.419Z" fill="#3A3A3A"/>
<path d="M34.1266 512.078C34.0613 512.078 33.996 512.069 33.9307 512.047C33.5868 511.936 33.3953 511.565 33.5042 511.215C33.5085 511.202 33.5128 511.184 33.5128 511.171C33.5128 511.149 33.5128 511.127 33.5172 511.105C33.5128 511.078 33.5085 511.034 33.4998 510.99C33.4084 510.636 33.6217 510.273 33.9699 510.18C34.3182 510.087 34.6751 510.299 34.7665 510.658C34.797 510.773 34.81 510.883 34.8231 510.999C34.8274 511.069 34.8274 511.14 34.8274 511.202C34.8231 511.344 34.8013 511.485 34.7621 511.618C34.662 511.897 34.4052 512.078 34.1266 512.078Z" fill="#3A3A3A"/>
<path d="M32.2588 513.034C31.9106 513.034 31.5406 512.994 31.1575 512.91C29.1552 512.477 27.6012 511.136 27.5315 509.791C27.5228 509.632 27.5315 509.49 27.562 509.353C27.636 508.995 27.9842 508.764 28.3368 508.84C28.6894 508.915 28.9158 509.269 28.8418 509.627C28.8418 509.636 28.8374 509.667 28.8374 509.725C28.8679 510.357 29.9822 511.295 31.4274 511.609C32.6332 511.87 33.408 511.552 33.5038 511.22C33.6039 510.866 33.9695 510.667 34.3134 510.769C34.6573 510.87 34.8576 511.242 34.7574 511.592C34.4919 512.507 33.5255 513.034 32.2588 513.034Z" fill="#3A3A3A"/>
<path d="M28.2027 510.163H28.1983C27.8414 510.159 27.5497 509.88 27.5497 509.517C27.5497 509.517 27.5628 508.756 27.5628 508.455C27.5628 507.801 27.5541 507.119 27.5323 506.425C27.5323 506.416 27.5323 506.411 27.5323 506.403C27.5062 505.549 27.4714 504.708 27.4322 503.885C27.3451 501.907 27.2624 500.036 27.3495 498.328C27.4191 496.943 28.0503 495.678 29.1298 494.762C30.2747 493.793 31.7895 493.351 33.2956 493.55C36.5821 493.983 38.9675 493.762 40.0209 492.922C40.256 492.731 40.5868 492.731 40.8262 492.917C41.0613 493.103 41.144 493.43 41.0221 493.709L37.2742 502.385C37.1697 502.624 36.9434 502.779 36.6866 502.783C36.4297 502.783 36.199 502.642 36.0859 502.407C36.0119 502.252 35.7289 501.814 35.372 501.699C35.2588 501.664 35.076 501.637 34.7756 501.806C34.3708 502.04 34.3229 502.898 34.2794 503.726C34.2228 504.819 34.1531 506.053 33.1999 506.641C32.3946 507.141 30.8362 508.115 28.8556 507.438C28.86 507.783 28.8556 509.345 28.8513 509.491C28.8469 509.858 28.5553 510.163 28.2027 510.163ZM28.8208 505.995C30.3095 506.743 31.463 506.172 32.5208 505.518C32.8864 505.292 32.93 504.465 32.9735 503.664C33.0344 502.531 33.1041 501.248 34.1314 500.66C34.6712 500.35 35.237 500.275 35.7637 500.443C36.0554 500.536 36.2991 500.691 36.5037 500.863L39.1329 494.78C37.6747 495.178 35.6636 495.209 33.1215 494.873C31.9767 494.722 30.8275 495.054 29.9613 495.789C29.1647 496.461 28.6989 497.39 28.6467 498.403C28.5639 500.049 28.6423 501.885 28.7294 503.832C28.7642 504.535 28.7947 505.261 28.8208 505.995Z" fill="#3A3A3A"/>
<path d="M34.1266 512.079C33.7653 512.079 33.4736 511.783 33.4736 511.416V510.438C33.4736 509.562 33.4736 507.743 35.2844 507.04C35.3193 507.027 35.3498 507.013 35.3846 507C36.8211 506.443 37.8266 505.199 38.0225 503.744C38.3098 501.598 38.3881 499.611 38.2924 496.89C38.2793 496.523 38.5622 496.218 38.9235 496.205C39.3022 496.196 39.5852 496.479 39.5982 496.846C39.694 499.611 39.6113 501.731 39.3153 503.925C39.0541 505.872 37.7134 507.531 35.8155 508.257C35.8068 508.261 35.7981 508.265 35.785 508.265C35.7807 508.27 35.772 508.27 35.7676 508.274C35.0233 508.557 34.7839 509.084 34.7839 510.438V511.416C34.7795 511.778 34.4879 512.079 34.1266 512.079Z" fill="#3A3A3A"/>
<path d="M39.4415 610.074C38.5884 610.074 37.8745 609.866 37.326 609.618C36.2944 609.154 35.6501 608.123 35.6849 606.99L35.7198 605.778C35.7285 605.411 36.0332 605.114 36.3901 605.132C36.7514 605.141 37.0344 605.446 37.0257 605.813L36.9908 607.025C36.9734 607.618 37.313 608.158 37.8571 608.401C39.0324 608.928 40.2947 608.848 41.6093 608.171C44.8827 606.486 46.798 604.977 46.8198 604.959C46.8459 604.937 46.8764 604.915 46.9112 604.902C47.6469 604.495 48.7656 603.632 48.8309 603.079C48.8352 603.026 48.8483 602.933 48.6785 602.774C47.8471 602.004 46.9199 602.097 44.3517 602.477C43.9947 602.53 43.6639 602.278 43.6117 601.915C43.5594 601.553 43.8076 601.216 44.1645 601.163C46.6979 600.787 48.2258 600.562 49.5578 601.791C50.1106 602.3 50.1716 602.858 50.1281 603.234C49.9626 604.61 48.0778 605.76 47.5859 606.039C47.2725 606.282 45.3703 607.725 42.2057 609.353C41.1784 609.888 40.2512 610.074 39.4415 610.074Z" fill="#3A3A3A"/>
<path d="M23.4317 601.358H23.3969C22.8615 601.349 22.3609 601.296 21.8603 601.185C20.5413 600.893 19.6533 599.716 19.7447 598.389L19.7796 597.858C19.8013 597.491 20.1148 597.217 20.4717 597.239C20.833 597.261 21.1029 597.58 21.0811 597.942L21.0463 598.473C21.0028 599.141 21.4598 599.73 22.1345 599.88C22.5437 599.969 22.9616 600.017 23.4056 600.022H23.4273C24.2588 600.022 25.0292 599.575 25.4384 598.854C25.7605 598.287 26.0391 597.77 26.2959 597.27C28.294 593.385 28.0981 592.16 27.8717 592.036C27.493 591.828 27.0664 591.62 26.6006 591.408C26.2698 591.257 26.1218 590.868 26.2698 590.532C26.4178 590.195 26.8009 590.049 27.1317 590.195C27.6236 590.417 28.0806 590.642 28.4855 590.863C29.861 591.607 29.5302 593.841 27.4538 597.885C27.1883 598.398 26.901 598.933 26.5702 599.517C25.9347 600.659 24.7332 601.358 23.4317 601.358Z" fill="#3A3A3A"/>
<path d="M20.1013 539.745C19.9533 539.745 19.8054 539.697 19.6835 539.595L19.5093 539.444C18.9304 538.949 18.4037 538.387 17.9075 537.737C17.3416 536.993 17.1892 536.02 17.5026 535.135L17.5766 534.923C18.0163 533.679 17.8552 532.277 17.1457 531.166L16.6016 530.313C14.1944 526.556 12.118 523.313 9.7892 519.296C8.21778 516.584 8.9099 513.12 11.3954 511.239L12.2225 510.62C13.3847 509.748 14.5862 508.881 16.249 507.713C19.209 505.629 23.0788 505.293 26.3478 506.837L28.4938 507.855C28.8203 508.009 28.964 508.403 28.8072 508.735C28.6549 509.067 28.2675 509.208 27.941 509.054L25.795 508.036C22.9438 506.691 19.5703 506.983 16.989 508.801C15.3392 509.961 14.1465 510.823 12.9973 511.686L12.1746 512.301C10.2245 513.774 9.68038 516.491 10.9123 518.619C13.228 522.61 15.2957 525.844 17.6942 529.587L18.2383 530.441C19.1698 531.892 19.3831 533.737 18.8042 535.365L18.7302 535.573C18.5691 536.033 18.6475 536.538 18.9348 536.918C19.3744 537.498 19.8358 537.989 20.3451 538.427L20.5105 538.568C20.7891 538.803 20.8283 539.219 20.5976 539.502C20.4757 539.666 20.2885 539.745 20.1013 539.745Z" fill="#3A3A3A"/>
<path d="M19.5658 523.326C19.3394 523.326 19.1218 523.207 18.9999 522.994L16.5361 518.689C16.3577 518.38 16.4534 517.986 16.7494 517.796L18.8432 516.437C19.1479 516.243 19.5484 516.331 19.7443 516.641C19.9401 516.951 19.8487 517.362 19.544 517.557L17.977 518.574L20.1273 522.326C20.3101 522.645 20.2013 523.047 19.8923 523.233C19.7922 523.299 19.679 523.326 19.5658 523.326Z" fill="#3A3A3A"/>
<path d="M17.1024 519.021C17.0458 519.021 16.9892 519.013 16.9283 518.999C16.8717 518.982 11.3957 517.389 11.9529 511.093C11.9834 510.726 12.3098 510.46 12.6624 510.491C13.0237 510.527 13.2849 510.845 13.2544 511.212C12.793 516.411 17.0894 517.668 17.2722 517.721C17.6204 517.818 17.825 518.181 17.7292 518.535C17.6509 518.827 17.3897 519.021 17.1024 519.021Z" fill="#3A3A3A"/>
<path d="M44.6043 535.398C44.008 535.398 43.3899 535.283 42.7587 535.053C42.4191 534.929 42.2407 534.549 42.3626 534.203C42.4845 533.858 42.8544 533.677 43.1983 533.801C44.243 534.181 45.1789 534.155 46.0539 533.726C48.0345 532.757 48.9704 530.04 48.9791 530.014C49.0966 529.669 49.4666 529.478 49.8061 529.602C50.1456 529.722 50.3285 530.098 50.2153 530.443C50.1718 530.576 49.1009 533.708 46.6241 534.92C45.9842 535.239 45.3095 535.398 44.6043 535.398Z" fill="#3A3A3A"/>
<path d="M237.601 327.746L250.037 353.031L237.601 360.331V327.746Z" fill="#3A3A3A"/>
<path d="M237.601 361C237.488 361 237.375 360.969 237.275 360.912L224.834 353.612C224.534 353.435 224.421 353.054 224.577 352.74L237.018 327.455C237.127 327.229 237.353 327.088 237.601 327.088C237.849 327.088 238.076 327.229 238.185 327.455L250.621 352.74C250.773 353.054 250.664 353.435 250.364 353.612L237.928 360.912C237.828 360.969 237.714 361 237.601 361ZM226.018 352.775L237.601 359.571L249.18 352.775L237.601 329.238L226.018 352.775Z" fill="#3A3A3A"/>
<path d="M237.601 361C237.24 361 236.948 360.704 236.948 360.337V327.751C236.948 327.384 237.24 327.088 237.601 327.088C237.962 327.088 238.254 327.384 238.254 327.751V360.337C238.254 360.704 237.962 361 237.601 361Z" fill="#3A3A3A"/>
<path d="M50.698 65.0444L61.4889 71.3712C37.4955 85.4495 18.0552 119.676 18.0552 147.833L7.26855 141.506C11.6041 113.327 28.8549 82.9586 50.698 65.0444Z" fill="#3A3A3A"/>
<path d="M51.5074 97.9596L61.4887 103.813C52.761 108.936 45.6962 121.378 45.6962 131.62L35.7148 125.762C38.5181 115.635 44.2858 105.49 51.5074 97.9596Z" fill="#3A3A3A"/>
<path d="M45.6959 132.277C45.5827 132.277 45.4696 132.246 45.3694 132.189C45.1692 132.069 45.043 131.853 45.043 131.614C45.043 121.181 52.2732 108.448 61.162 103.231C61.3622 103.112 61.6147 103.112 61.8149 103.231C62.0151 103.351 62.1414 103.568 62.1414 103.807V122.345C62.1414 122.584 62.0151 122.8 61.8149 122.92L46.0224 132.189C45.9223 132.251 45.8091 132.277 45.6959 132.277ZM60.8355 104.992C53.0872 110.111 46.8669 121.062 46.3793 130.446L60.8355 121.964V104.992Z" fill="#3A3A3A"/>
<path d="M18.0543 148.496C17.9411 148.496 17.828 148.465 17.7278 148.407C17.5276 148.288 17.4014 148.071 17.4014 147.832C17.4014 119.516 37.0332 84.9577 61.1616 70.7953C61.3618 70.6759 61.6143 70.6759 61.8146 70.7953C62.0148 70.9148 62.141 71.1316 62.141 71.3705V89.9041C62.141 90.143 62.0148 90.3598 61.8146 90.4792C58.4323 92.4613 55.1197 95.1336 51.9725 98.4165C44.8206 105.867 39.1226 115.897 36.3411 125.936C35.1222 130.338 34.4998 134.585 34.4998 138.563C34.4998 138.802 34.3735 139.019 34.1733 139.138L18.3808 148.407C18.2807 148.465 18.1675 148.496 18.0543 148.496ZM60.8351 72.5341C37.8428 86.6301 19.234 119.392 18.716 146.677L33.1939 138.182C33.2331 134.196 33.8686 129.958 35.0831 125.578C37.9256 115.335 43.7411 105.097 51.0366 97.4918C54.1664 94.2266 57.4616 91.5499 60.8351 89.528V72.5341Z" fill="#3A3A3A"/>
<path d="M-9.58241 164.716C-9.69559 164.716 -9.80876 164.685 -9.90888 164.628C-10.1091 164.508 -10.2354 164.292 -10.2354 164.053C-10.2354 117.849 21.7937 61.4611 61.1618 38.3616C61.362 38.2422 61.6145 38.2422 61.8147 38.3616C62.015 38.4811 62.1412 38.6979 62.1412 38.9368V57.4704C62.1412 57.7093 62.015 57.9261 61.8147 58.0455C58.2235 60.1515 54.6193 62.6822 51.1065 65.558C29.5594 83.22 12.1998 113.783 7.91211 141.604C7.21563 146.125 6.86306 150.558 6.86306 154.784C6.86306 155.023 6.73682 155.239 6.53658 155.359L-9.25594 164.628C-9.35606 164.685 -9.46923 164.716 -9.58241 164.716ZM60.8353 40.0915C22.599 63.1379 -8.40275 117.721 -8.92511 162.898L5.55717 154.399C5.57894 150.222 5.93588 145.851 6.62365 141.4C8.7653 127.49 14.0324 112.859 21.8546 99.0901C29.6769 85.3127 39.5102 73.3626 50.2881 64.5272C53.7487 61.6912 57.292 59.1914 60.8353 57.0899V40.0915Z" fill="#3A3A3A"/>
<path d="M-9.58258 164.717C-9.6914 164.717 -9.80458 164.69 -9.90905 164.628L-24.6481 155.979C-24.8484 155.859 -24.9746 155.643 -24.9746 155.404C-24.9746 109.2 7.05442 52.8165 46.4269 29.7126C46.6271 29.5931 46.8796 29.5931 47.0798 29.7126L61.8146 38.3622C62.128 38.5436 62.2324 38.9506 62.054 39.2692C61.8755 39.5877 61.475 39.6939 61.1616 39.5125L46.7533 31.0576C8.00337 54.0066 -23.4946 109.448 -23.6687 155.028L-9.25611 163.482C-8.94269 163.664 -8.8382 164.071 -9.01667 164.389C-9.13856 164.597 -9.35622 164.717 -9.58258 164.717Z" fill="#3A3A3A"/>
<path d="M18.0546 148.497C17.9458 148.497 17.8326 148.471 17.7282 148.409L6.94155 142.082C6.62814 141.901 6.52367 141.494 6.70214 141.175C6.88062 140.856 7.28108 140.75 7.59449 140.932L18.3811 147.258C18.6945 147.44 18.799 147.847 18.6205 148.165C18.4986 148.378 18.281 148.497 18.0546 148.497Z" fill="#3A3A3A"/>
<path d="M61.4876 104.47C61.3788 104.47 61.2656 104.439 61.1611 104.381L51.1798 98.5279C50.8664 98.3465 50.762 97.9394 50.9404 97.6209C51.1189 97.3023 51.5194 97.1961 51.8328 97.3775L61.8141 103.231C62.1275 103.412 62.232 103.819 62.0535 104.138C61.9316 104.35 61.714 104.47 61.4876 104.47Z" fill="#3A3A3A"/>
<path d="M45.6956 132.276C45.5868 132.276 45.4736 132.25 45.3692 132.188L35.3878 126.33C35.0744 126.149 34.97 125.742 35.1484 125.423C35.3269 125.105 35.7274 124.998 36.0408 125.18L46.0221 131.038C46.3355 131.219 46.44 131.626 46.2615 131.945C46.1397 132.161 45.922 132.276 45.6956 132.276Z" fill="#3A3A3A"/>
<path d="M61.4877 72.0352C61.3789 72.0352 61.2657 72.0087 61.1612 71.9467L50.3703 65.6199C50.0569 65.4385 49.9524 65.0315 50.1308 64.7129C50.3093 64.3944 50.7098 64.2882 51.0232 64.4696L61.8142 70.7964C62.1276 70.9778 62.2321 71.3848 62.0536 71.7034C61.9317 71.9158 61.7141 72.0352 61.4877 72.0352Z" fill="#3A3A3A"/>
<path d="M85.7382 283.62C85.6947 283.62 85.6512 283.615 85.612 283.607C85.2594 283.536 85.0287 283.186 85.0983 282.828L103.054 190.602C103.124 190.244 103.468 190.01 103.82 190.08C104.173 190.151 104.404 190.501 104.334 190.859L86.3781 283.084C86.3172 283.403 86.0429 283.62 85.7382 283.62Z" fill="#3A3A3A"/>
<path d="M68.3346 273.41C68.291 273.41 68.2431 273.406 68.1996 273.397C67.847 273.322 67.6207 272.972 67.6947 272.609L86.6344 180.747C86.7084 180.388 87.0566 180.158 87.4092 180.233C87.7618 180.309 87.9881 180.658 87.9141 181.021L68.9744 272.884C68.9091 273.198 68.6393 273.41 68.3346 273.41Z" fill="#3A3A3A"/>
<path d="M100.228 209.196C100.12 209.196 100.006 209.169 99.9063 209.107L83.2475 199.427C82.9341 199.245 82.8253 198.838 83.0038 198.52C83.1823 198.201 83.5827 198.091 83.8961 198.272L100.555 207.953C100.868 208.134 100.977 208.541 100.799 208.86C100.672 209.076 100.455 209.196 100.228 209.196Z" fill="#3A3A3A"/>
<path d="M97.3686 223.874C97.2598 223.874 97.1466 223.848 97.0465 223.786L80.2397 214.017C79.9263 213.835 79.8175 213.428 79.996 213.11C80.1744 212.791 80.5749 212.681 80.8883 212.862L97.6951 222.631C98.0085 222.812 98.1173 223.219 97.9388 223.538C97.8169 223.755 97.595 223.874 97.3686 223.874Z" fill="#3A3A3A"/>
<path d="M94.5092 238.555C94.4004 238.555 94.2872 238.529 94.1871 238.467L77.228 228.609C76.9146 228.428 76.8058 228.021 76.9842 227.702C77.1627 227.384 77.5632 227.273 77.8766 227.454L94.8357 237.312C95.1491 237.493 95.258 237.9 95.0795 238.219C94.9576 238.436 94.7356 238.555 94.5092 238.555Z" fill="#3A3A3A"/>
<path d="M91.6495 253.238C91.5406 253.238 91.4275 253.212 91.3273 253.15L74.2202 243.208C73.9068 243.027 73.798 242.62 73.9764 242.301C74.1549 241.983 74.5554 241.872 74.8688 242.053L91.9759 251.995C92.2893 252.176 92.3981 252.583 92.2197 252.902C92.0978 253.119 91.8802 253.238 91.6495 253.238Z" fill="#3A3A3A"/>
<path d="M88.7939 267.921C88.6851 267.921 88.5719 267.894 88.4718 267.832L71.2124 257.802C70.899 257.621 70.7902 257.214 70.9686 256.895C71.1471 256.577 71.5475 256.466 71.861 256.647L89.1204 266.677C89.4338 266.859 89.5427 267.266 89.3642 267.584C89.238 267.801 89.0203 267.921 88.7939 267.921Z" fill="#3A3A3A"/>
<path d="M360.039 146.762V151.063L350.576 145.51V141.21L360.039 146.762Z" fill="#3A3A3A"/>
<path d="M360.039 147.423C359.926 147.423 359.813 147.392 359.713 147.334L350.249 141.782C350.049 141.662 349.923 141.445 349.923 141.206C349.923 140.968 350.049 140.751 350.249 140.631L372.105 127.805L364.083 123.098C363.831 122.947 363.704 122.651 363.774 122.363C363.844 122.076 364.096 121.872 364.388 121.863L393.452 120.925C393.64 120.925 393.822 120.996 393.949 121.133C394.075 121.27 394.14 121.461 394.123 121.651L392.525 138.707C392.503 138.932 392.373 139.131 392.173 139.233C391.977 139.335 391.737 139.331 391.546 139.22L382.87 134.128L360.361 147.339C360.265 147.396 360.152 147.423 360.039 147.423ZM351.882 141.211L360.039 145.998L382.548 132.787C382.748 132.667 383.001 132.667 383.201 132.787L391.324 137.552L392.756 122.275L366.721 123.115L373.738 127.234C373.938 127.354 374.064 127.571 374.064 127.81C374.064 128.048 373.938 128.265 373.738 128.385L351.882 141.211Z" fill="#3A3A3A"/>
<path d="M360.039 151.722C359.926 151.722 359.813 151.692 359.713 151.634L350.249 146.081C350.049 145.962 349.923 145.745 349.923 145.506V141.206C349.923 140.839 350.214 140.542 350.576 140.542C350.937 140.542 351.229 140.839 351.229 141.206V145.121L360.039 150.289L382.548 137.078C382.748 136.958 383.001 136.958 383.201 137.078L391.324 141.843L392.826 125.849V121.579C392.826 121.212 393.117 120.916 393.479 120.916C393.84 120.916 394.131 121.212 394.131 121.579V125.88C394.131 125.902 394.131 125.924 394.127 125.942L392.53 142.998C392.508 143.223 392.377 143.422 392.177 143.524C391.981 143.626 391.742 143.622 391.55 143.511L382.875 138.419L360.366 151.63C360.265 151.692 360.152 151.722 360.039 151.722Z" fill="#3A3A3A"/>
</g>
<defs>
<clipPath id="clip0_3465_1536">
<rect width="106.279" height="99.7464" fill="white" transform="translate(184.547 -26)"/>
</clipPath>
</defs>
</svg>
