<svg width="270" height="317" viewBox="0 0 270 317" fill="none" xmlns="http://www.w3.org/2000/svg">
    <path fill-rule="evenodd" clip-rule="evenodd"
        d="M-164.738 112.616C-164.391 113.094 -163.878 113.412 -163.307 113.564L-2.65943 156.61L-92.026 245.752C-92.6966 246.421 -93.0107 247.36 -92.8077 248.286C-91.7197 253.245 -86.9926 270.012 -70.1999 287.279C-53.2922 304.665 -36.5211 308.463 -31.7128 309.224C-30.8487 309.361 -29.991 309.046 -29.3715 308.428L60.0146 219.267L84.0713 308.598C84.2663 309.322 84.7199 309.943 85.3789 310.301C89.8332 312.721 108.75 321.564 135.052 313.667C161.529 305.718 168.444 291.138 169.749 287.656C169.935 287.161 169.934 286.626 169.796 286.116L145.62 196.341L241.953 222.154C242.896 222.406 243.894 222.189 244.594 221.508C248.194 218.003 259.476 205.608 265.609 182.718C271.743 159.827 268.17 143.452 266.804 138.617C266.539 137.677 265.783 136.99 264.84 136.737L168.603 110.951L258.624 21.1563C258.896 20.8854 259.113 20.5669 259.237 20.204C260.399 16.8109 265.427 -2.06041 242.663 -23.6932C220.308 -44.9369 201.076 -42.7656 197.07 -42.0185C196.556 -41.9228 196.11 -41.6598 195.74 -41.2913L105.773 48.3744L61.2605 -116.915C61.0456 -117.713 60.5231 -118.38 59.7738 -118.728C55.0231 -120.936 36.121 -128.576 13.7058 -122.234C-8.60295 -115.922 -20.9329 -100.601 -23.9638 -96.4102C-24.4573 -95.7279 -24.5829 -94.8721 -24.3639 -94.059L20.1316 71.168L-140.42 28.1483C-140.991 27.9954 -141.594 28.0142 -142.134 28.254C-145.888 29.9208 -161.297 38.3123 -168.801 66.318C-176.305 94.3237 -167.156 109.295 -164.738 112.616ZM95.4891 176.015C79.59 180.273 62.5364 175.705 50.8963 164.068C39.3104 152.485 34.7391 135.569 38.9614 119.739C43.1998 103.85 55.6628 91.4294 71.5544 87.1998C87.4022 82.9818 104.391 87.5376 116.01 99.1103C127.664 110.717 132.26 127.717 127.985 143.599C123.728 159.415 111.311 171.778 95.4891 176.015Z"
        fill="#F5F5F5" />
</svg>