<svg width="192" height="97" viewBox="0 0 192 97" fill="none" xmlns="http://www.w3.org/2000/svg">
<path d="M144.66 17.6128L138.135 28.8747C137.203 30.4801 137.663 32.5335 139.189 33.5919C158.11 46.6971 170.791 68.1744 171.869 92.6644C171.952 94.5671 173.526 96.0655 175.429 96.0655H188.419C190.449 96.0655 192.062 94.3768 191.987 92.3512C190.786 60.7497 174.315 33.0607 149.746 16.4434C148.033 15.2859 145.698 15.825 144.66 17.6128Z" fill="#4281FF"/>
<path d="M3.78885 96.0689H16.347C18.3687 96.0689 20.0296 94.4793 20.1247 92.4616C21.2664 68.0628 33.9197 46.6807 52.7767 33.6112C54.394 32.4894 54.8896 30.3171 53.9065 28.6085L47.5045 17.5052C46.4739 15.7135 44.1351 15.1704 42.4226 16.3239C17.8058 32.8858 1.27564 60.5391 0.00317518 92.1247C-0.0840341 94.2772 1.63637 96.0689 3.78885 96.0689Z" fill="#D2E1FF"/>
<path d="M95.989 0C80.8661 0 66.5598 3.4963 53.8312 9.72384C51.972 10.6356 51.2664 12.9228 52.301 14.7186L58.8021 26.0003C59.7257 27.6057 61.7315 28.2439 63.4044 27.4472C73.2788 22.7497 84.3267 20.1136 95.989 20.1136C107.715 20.1136 118.818 22.7735 128.732 27.5185C130.401 28.3193 132.407 27.685 133.338 26.0796L139.867 14.8137C140.906 13.0219 140.204 10.7307 138.345 9.81501C125.569 3.53198 111.191 0 95.989 0Z" fill="#6E9EFF"/>
</svg>
