<svg width="241" height="196" viewBox="0 0 241 196" fill="none" xmlns="http://www.w3.org/2000/svg">
<g clip-path="url(#clip0_3465_2210)">
<path d="M144.394 45.4895H148.195L149.243 40.4799L145.218 43.3749L144.394 45.4895Z" fill="#DAE0E7"/>
<path d="M125.072 34.4378L137.829 34.1638L125.59 26.9919L125.072 34.4378Z" fill="#DAE0E7"/>
<path d="M152.787 50.2847H169.054L173.152 47.9417L156.253 38.2799L152.787 50.2847Z" fill="#DAE0E7"/>
<path d="M140.371 30.0397L138.743 23.8646L136.103 13.8752L135.008 9.74123L134.066 6.16719L133.034 5.57549L129.561 3.58992L119.272 30.8459L122.881 32.9129L125.072 34.1658L126.829 28.7412L130.526 30.8558L136.785 34.4378L137.623 37.9483L138.549 41.8738L140.377 42.9102L144.389 45.2155L140.377 30.0397H140.371ZM131.977 26.4419L131.793 26.3386L128.304 24.3431L131.793 13.6032L133.541 20.9359L134.982 26.9522L135.321 28.348L131.977 26.4419Z" fill="#4281FF"/>
<path d="M152.763 43.5476V16.8496L147.292 13.7223V32.1862V43.4523V46.8675L149.942 48.3845L152.787 50.0106V43.5635L152.763 43.5476Z" fill="#4281FF"/>
<path d="M133.594 21.1424L128.303 24.3451L131.795 13.6051L133.541 20.9319L133.594 21.1424Z" fill="#5E646B"/>
<path d="M135.322 28.348L131.976 26.4379L131.795 26.3406L128.303 24.3451L133.594 21.1424L134.981 26.9502L135.322 28.348Z" fill="white"/>
<path d="M134.064 6.1672L139.534 2.84732L135.039 0.27005L129.562 3.58993L133.034 5.5755L134.064 6.1672Z" fill="white"/>
<path d="M152.788 43.5635V16.8675L152.764 16.8496V43.5476L152.788 43.5635Z" fill="#DAE0E7"/>
<path d="M147.292 13.7223L152.763 16.8496L152.787 16.8675L158.264 13.5476L152.763 10.4044L147.292 13.7223Z" fill="white"/>
<path d="M152.787 43.5635V50.0106L158.264 46.6928V13.5476L152.787 16.8675V43.5635Z" fill="white"/>
<path d="M140.478 6.42135L139.534 2.84732L134.064 6.1672L135.007 9.74123L136.103 13.8752L138.746 23.8646L140.372 30.0397H140.382L144.393 45.2155L147.292 43.4523V32.1862L140.478 6.42135Z" fill="white"/>
<path d="M125.072 34.1638L130.527 30.8538L126.829 28.7392L125.072 34.1638Z" fill="#5E646B"/>
<path d="M140.379 30.0397H140.371L138.743 23.8646L136.103 13.8752L135.008 9.74123L134.066 6.16719L133.034 5.57549L129.561 3.58992L119.272 30.8459L122.881 32.9129L125.072 34.1658L126.829 28.7412L130.526 30.8558L136.785 34.4378L137.623 37.9483L138.549 41.8738L140.377 42.9102L144.389 45.2155L140.379 30.0397ZM131.977 26.4419L131.793 26.3386L128.304 24.3431L131.793 13.6032L133.541 20.9359L134.982 26.9522L135.321 28.348L131.977 26.4419Z" stroke="#34393A" stroke-width="0.6" stroke-miterlimit="10" stroke-linecap="round" stroke-linejoin="round"/>
<path d="M152.787 50.2807C152.739 50.2807 152.693 50.2688 152.651 50.2449L147.156 47.1018C147.072 47.0541 147.02 46.9648 147.02 46.8675V13.7223C147.02 13.625 147.072 13.5376 147.156 13.488C147.24 13.4403 147.344 13.4403 147.429 13.488L152.9 16.6153C152.984 16.6629 153.036 16.7523 153.036 16.8496V43.4523C153.052 43.486 153.06 43.5238 153.06 43.5635V50.0106C153.06 50.1079 153.008 50.1953 152.924 50.2449C152.882 50.2688 152.834 50.2807 152.787 50.2807ZM147.565 46.7106L152.515 49.542V43.6568C152.499 43.623 152.491 43.5853 152.491 43.5456V17.0064L147.565 14.1909V46.7106Z" fill="#34393A"/>
<path d="M152.787 43.8335C152.733 43.8335 152.679 43.8176 152.633 43.7859L152.609 43.77C152.534 43.7203 152.49 43.637 152.49 43.5476V16.8496C152.49 16.7503 152.546 16.657 152.637 16.6113C152.727 16.5656 152.835 16.5716 152.917 16.6272L152.941 16.6431C153.016 16.6927 153.06 16.7761 153.06 16.8655V43.5635C153.06 43.6628 153.003 43.7561 152.913 43.8018C152.873 43.8236 152.831 43.8335 152.787 43.8335Z" fill="#34393A"/>
<path d="M135.321 28.6181C135.275 28.6181 135.227 28.6062 135.185 28.5823L128.168 24.5774C128.058 24.5139 128.006 24.3828 128.046 24.2617L131.534 13.5218C131.572 13.4066 131.68 13.3272 131.805 13.3351C131.927 13.3391 132.031 13.4245 132.059 13.5436L133.808 20.8763L135.588 28.2885C135.614 28.3937 135.574 28.5029 135.486 28.5684C135.436 28.6002 135.379 28.6181 135.321 28.6181ZM128.631 24.218L134.908 27.802L134.718 27.0157L133.276 20.9994L131.753 14.6098L128.631 24.218Z" fill="#34393A"/>
<path d="M134.065 6.43724C134.017 6.43724 133.97 6.42532 133.928 6.4015L129.425 3.82224C129.341 3.77458 129.291 3.68722 129.289 3.59191C129.287 3.4966 129.337 3.40725 129.419 3.35761L134.897 0.0397178C134.983 -0.0119071 135.089 -0.0138926 135.175 0.0357467L139.67 2.61302C139.752 2.66067 139.805 2.74804 139.807 2.84335C139.809 2.93866 139.758 3.02801 139.676 3.07765L134.207 6.39752C134.163 6.42334 134.115 6.43724 134.065 6.43724ZM130.095 3.58198L134.061 5.85149L139.003 2.85328L135.043 0.583765L130.095 3.58198Z" fill="#34393A"/>
<path d="M152.787 43.8335C152.733 43.8335 152.679 43.8176 152.633 43.7859L152.609 43.77C152.534 43.7203 152.49 43.637 152.49 43.5476V16.8496C152.49 16.7503 152.546 16.657 152.637 16.6113C152.727 16.5656 152.835 16.5716 152.917 16.6272L152.941 16.6431C153.016 16.6927 153.06 16.7761 153.06 16.8655V43.5635C153.06 43.6628 153.003 43.7561 152.913 43.8018C152.873 43.8236 152.831 43.8335 152.787 43.8335Z" fill="#34393A"/>
<path d="M152.788 17.1355C152.733 17.1355 152.679 17.1196 152.633 17.0879L152.617 17.0779L147.156 13.9546C147.072 13.907 147.022 13.8196 147.02 13.7243C147.018 13.629 147.068 13.5396 147.15 13.49L152.621 10.1701C152.707 10.1185 152.814 10.1165 152.9 10.1661L158.401 13.3093C158.483 13.357 158.535 13.4443 158.537 13.5396C158.539 13.6349 158.489 13.7243 158.407 13.7739L152.93 17.0938C152.886 17.1236 152.836 17.1355 152.788 17.1355ZM147.826 13.7164L152.786 16.5518L157.731 13.5555L152.767 10.7181L147.826 13.7164Z" fill="#34393A"/>
<path d="M152.787 50.2807C152.741 50.2807 152.695 50.2688 152.655 50.2469C152.569 50.1993 152.517 50.1099 152.517 50.0106V16.8674C152.517 16.7741 152.567 16.6868 152.647 16.6371L158.124 13.3172C158.208 13.2656 158.315 13.2636 158.401 13.3113C158.487 13.3589 158.539 13.4483 158.539 13.5476V46.6927C158.539 46.7861 158.489 46.8734 158.409 46.9231L152.932 50.243C152.885 50.2668 152.837 50.2807 152.787 50.2807ZM153.06 17.0184V49.5301L157.994 46.5418V14.0281L153.06 17.0184Z" fill="#34393A"/>
<path d="M144.393 45.4855C144.359 45.4855 144.325 45.4796 144.291 45.4657C144.211 45.4339 144.151 45.3664 144.129 45.283L140.131 30.1648C140.121 30.147 140.113 30.1271 140.107 30.1073L138.479 23.9321L133.802 6.23471C133.772 6.11955 133.82 5.99843 133.924 5.93688L139.393 2.617C139.467 2.57332 139.558 2.56537 139.638 2.59714C139.718 2.62891 139.778 2.69642 139.8 2.77982L140.743 6.35385L147.559 32.1186C147.565 32.1405 147.567 32.1643 147.567 32.1862V43.4523C147.567 43.5456 147.517 43.633 147.437 43.6826L144.536 45.4458C144.492 45.4716 144.443 45.4855 144.393 45.4855ZM140.62 29.9127C140.63 29.9305 140.638 29.9504 140.644 29.9703L144.564 44.7946L147.022 43.3014V32.2199L140.213 6.49085L139.363 3.26827L134.379 6.2923L140.62 29.9127Z" fill="#34393A"/>
<path d="M125.072 34.4338C125.012 34.4338 124.954 34.414 124.904 34.3762C124.813 34.3067 124.777 34.1896 124.811 34.0824L126.568 28.6578C126.594 28.5803 126.652 28.5168 126.73 28.489C126.806 28.4592 126.893 28.4652 126.965 28.5069L130.662 30.6215C130.746 30.6692 130.796 30.7565 130.798 30.8518C130.8 30.9472 130.75 31.0365 130.668 31.0861L125.214 34.3941C125.172 34.4219 125.122 34.4338 125.072 34.4338ZM126.985 29.1403L125.555 33.5542L129.992 30.8598L126.985 29.1403Z" fill="#34393A"/>
<path d="M128.305 24.6132C128.212 24.6132 128.122 24.5675 128.072 24.4841C127.994 24.357 128.034 24.1903 128.162 24.1128L133.451 20.9121C133.579 20.8346 133.748 20.8743 133.826 21.0014C133.904 21.1285 133.864 21.2953 133.736 21.3727L128.447 24.5735C128.401 24.5993 128.353 24.6132 128.305 24.6132Z" fill="#34393A"/>
</g>
<path d="M109.342 168.727C110.294 167.945 110.433 166.54 109.651 165.587C108.87 164.635 107.465 164.497 106.512 165.278C105.56 166.059 105.421 167.465 106.203 168.417C106.984 169.369 108.39 169.508 109.342 168.727Z" fill="white"/>
<path d="M107.929 169.572C107.041 169.572 106.178 169.113 105.703 168.29C105.36 167.696 105.27 167.005 105.447 166.343C105.623 165.68 106.049 165.127 106.642 164.786C107.866 164.079 109.439 164.5 110.146 165.725C110.853 166.949 110.431 168.522 109.207 169.229C108.805 169.461 108.364 169.572 107.929 169.572ZM107.922 165.111C107.601 165.111 107.275 165.194 106.977 165.366C106.537 165.618 106.225 166.028 106.093 166.516C105.962 167.005 106.029 167.516 106.283 167.955C106.805 168.861 107.967 169.173 108.872 168.649C109.778 168.127 110.09 166.965 109.566 166.059C109.216 165.453 108.578 165.111 107.922 165.111Z" fill="#3A3A3A"/>
<path d="M195.149 93.7791C196.131 93.0354 196.324 91.6365 195.58 90.6545C194.837 89.6725 193.438 89.4792 192.456 90.2229C191.474 90.9666 191.281 92.3655 192.024 93.3475C192.768 94.3295 194.167 94.5227 195.149 93.7791Z" fill="white"/>
<path d="M193.814 94.5733C192.926 94.5733 192.063 94.1139 191.588 93.2908C191.244 92.6975 191.155 92.0061 191.331 91.3437C191.508 90.6812 191.934 90.1281 192.527 89.7868C193.12 89.4456 193.811 89.3519 194.474 89.5304C195.136 89.7066 195.689 90.1326 196.031 90.7259C196.374 91.3191 196.463 92.0106 196.287 92.673C196.111 93.3354 195.685 93.8886 195.092 94.2298C194.688 94.464 194.246 94.5733 193.814 94.5733ZM193.805 90.1125C193.477 90.1125 193.151 90.1995 192.859 90.3668C192.42 90.621 192.107 91.0292 191.976 91.5176C191.844 92.0061 191.911 92.5169 192.165 92.9563C192.687 93.8618 193.849 94.1719 194.755 93.6499C195.194 93.3957 195.507 92.9875 195.638 92.499C195.77 92.0106 195.703 91.4998 195.449 91.0604C195.194 90.621 194.786 90.3088 194.298 90.1772C194.135 90.1348 193.97 90.1125 193.805 90.1125Z" fill="#3A3A3A"/>
<path d="M184.841 114.923C184.725 114.923 184.614 114.863 184.551 114.756C184.46 114.596 184.513 114.39 184.674 114.299L184.868 114.187C185.029 114.096 185.234 114.15 185.325 114.31C185.417 114.471 185.363 114.676 185.203 114.767L185.009 114.879C184.955 114.908 184.897 114.923 184.841 114.923Z" fill="#3A3A3A"/>
<path d="M187.395 113.456C187.279 113.456 187.168 113.396 187.105 113.289C187.014 113.128 187.067 112.923 187.228 112.831L187.62 112.606C187.781 112.515 187.984 112.568 188.078 112.729C188.169 112.889 188.115 113.094 187.955 113.186L187.562 113.411C187.509 113.44 187.451 113.456 187.395 113.456ZM190.147 111.872C190.031 111.872 189.92 111.812 189.857 111.705C189.766 111.544 189.819 111.339 189.98 111.248L190.373 111.022C190.533 110.931 190.736 110.984 190.83 111.145C190.921 111.306 190.868 111.511 190.707 111.602L190.315 111.828C190.261 111.859 190.205 111.872 190.147 111.872ZM192.902 110.291C192.786 110.291 192.674 110.231 192.612 110.124C192.52 109.963 192.574 109.758 192.735 109.666L193.127 109.441C193.288 109.35 193.491 109.403 193.584 109.564C193.676 109.724 193.622 109.93 193.462 110.021L193.069 110.246C193.016 110.277 192.958 110.291 192.902 110.291ZM195.654 108.709C195.538 108.709 195.427 108.649 195.364 108.542C195.273 108.382 195.326 108.176 195.487 108.085L195.879 107.86C196.04 107.768 196.243 107.822 196.337 107.982C196.428 108.143 196.375 108.348 196.214 108.44L195.821 108.665C195.768 108.694 195.712 108.709 195.654 108.709ZM198.409 107.126C198.293 107.126 198.181 107.066 198.119 106.959C198.027 106.798 198.081 106.595 198.241 106.501L198.634 106.276C198.794 106.185 198.997 106.238 199.091 106.399C199.183 106.559 199.129 106.762 198.968 106.856L198.576 107.081C198.522 107.112 198.464 107.126 198.409 107.126ZM201.161 105.545C201.045 105.545 200.933 105.484 200.871 105.377C200.779 105.217 200.835 105.011 200.994 104.92L201.386 104.695C201.547 104.603 201.75 104.657 201.843 104.817C201.935 104.978 201.881 105.183 201.721 105.275L201.328 105.5C201.275 105.529 201.219 105.545 201.161 105.545ZM203.915 103.961C203.799 103.961 203.688 103.901 203.625 103.794C203.534 103.633 203.588 103.428 203.748 103.336L204.141 103.111C204.301 103.02 204.504 103.073 204.598 103.234C204.689 103.394 204.634 103.6 204.475 103.691L204.083 103.916C204.029 103.948 203.971 103.961 203.915 103.961ZM206.668 102.38C206.552 102.38 206.44 102.319 206.378 102.212C206.286 102.052 206.34 101.846 206.5 101.755L206.893 101.53C207.054 101.438 207.256 101.494 207.35 101.652C207.442 101.813 207.388 102.018 207.227 102.11L206.835 102.335C206.781 102.364 206.726 102.38 206.668 102.38ZM209.422 100.796C209.306 100.796 209.195 100.736 209.132 100.629C209.041 100.468 209.094 100.263 209.255 100.171L209.647 99.9461C209.808 99.8547 210.011 99.9082 210.105 100.069C210.196 100.229 210.143 100.435 209.982 100.526L209.589 100.751C209.536 100.783 209.478 100.796 209.422 100.796ZM212.174 99.2146C212.058 99.2146 211.947 99.1543 211.884 99.0473C211.793 98.8867 211.847 98.6815 212.007 98.5901L212.4 98.3648C212.56 98.2733 212.763 98.3269 212.857 98.4874C212.948 98.648 212.895 98.8532 212.734 98.9447L212.342 99.17C212.29 99.199 212.232 99.2146 212.174 99.2146ZM214.929 97.6332C214.813 97.6332 214.701 97.573 214.639 97.4659C214.548 97.3053 214.601 97.1001 214.762 97.0087L215.154 96.7834C215.315 96.692 215.518 96.7455 215.611 96.9061C215.703 97.0667 215.649 97.2719 215.489 97.3633L215.096 97.5886C215.043 97.6176 214.985 97.6332 214.929 97.6332ZM217.681 96.0496C217.565 96.0496 217.454 95.9894 217.391 95.8823C217.3 95.7217 217.353 95.5165 217.514 95.4251L217.906 95.1998C218.067 95.1084 218.272 95.1619 218.364 95.3225C218.455 95.4831 218.402 95.6883 218.241 95.7797L217.849 96.005C217.795 96.0362 217.739 96.0496 217.681 96.0496ZM220.436 94.4682C220.32 94.4682 220.208 94.408 220.146 94.3009C220.054 94.1404 220.108 93.9352 220.268 93.8437L220.661 93.6184C220.822 93.527 221.027 93.5805 221.118 93.7411C221.21 93.9017 221.156 94.1069 220.996 94.1984L220.603 94.4236C220.549 94.4526 220.491 94.4682 220.436 94.4682Z" fill="#3A3A3A"/>
<path d="M223.188 92.8848C223.072 92.8848 222.961 92.8246 222.898 92.7175C222.807 92.5569 222.86 92.3517 223.021 92.2603L223.215 92.1488C223.317 92.0908 223.44 92.0885 223.543 92.1443L223.739 92.2513C223.902 92.3406 223.96 92.5435 223.873 92.7064C223.784 92.8692 223.581 92.9272 223.418 92.8402L223.386 92.8223L223.355 92.8402C223.304 92.8714 223.246 92.8848 223.188 92.8848Z" fill="#3A3A3A"/>
<path d="M237.683 100.588C237.629 100.588 237.574 100.574 237.522 100.548L237.119 100.327C236.956 100.238 236.898 100.035 236.985 99.8719C237.074 99.7091 237.277 99.6511 237.44 99.7381L237.844 99.9589C238.006 100.048 238.064 100.251 237.977 100.414C237.917 100.525 237.801 100.588 237.683 100.588ZM234.864 99.0466C234.81 99.0466 234.755 99.0332 234.703 99.0065L234.3 98.7857C234.137 98.6965 234.076 98.4935 234.166 98.3307C234.255 98.1678 234.458 98.1098 234.621 98.1968L235.024 98.4176C235.187 98.5069 235.247 98.7098 235.158 98.8727C235.096 98.9842 234.982 99.0466 234.864 99.0466ZM232.042 97.5054C231.989 97.5054 231.933 97.492 231.882 97.4653L231.478 97.2444C231.315 97.1552 231.255 96.9523 231.344 96.7894C231.433 96.6266 231.636 96.5686 231.799 96.6556L232.203 96.8764C232.366 96.9656 232.426 97.1686 232.337 97.3314C232.274 97.443 232.161 97.5054 232.042 97.5054ZM229.221 95.9642C229.167 95.9642 229.112 95.9508 229.06 95.924L228.657 95.7032C228.494 95.614 228.434 95.411 228.523 95.2482C228.612 95.0854 228.815 95.0274 228.978 95.1144L229.382 95.3352C229.544 95.4244 229.605 95.6274 229.515 95.7902C229.453 95.8995 229.339 95.9642 229.221 95.9642ZM226.4 94.423C226.346 94.423 226.29 94.4096 226.239 94.3828L225.835 94.162C225.672 94.0728 225.614 93.8698 225.701 93.707C225.791 93.5442 225.994 93.4862 226.156 93.5732L226.56 93.794C226.723 93.8832 226.781 94.0862 226.694 94.249C226.631 94.3583 226.518 94.423 226.4 94.423Z" fill="#3A3A3A"/>
<path d="M240.298 102.019C240.244 102.019 240.188 102.005 240.137 101.979L239.941 101.872C239.778 101.782 239.718 101.579 239.807 101.417C239.896 101.254 240.099 101.196 240.262 101.283L240.458 101.39C240.621 101.479 240.681 101.682 240.592 101.845C240.532 101.954 240.416 102.019 240.298 102.019Z" fill="#3A3A3A"/>
<path d="M225.506 114.958C226.813 115.712 227.621 117.329 227.621 119.631C227.621 124.235 220.401 140.918 220.401 140.918C220.29 140.789 213.184 132.532 213.184 127.966C213.184 123.363 216.415 117.766 220.401 115.465C222.355 114.336 224.128 114.209 225.428 114.914L225.506 114.958ZM220.401 126.951C221.909 126.081 223.131 123.963 223.131 122.221C223.131 120.479 221.909 119.774 220.401 120.644C218.893 121.516 217.671 123.632 217.671 125.374C217.671 127.116 218.893 127.823 220.401 126.951Z" fill="white"/>
<path d="M221.186 112.463L225.43 114.915C224.13 114.208 222.357 114.337 220.403 115.466C216.417 117.767 213.185 123.366 213.185 127.967C213.185 132.535 220.291 140.79 220.403 140.919L216.083 138.426C216.083 138.426 208.865 130.075 208.865 125.474C208.865 120.87 212.097 115.272 216.083 112.97C218.074 111.819 219.879 111.71 221.186 112.463Z" fill="#D7DCE0"/>
<path d="M223.133 122.221C223.133 123.963 221.911 126.082 220.403 126.951C218.895 127.824 217.673 127.116 217.673 125.375C217.673 123.633 218.895 121.514 220.403 120.644C221.911 119.774 223.133 120.481 223.133 122.221Z" fill="#3A3A3A"/>
<path d="M220.146 141.138C219.397 140.265 212.849 132.51 212.849 127.967C212.849 123.265 216.163 117.526 220.233 115.175C222.225 114.025 224.128 113.828 225.589 114.622C225.751 114.712 225.812 114.915 225.722 115.075C225.633 115.238 225.43 115.298 225.27 115.209C224.021 114.531 222.352 114.725 220.57 115.755C216.683 117.999 213.52 123.479 213.52 127.967C213.52 132.343 220.365 140.361 220.655 140.7L220.146 141.138Z" fill="#3A3A3A"/>
<path d="M220.401 141.254C220.356 141.254 220.311 141.245 220.269 141.227C220.1 141.153 220.021 140.957 220.095 140.788C220.166 140.62 227.286 124.115 227.286 119.632C227.286 117.529 226.594 115.972 225.339 115.249C225.178 115.158 225.125 114.953 225.216 114.792C225.307 114.631 225.513 114.578 225.673 114.669C227.145 115.519 227.955 117.281 227.955 119.632C227.955 124.251 221.005 140.368 220.708 141.053C220.653 141.178 220.53 141.254 220.401 141.254Z" fill="#3A3A3A"/>
<path d="M219.18 127.661C218.864 127.661 218.567 127.585 218.302 127.434C217.679 127.075 217.336 126.343 217.336 125.377C217.336 123.499 218.609 121.296 220.233 120.357C221.072 119.873 221.875 119.806 222.499 120.165C223.124 120.524 223.465 121.255 223.465 122.223C223.465 124.101 222.191 126.307 220.568 127.244C220.086 127.521 219.613 127.661 219.18 127.661ZM221.618 120.606C221.304 120.606 220.947 120.718 220.568 120.934C219.154 121.751 218.005 123.742 218.005 125.375C218.005 126.093 218.23 126.617 218.636 126.854C219.044 127.09 219.611 127.021 220.233 126.662C221.647 125.846 222.796 123.854 222.796 122.221C222.796 121.503 222.571 120.979 222.165 120.742C222.006 120.651 221.821 120.606 221.618 120.606Z" fill="#3A3A3A"/>
<path d="M220.4 141.253C220.345 141.253 220.287 141.239 220.233 141.208L215.913 138.715C215.879 138.697 215.85 138.672 215.828 138.643C215.529 138.298 208.53 130.145 208.53 125.473C208.53 120.769 211.842 115.03 215.915 112.679C217.951 111.504 219.883 111.323 221.355 112.173L225.675 114.668C225.836 114.76 225.889 114.965 225.798 115.126C225.706 115.286 225.501 115.34 225.341 115.248L221.02 112.753C219.765 112.028 218.07 112.208 216.25 113.259C212.362 115.503 209.199 120.983 209.199 125.473C209.199 129.733 215.748 137.517 216.299 138.164L220.57 140.628C220.73 140.72 220.784 140.925 220.692 141.086C220.628 141.193 220.516 141.253 220.4 141.253Z" fill="#3A3A3A"/>
<path d="M65.9527 94.9705V97.0537L53.7214 104.117L51.917 103.074L65.9527 94.9705Z" fill="#3A3A3A"/>
<path d="M65.9523 94.9702L51.9166 103.073L56.1543 105.522L42.4688 105.957L43.2226 98.0549L47.4603 100.502L61.4983 92.3986L65.9523 94.9702Z" fill="white"/>
<path d="M56.1543 105.629V107.605L42.4688 108.04V105.957L56.1543 105.522V105.629Z" fill="#3A3A3A"/>
<path d="M42.4685 106.292C42.3771 106.292 42.2879 106.254 42.2254 106.187C42.1607 106.118 42.1273 106.022 42.1362 105.926L42.8901 98.0233C42.9012 97.9096 42.9681 97.8092 43.0707 97.7579C43.1711 97.7066 43.2938 97.7088 43.3919 97.7646L47.4623 100.115L61.333 92.1083C61.4356 92.048 61.5649 92.048 61.6675 92.1083L66.1216 94.6799C66.2242 94.7402 66.2889 94.8494 66.2889 94.9699C66.2889 95.0903 66.2242 95.1996 66.1216 95.2598L52.5877 103.073L56.3236 105.232C56.4529 105.308 56.5176 105.457 56.4797 105.602C56.444 105.747 56.3146 105.85 56.1652 105.854C56.163 105.857 42.4708 106.292 42.4685 106.292ZM43.5056 98.6055L42.8365 105.611L54.9697 105.225L51.7469 103.363C51.6443 103.303 51.5796 103.193 51.5796 103.073C51.5796 102.953 51.6443 102.843 51.7469 102.783L65.2807 94.9699L61.4958 92.7841L47.6251 100.791C47.5225 100.852 47.3932 100.852 47.2906 100.791L43.5056 98.6055Z" fill="#3A3A3A"/>
<path d="M53.7202 104.452C53.6042 104.452 53.4927 104.392 53.4303 104.285C53.3388 104.124 53.3924 103.921 53.5529 103.827L65.617 96.8595V94.9703C65.617 94.7852 65.7664 94.6357 65.9516 94.6357C66.1367 94.6357 66.2861 94.7852 66.2861 94.9703V97.0535C66.2861 97.174 66.2214 97.2832 66.1188 97.3435L53.8875 104.407C53.834 104.438 53.776 104.452 53.7202 104.452Z" fill="#3A3A3A"/>
<path d="M42.4683 108.374C42.3814 108.374 42.2988 108.341 42.2364 108.281C42.1717 108.218 42.1338 108.131 42.1338 108.04V105.957C42.1338 105.771 42.2832 105.622 42.4683 105.622C42.6535 105.622 42.8029 105.771 42.8029 105.957V107.694L55.8193 107.279V105.627C55.8193 105.441 55.9688 105.292 56.1539 105.292C56.339 105.292 56.4884 105.441 56.4884 105.627V107.603C56.4884 107.783 56.3457 107.931 56.165 107.937C56.1628 107.939 42.4706 108.374 42.4683 108.374Z" fill="#3A3A3A"/>
<path d="M62.9699 169.126V176.758L56.3613 180.572V172.942L62.9699 169.126Z" fill="#3A3A3A"/>
<path d="M62.9701 169.125L56.3615 172.942L49.7529 169.125L56.3615 165.311L62.9701 169.125Z" fill="white"/>
<path d="M56.3615 172.942V180.572L49.7529 176.758V169.126L56.3615 172.942Z" fill="#D7DCE0"/>
<path d="M56.3609 180.905C56.3029 180.905 56.2449 180.89 56.1936 180.861C56.091 180.801 56.0264 180.691 56.0264 180.571V172.941C56.0264 172.82 56.091 172.711 56.1936 172.651L62.8022 168.834C62.9048 168.774 63.0342 168.774 63.1368 168.834C63.2394 168.895 63.3041 169.004 63.3041 169.124V176.755C63.3041 176.875 63.2394 176.984 63.1368 177.044L56.5282 180.861C56.4769 180.892 56.4189 180.905 56.3609 180.905ZM56.6955 173.135V179.993L62.635 176.563V169.704L56.6955 173.135Z" fill="#3A3A3A"/>
<path d="M56.3611 180.905C56.3054 180.905 56.2474 180.892 56.1938 180.861L49.5852 177.044C49.4826 176.984 49.418 176.875 49.418 176.755V169.124C49.418 169.004 49.4826 168.895 49.5852 168.834C49.6878 168.774 49.8172 168.774 49.9198 168.834L56.5284 172.651C56.689 172.742 56.7425 172.947 56.6511 173.108C56.5596 173.268 56.3544 173.322 56.1938 173.23L50.0871 169.704V176.563L56.5284 180.283C56.689 180.375 56.7425 180.58 56.6511 180.74C56.5886 180.847 56.4771 180.905 56.3611 180.905Z" fill="#3A3A3A"/>
<path d="M62.9696 169.458C62.9139 169.458 62.8559 169.444 62.8023 169.413L56.361 165.695L49.9197 169.413C49.7591 169.507 49.5562 169.451 49.4625 169.291C49.3711 169.13 49.4246 168.927 49.5852 168.833L56.1938 165.019C56.2963 164.959 56.4257 164.959 56.5283 165.019L63.1369 168.833C63.2975 168.925 63.351 169.13 63.2596 169.291C63.1971 169.398 63.0856 169.458 62.9696 169.458Z" fill="#3A3A3A"/>
<path d="M196.747 63.7503C196.747 69.4267 194.381 74.5567 190.582 78.1967C188.122 80.5543 186.101 83.3468 184.85 86.4983L184.734 86.4537C184.328 87.1363 183.652 87.7786 182.711 88.3228C179.401 90.2343 174.035 90.2343 170.727 88.3228C169.786 87.7808 169.113 87.1429 168.707 86.4604L168.631 86.4894C167.377 83.3423 165.359 80.5521 162.901 78.1967C159.101 74.5567 156.736 69.4267 156.736 63.7503C156.736 52.7008 165.693 43.7434 176.74 43.7412C187.79 43.7434 196.747 52.7008 196.747 63.7503Z" fill="#4281FF"/>
<path d="M189.183 57.8352C189.724 56.8435 189.008 55.4098 187.584 54.6329C186.159 53.856 184.566 54.03 184.025 55.0217C183.484 56.0134 184.2 57.4471 185.625 58.224C187.049 59.001 188.642 58.8269 189.183 57.8352Z" fill="white"/>
<path d="M184.735 86.453L184.851 86.4976C184.692 86.8924 184.547 87.2916 184.416 87.6976C184.094 88.6901 183.831 89.6983 183.633 90.731H183.628C183.604 90.8581 183.579 90.9852 183.561 91.1146C183.216 91.6967 182.642 92.2432 181.84 92.7049C179.025 94.3309 174.459 94.3309 171.647 92.7049C170.846 92.2432 170.273 91.699 169.929 91.1213C169.907 90.9897 169.88 90.8603 169.856 90.731C169.655 89.6983 169.394 88.6901 169.073 87.6976C168.941 87.2894 168.794 86.8857 168.636 86.4887L168.712 86.4597C169.117 87.14 169.791 87.7801 170.732 88.3221C174.04 90.2336 179.406 90.2336 182.716 88.3221C183.653 87.7779 184.329 87.1355 184.735 86.453Z" fill="white"/>
<path d="M183.557 91.116C183.329 92.3918 183.197 93.6944 183.168 95.0081C183.168 95.7509 182.696 96.4891 181.75 97.098C181.607 97.1895 181.453 97.2787 181.288 97.3657C180.033 98.0125 178.387 98.3381 176.743 98.3381C175.095 98.3381 173.453 98.0125 172.197 97.3657C171.97 97.2497 171.767 97.1248 171.579 96.9954C170.736 96.4088 170.315 95.7085 170.315 95.0081C170.286 93.6966 170.156 92.3963 169.927 91.1227C170.27 91.7004 170.846 92.2446 171.644 92.7063C174.459 94.3323 179.024 94.3323 181.837 92.7063C182.64 92.2424 183.211 91.6982 183.557 91.116Z" fill="white"/>
<path d="M181.286 97.3657C181.451 97.2809 181.607 97.1895 181.748 97.098C181.621 99.7968 179.395 101.947 176.665 101.947C173.899 101.947 171.649 99.7411 171.577 96.9954C171.762 97.1248 171.967 97.2497 172.195 97.3657C173.453 98.0125 175.094 98.3381 176.74 98.3381C178.386 98.3381 180.03 98.0125 181.286 97.3657Z" fill="#3A3A3A"/>
<path d="M176.74 98.6711C174.976 98.6711 173.308 98.312 172.041 97.663C171.811 97.5448 171.59 97.4109 171.385 97.2682C170.477 96.637 169.978 95.834 169.978 95.0065C169.949 93.724 169.82 92.4349 169.596 91.1791C169.574 91.0542 169.55 90.9271 169.525 90.8044C169.324 89.7784 169.066 88.7703 168.749 87.8C168.622 87.4053 168.477 87.006 168.318 86.6135C167.136 83.6492 165.236 80.8991 162.667 78.439C158.625 74.567 156.399 69.35 156.399 63.7516C156.399 52.5371 165.524 43.4102 176.738 43.408C187.955 43.4102 197.079 52.5371 197.079 63.7516C197.079 69.3522 194.853 74.567 190.812 78.439C188.247 80.8947 186.344 83.6492 185.16 86.6224C185.006 87.0082 184.861 87.4053 184.732 87.8023C184.413 88.7837 184.154 89.7918 183.96 90.7955C183.958 90.8133 183.951 90.8289 183.947 90.8468C183.927 90.9516 183.907 91.0587 183.891 91.1657C183.889 91.1791 183.886 91.1925 183.882 91.2059C183.659 92.4594 183.532 93.7397 183.505 95.0154C183.505 95.8853 182.947 96.7262 181.933 97.3797C181.774 97.4823 181.609 97.5782 181.442 97.663C180.18 98.312 178.509 98.6711 176.74 98.6711ZM176.74 44.0749C165.894 44.0749 157.071 52.9029 157.071 63.7494C157.071 69.1649 159.223 74.2101 163.133 77.955C165.771 80.482 167.725 83.3124 168.943 86.3659C169.106 86.774 169.255 87.1867 169.387 87.5948C169.71 88.5918 169.978 89.6245 170.181 90.6661C170.208 90.8044 170.232 90.9316 170.257 91.0609C170.489 92.3501 170.62 93.675 170.649 94.9976C170.649 95.6154 171.037 96.2065 171.771 96.7173C171.952 96.8422 172.148 96.9604 172.351 97.0652C173.524 97.6674 175.083 97.9998 176.745 97.9998C178.409 97.9998 179.97 97.6674 181.139 97.0652C181.286 96.9894 181.433 96.9046 181.574 96.8132C182.39 96.289 182.838 95.6467 182.838 95.0043C182.867 93.6772 183.001 92.3501 183.231 91.0542C183.233 91.0453 183.233 91.0386 183.235 91.0297C183.255 90.907 183.278 90.7843 183.302 90.6617C183.304 90.6461 183.309 90.6304 183.315 90.6148C183.514 89.6 183.777 88.5829 184.098 87.5904C184.232 87.18 184.382 86.7696 184.54 86.3703C185.762 83.308 187.718 80.4753 190.352 77.9527C194.262 74.2079 196.414 69.1626 196.414 63.7472C196.412 52.9029 187.587 44.0749 176.74 44.0749Z" fill="#3A3A3A"/>
<path d="M182.178 70.3274C182.122 70.3274 182.064 70.314 182.011 70.2828C181.23 69.8344 180.864 68.8776 180.512 67.952C180.186 67.0999 179.878 66.2948 179.307 65.9624C178.942 65.7528 178.801 65.8777 178.402 66.462C178.083 66.9282 177.55 67.7089 176.604 67.1602C175.826 66.7119 175.46 65.755 175.108 64.8316C174.782 63.9796 174.476 63.1744 173.906 62.8443C173.54 62.6324 173.399 62.7595 173 63.3439C172.683 63.8101 172.15 64.5907 171.205 64.0443C170.428 63.596 170.065 62.6413 169.712 61.7179C169.387 60.8659 169.079 60.0607 168.508 59.7306C168.347 59.6392 168.294 59.434 168.385 59.2734C168.477 59.1128 168.682 59.0571 168.843 59.1507C169.621 59.599 169.987 60.5537 170.339 61.4793C170.665 62.3313 170.97 63.1343 171.541 63.4644C171.909 63.6763 172.05 63.5514 172.449 62.967C172.768 62.5008 173.299 61.7224 174.242 62.2666C175.018 62.7172 175.384 63.6718 175.737 64.5952C176.062 65.4494 176.37 66.2546 176.943 66.5825C177.311 66.7966 177.454 66.6717 177.853 66.0851C178.172 65.619 178.703 64.8405 179.646 65.3848C180.425 65.8353 180.788 66.7899 181.143 67.7133C181.469 68.5676 181.776 69.3727 182.35 69.7029C182.51 69.7943 182.564 69.9995 182.472 70.1601C182.408 70.2671 182.294 70.3274 182.178 70.3274Z" fill="#3A3A3A"/>
<path d="M176.74 94.2506C174.833 94.2506 172.928 93.8313 171.476 92.9927C170.642 92.5132 170.024 91.9399 169.639 91.2909C169.545 91.1325 169.596 90.9273 169.755 90.8314C169.913 90.7377 170.118 90.789 170.214 90.9474C170.535 91.4894 171.088 91.9957 171.811 92.4106C174.53 93.9808 178.953 93.9808 181.671 92.4106C182.405 91.989 182.943 91.4939 183.271 90.9407C183.284 90.9162 183.302 90.8939 183.322 90.876C183.451 90.7467 183.665 90.7444 183.797 90.876C183.913 90.992 183.926 91.1727 183.837 91.302C183.449 91.9466 182.833 92.5154 182.008 92.9927C180.554 93.8313 178.647 94.2506 176.74 94.2506Z" fill="#3A3A3A"/>
<path d="M176.718 90.0823C174.487 90.0823 172.257 89.5916 170.56 88.6125C169.589 88.0526 168.869 87.3857 168.421 86.6318C168.327 86.4735 168.378 86.2683 168.537 86.1724C168.695 86.0787 168.9 86.13 168.996 86.2884C169.387 86.9441 170.027 87.5307 170.896 88.0325C174.108 89.8883 179.334 89.886 182.546 88.0325C183.404 87.5352 184.065 86.9307 184.45 86.2817C184.544 86.1233 184.749 86.0698 184.91 86.1657C185.068 86.2594 185.122 86.4646 185.026 86.6252C184.575 87.3835 183.855 88.0526 182.882 88.6147C181.178 89.5916 178.946 90.0823 176.718 90.0823Z" fill="#3A3A3A"/>
<path d="M176.664 102.28C173.702 102.28 171.32 99.9627 171.242 97.0029C171.238 96.8178 171.383 96.6639 171.568 96.6594C171.57 96.6594 171.575 96.6594 171.577 96.6594C171.758 96.6594 171.907 96.8044 171.911 96.9851C171.981 99.579 174.068 101.611 176.664 101.611C179.209 101.611 181.295 99.6214 181.415 97.081C181.424 96.8958 181.578 96.7553 181.765 96.762C181.95 96.7709 182.093 96.9271 182.084 97.1122C181.948 100.01 179.568 102.28 176.664 102.28Z" fill="#3A3A3A"/>
<path d="M205.841 155.495C205.841 164.818 202.571 171.259 197.361 174.266L179.734 184.443C184.947 181.435 188.214 174.993 188.214 165.672C188.214 146.276 173.844 121.998 156.074 113.822C152.403 78.108 116.985 42.7135 95.415 53.6002L113.01 43.4406C113.028 43.4317 113.037 43.425 113.042 43.4205C134.612 32.5361 170.03 67.9306 173.701 103.644C191.47 111.825 205.841 136.101 205.841 155.495Z" fill="#D7DCE0"/>
<path d="M84.4081 71.2256C86.4712 57.3078 95.2634 53.7614 95.415 53.6008C116.985 42.7142 152.403 78.1087 156.074 113.822C173.844 121.999 188.214 146.277 188.214 165.673C188.214 174.994 184.944 181.435 179.734 184.444C175.084 187.129 168.886 187.08 162.081 183.909C160.491 183.168 164.095 185.243 126.17 163.342V126.62L141.659 135.562L118.031 91.4622L94.4047 108.282L109.892 117.224V153.947L85.4787 139.851C71.7597 131.927 60.6436 112.665 60.6436 96.8331C60.6436 88.9084 63.4226 83.3413 67.919 80.7473C72.1143 78.325 77.804 78.4901 84.1249 81.7421C84.1338 81.7621 84.1539 81.7711 84.1695 81.7711C83.8305 77.7228 83.9621 74.2345 84.4081 71.2256Z" fill="white"/>
<path d="M127.519 125.819L134.288 121.806L141.658 135.561L126.17 126.62L127.519 125.819Z" fill="#D7DCE0"/>
<path d="M127.519 109.171L134.288 121.806L127.519 125.819V109.171Z" fill="white"/>
<path d="M127.519 109.172V125.819L126.17 126.62V144.452L109.893 153.945V117.223L126.649 107.548L127.519 109.172Z" fill="#3A3A3A"/>
<path d="M125.87 106.093L126.649 107.547L109.892 117.222L94.4043 108.278L112.031 98.1032L125.87 106.093Z" fill="#D7DCE0"/>
<path d="M118.95 93.1762L125.871 106.093L112.031 98.1032L118.95 93.1762Z" fill="white"/>
<path d="M118.95 93.1779L112.031 98.1049L94.4043 108.28L118.031 91.4627L118.95 93.1779Z" fill="#3A3A3A"/>
<path d="M112.963 43.4668L111.554 44.2832C112.263 43.8215 112.776 43.5694 112.963 43.4668Z" fill="white"/>
<path d="M67.917 80.7471L84.4083 71.2276C83.9623 74.2343 83.8307 77.7249 84.1675 81.7708C84.1496 81.7708 84.1318 81.7619 84.1228 81.7419C77.802 78.4899 72.1123 78.3226 67.917 80.7471Z" fill="#D7DCE0"/>
<path d="M172.164 186.71C168.97 186.71 165.504 185.876 161.938 184.215C161.804 184.152 161.708 184.112 161.621 184.072C160.689 183.664 160.689 183.664 129.892 165.881L126.002 163.635C125.899 163.574 125.835 163.465 125.835 163.345V126.621C125.835 126.5 125.899 126.391 126.002 126.331C126.104 126.27 126.234 126.27 126.336 126.331L140.809 134.686L117.915 91.9555L95.0221 108.251L110.059 116.932C110.162 116.992 110.226 117.101 110.226 117.222V153.946C110.226 154.066 110.164 154.175 110.059 154.236C109.957 154.296 109.827 154.296 109.725 154.236L85.3111 140.137C71.5251 132.172 60.3086 112.745 60.3086 96.8312C60.3086 89.0425 62.9516 83.2278 67.7513 80.4554C72.0738 77.9596 77.7523 78.2272 83.7899 81.1959C83.529 77.6072 83.6249 74.2392 84.0799 71.1769C85.8285 59.3891 92.3657 54.8167 95.0957 53.3982C95.1514 53.3692 95.1938 53.3469 95.2183 53.3335C95.2339 53.3223 95.2518 53.3112 95.2674 53.3023C101.95 49.9299 110.198 50.7284 119.123 55.6108C127.931 60.4285 136.56 68.7948 143.423 79.1729C150.583 89.9972 155.182 102.215 156.391 113.599C164.877 117.558 172.933 125.282 179.096 135.368C185.104 145.205 188.55 156.25 188.55 165.675C188.55 174.746 185.479 181.516 179.903 184.737C177.619 186.055 174.999 186.71 172.164 186.71ZM126.504 163.153L130.226 165.303C160.99 183.068 160.99 183.068 161.889 183.461C161.98 183.501 162.08 183.545 162.221 183.61C168.749 186.652 174.909 186.849 179.566 184.159C184.928 181.063 187.879 174.499 187.879 165.678C187.879 145.704 173.25 122.1 155.936 114.13C155.829 114.081 155.755 113.979 155.742 113.86C153.415 91.235 137.533 66.4484 118.8 56.2018C110.086 51.4354 102.061 50.6369 95.5908 53.8911C95.5507 53.9179 95.4949 53.9469 95.4012 53.9959C92.7627 55.3676 86.4418 59.7973 84.7378 71.2795C84.265 74.4623 84.1869 77.9841 84.4992 81.7446C84.5059 81.8383 84.4747 81.9297 84.4122 81.9989C84.2851 82.1372 84.0531 82.1305 83.9171 82.0145C77.9263 78.9477 72.3058 78.6019 68.0837 81.0398C63.5003 83.6851 60.9755 89.2946 60.9755 96.8356C60.9755 112.538 72.0426 131.706 85.6434 139.564L109.555 153.372V117.416L94.2348 108.57C94.1366 108.514 94.0742 108.409 94.0675 108.296C94.063 108.182 94.1143 108.072 94.208 108.008L117.834 91.1882C117.912 91.1324 118.01 91.1124 118.104 91.1347C118.198 91.157 118.278 91.2172 118.323 91.3019L141.951 135.402C142.023 135.533 141.996 135.696 141.889 135.801C141.782 135.906 141.617 135.926 141.49 135.85L126.501 127.198V163.153H126.504Z" fill="#3A3A3A"/>
<path d="M111.553 44.6203C111.444 44.6203 111.337 44.5667 111.272 44.4686C111.172 44.3147 111.214 44.1073 111.37 44.0047C111.984 43.6032 112.447 43.3601 112.697 43.2307L112.802 43.175C112.965 43.088 113.168 43.1482 113.255 43.311C113.342 43.4738 113.282 43.6768 113.119 43.7638L113.005 43.824C112.766 43.9489 112.32 44.1831 111.731 44.5667C111.68 44.6047 111.616 44.6203 111.553 44.6203Z" fill="#3A3A3A"/>
<path d="M179.734 184.782C179.618 184.782 179.506 184.722 179.444 184.615C179.352 184.454 179.406 184.251 179.566 184.157L197.193 173.98C202.555 170.886 205.506 164.322 205.506 155.499C205.506 135.527 190.877 111.923 173.562 103.954C173.455 103.905 173.382 103.802 173.368 103.684C171.042 81.0606 155.162 56.2717 136.427 46.0229C127.715 41.2565 119.69 40.458 113.217 43.71C113.2 43.7211 113.182 43.7323 113.162 43.7434C112.997 43.826 112.796 43.759 112.713 43.594C112.633 43.4334 112.693 43.2416 112.847 43.1546C112.861 43.1435 112.878 43.1345 112.894 43.1256C119.576 39.7554 127.826 40.5539 136.75 45.4363C145.558 50.254 154.187 58.6226 161.05 68.9985C168.209 79.8227 172.808 92.041 174.015 103.425C182.502 107.384 190.558 115.108 196.72 125.194C202.729 135.03 206.175 146.075 206.175 155.499C206.175 164.572 203.104 171.341 197.528 174.56L179.901 184.737C179.847 184.768 179.789 184.782 179.734 184.782Z" fill="#3A3A3A"/>
<path d="M95.4145 53.9377C95.2986 53.9377 95.1871 53.8775 95.1246 53.7704C95.0332 53.6098 95.0867 53.4068 95.2473 53.3132L112.845 43.1536C113.005 43.0621 113.208 43.1157 113.302 43.2763C113.394 43.4369 113.34 43.6398 113.179 43.7335L95.5841 53.8931C95.5305 53.9221 95.4725 53.9377 95.4145 53.9377Z" fill="#3A3A3A"/>
<path d="M67.9165 81.0845C67.8005 81.0845 67.689 81.0243 67.6266 80.9172C67.5351 80.7566 67.5887 80.5536 67.7492 80.46L84.2406 70.9405C84.4012 70.8491 84.6064 70.9026 84.6978 71.0632C84.7893 71.2238 84.7357 71.4268 84.5751 71.5204L68.0838 81.0399C68.0303 81.0689 67.9723 81.0845 67.9165 81.0845Z" fill="#3A3A3A"/>
<path d="M127.518 126.156C127.333 126.156 127.184 126.006 127.184 125.821V109.176C127.184 108.99 127.333 108.841 127.518 108.841C127.703 108.841 127.853 108.99 127.853 109.176V125.821C127.853 126.006 127.703 126.156 127.518 126.156Z" fill="#3A3A3A"/>
<path d="M125.868 106.429C125.812 106.429 125.754 106.414 125.7 106.385L111.861 98.3955C111.763 98.3398 111.7 98.2349 111.694 98.1212C111.689 98.0074 111.74 97.8981 111.834 97.8334L118.753 92.9064C118.902 92.7994 119.112 92.8351 119.219 92.9845C119.326 93.1339 119.29 93.3436 119.141 93.4507L112.646 98.0766L126.035 105.805C126.195 105.896 126.249 106.102 126.158 106.262C126.097 106.369 125.984 106.429 125.868 106.429Z" fill="#3A3A3A"/>
<path d="M94.4038 108.618C94.2878 108.618 94.1763 108.557 94.1139 108.45C94.0224 108.29 94.0759 108.087 94.2365 107.993L111.863 97.818C112.024 97.7266 112.227 97.7801 112.32 97.9407C112.412 98.1013 112.358 98.3042 112.198 98.3979L94.5711 108.573C94.5176 108.602 94.4596 108.618 94.4038 108.618Z" fill="#3A3A3A"/>
<path d="M109.892 117.559C109.776 117.559 109.665 117.498 109.602 117.391C109.511 117.231 109.564 117.028 109.725 116.934L126.482 107.261C126.642 107.169 126.845 107.223 126.939 107.383C127.03 107.544 126.977 107.747 126.816 107.841L110.059 117.514C110.006 117.543 109.948 117.559 109.892 117.559Z" fill="#3A3A3A"/>
<path d="M109.892 154.281C109.776 154.281 109.664 154.221 109.602 154.116C109.508 153.955 109.562 153.752 109.722 153.659L125.999 144.164C126.158 144.07 126.363 144.126 126.457 144.284C126.55 144.445 126.497 144.648 126.336 144.742L110.059 154.236C110.005 154.268 109.947 154.281 109.892 154.281Z" fill="#3A3A3A"/>
<path d="M126.169 126.955C126.056 126.955 125.944 126.897 125.882 126.79C125.788 126.632 125.839 126.427 126 126.333L134.118 121.52C134.277 121.426 134.482 121.477 134.576 121.638C134.669 121.796 134.618 122.001 134.457 122.097L126.339 126.911C126.285 126.94 126.227 126.955 126.169 126.955Z" fill="#3A3A3A"/>
<path d="M93.428 168.173V181.961L84.4463 187.087V164.457L93.428 159.331V168.173ZM90.1047 171.525C90.3858 171.046 90.5575 170.501 90.5575 170.013C90.5575 169.036 89.8705 168.641 89.0274 169.13C88.1821 169.616 87.4952 170.802 87.4952 171.779C87.4952 172.756 88.1821 173.151 89.0274 172.663C89.449 172.422 89.8282 172.002 90.1047 171.525Z" fill="#D7DCE0"/>
<path d="M93.4277 159.332L84.4461 164.457L73.2607 158L82.2424 152.875L93.4277 159.332Z" fill="white"/>
<path d="M90.5574 170.013C90.5574 170.502 90.3857 171.046 90.1047 171.525C89.8281 172.003 89.4489 172.422 89.0274 172.663C88.1821 173.151 87.4951 172.757 87.4951 171.78C87.4951 170.803 88.1821 169.616 89.0274 169.13C89.8705 168.642 90.5574 169.036 90.5574 170.013Z" fill="#3A3A3A"/>
<path d="M84.446 164.457V187.087L73.2607 180.63V158L84.446 164.457Z" fill="white"/>
<path d="M93.427 182.297C93.2419 182.297 93.0924 182.147 93.0924 181.962V159.526L82.0744 153.165C81.9138 153.074 81.8603 152.869 81.9518 152.708C82.0432 152.547 82.2484 152.494 82.409 152.585L93.5943 159.042C93.6969 159.103 93.7615 159.212 93.7615 159.332V181.962C93.7615 182.147 93.6121 182.297 93.427 182.297Z" fill="#3A3A3A"/>
<path d="M84.4456 187.422C84.3877 187.422 84.3297 187.406 84.2784 187.377L73.0931 180.92C72.9905 180.86 72.9258 180.751 72.9258 180.63V158.001C72.9258 157.88 72.9905 157.771 73.0931 157.711C73.1957 157.65 73.3228 157.65 73.4276 157.711L84.6129 164.168C84.7155 164.228 84.7802 164.337 84.7802 164.458V187.088C84.7802 187.208 84.7155 187.317 84.6129 187.377C84.5616 187.406 84.5036 187.422 84.4456 187.422ZM73.5949 180.436L84.1111 186.508V164.65L73.5949 158.578V180.436Z" fill="#3A3A3A"/>
<path d="M73.2607 158.336C73.1447 158.336 73.0309 158.275 72.9707 158.166C72.8793 158.006 72.9351 157.803 73.0956 157.711L82.0773 152.586C82.2379 152.494 82.4431 152.55 82.5345 152.711C82.626 152.871 82.5702 153.076 82.4097 153.168L73.428 158.293C73.3744 158.322 73.3164 158.336 73.2607 158.336Z" fill="#3A3A3A"/>
<path d="M84.4453 164.793C84.3293 164.793 84.2155 164.733 84.1553 164.623C84.0638 164.463 84.1196 164.258 84.2802 164.166L93.2619 159.041C93.4225 158.949 93.6277 159.005 93.7191 159.165C93.8106 159.326 93.7548 159.531 93.5942 159.623L84.6125 164.748C84.559 164.779 84.501 164.793 84.4453 164.793Z" fill="#3A3A3A"/>
<path d="M84.4453 187.423C84.3293 187.423 84.2155 187.363 84.1553 187.254C84.0638 187.093 84.1196 186.888 84.2802 186.797L93.2619 181.671C93.4225 181.58 93.6277 181.635 93.7191 181.796C93.8106 181.957 93.7548 182.162 93.5942 182.253L84.6125 187.379C84.559 187.408 84.501 187.423 84.4453 187.423Z" fill="#3A3A3A"/>
<path d="M88.0963 178.443C87.9112 178.443 87.7617 178.294 87.7617 178.109V175.426C87.7617 175.24 87.9112 175.091 88.0963 175.091C88.2814 175.091 88.4308 175.24 88.4308 175.426V178.109C88.4308 178.294 88.2814 178.443 88.0963 178.443Z" fill="#3A3A3A"/>
<path d="M89.6451 177.669C89.46 177.669 89.3105 177.52 89.3105 177.335V174.651C89.3105 174.466 89.46 174.317 89.6451 174.317C89.8302 174.317 89.9797 174.466 89.9797 174.651V177.335C89.9797 177.52 89.8302 177.669 89.6451 177.669Z" fill="#3A3A3A"/>
<path d="M88.3423 173.21C88.1393 173.21 87.9475 173.161 87.7757 173.063C87.3787 172.833 87.1602 172.378 87.1602 171.783C87.1602 170.683 87.9073 169.392 88.8597 168.843C89.3749 168.544 89.8768 168.506 90.2738 168.736C90.6708 168.966 90.8894 169.421 90.8894 170.016C90.8894 170.552 90.7131 171.149 90.3897 171.698C90.0708 172.249 89.6426 172.697 89.1898 172.956C88.8998 173.123 88.6099 173.21 88.3423 173.21ZM89.7117 169.256C89.5623 169.256 89.3838 169.311 89.1965 169.421C88.456 169.847 87.8315 170.926 87.8315 171.781C87.8315 172.124 87.9341 172.378 88.1125 172.481C88.291 172.583 88.5653 172.546 88.8619 172.374C89.2166 172.171 89.5556 171.812 89.8165 171.359C90.0753 170.917 90.2247 170.427 90.2247 170.014C90.2247 169.671 90.1221 169.416 89.9437 169.314C89.8767 169.276 89.7987 169.256 89.7117 169.256Z" fill="#3A3A3A"/>
<path d="M45.5242 131.74V159.788L34.3701 166.229V138.18L45.5242 131.74Z" fill="#D7DCE0"/>
<path d="M45.5242 131.74L34.3702 138.179L23.2139 131.74L34.3702 125.299L45.5242 131.74Z" fill="#3A3A3A"/>
<path d="M34.3702 138.18V166.229L23.2139 159.788V131.74L34.3702 138.18Z" fill="white"/>
<path d="M34.3697 166.564C34.3117 166.564 34.2537 166.549 34.2024 166.52C34.0998 166.46 34.0352 166.35 34.0352 166.23V138.18C34.0352 138.06 34.0998 137.95 34.2024 137.89L45.3565 131.451C45.4591 131.391 45.5885 131.391 45.6911 131.451C45.7937 131.511 45.8583 131.62 45.8583 131.741V159.788C45.8583 159.909 45.7937 160.018 45.6911 160.078L34.537 166.52C34.4857 166.549 34.4277 166.564 34.3697 166.564ZM34.7043 138.374V165.652L45.1892 159.597V132.321L34.7043 138.374Z" fill="#3A3A3A"/>
<path d="M34.3698 166.564C34.314 166.564 34.256 166.551 34.2025 166.52L23.0462 160.078C22.9436 160.018 22.8789 159.909 22.8789 159.788V131.741C22.8789 131.62 22.9436 131.511 23.0462 131.451C23.1488 131.391 23.2781 131.391 23.3807 131.451L34.5371 137.89C34.6976 137.982 34.7512 138.187 34.6597 138.347C34.5683 138.508 34.3631 138.561 34.2025 138.47L23.548 132.321V159.597L34.5371 165.942C34.6976 166.034 34.7512 166.239 34.6597 166.399C34.5973 166.504 34.4858 166.564 34.3698 166.564Z" fill="#3A3A3A"/>
<path d="M45.5238 132.075C45.468 132.075 45.41 132.062 45.3565 132.03L34.3697 125.685L23.3807 132.03C23.2201 132.122 23.0149 132.068 22.9234 131.908C22.832 131.747 22.8855 131.544 23.0461 131.45L34.2024 125.009C34.305 124.949 34.4344 124.949 34.537 125.009L45.691 131.45C45.8516 131.542 45.9052 131.747 45.8137 131.908C45.7513 132.015 45.6397 132.075 45.5238 132.075Z" fill="#3A3A3A"/>
<path d="M49.5757 121.442C49.6515 121.487 49.7006 121.587 49.6872 121.665L47.7914 131.82C47.7758 131.898 47.7022 131.927 47.6264 131.883L32.8256 123.338C32.7498 123.293 32.7007 123.195 32.7141 123.115L34.6099 112.962C34.6255 112.882 34.6991 112.853 34.775 112.897L49.5757 121.442Z" fill="#4281FF"/>
<path d="M47.682 131.916C47.7578 131.958 47.7489 132.036 47.6597 132.085L38.0424 137.639C37.9531 137.69 37.8216 137.695 37.7435 137.653L22.945 129.106C22.8669 129.063 22.8781 128.985 22.9651 128.936L32.5846 123.382C32.6627 123.338 32.7765 123.329 32.8545 123.356L47.682 131.916ZM39.2334 134.376L43.3573 131.994L32.743 125.865L28.619 128.247L39.2334 134.376Z" fill="white"/>
<path d="M43.3574 131.994L39.2335 134.376L28.6191 128.247L32.7431 125.865L43.3574 131.994Z" fill="white"/>
<path d="M37.8753 138.016C37.7727 138.016 37.6701 137.994 37.5853 137.947L22.7801 129.396C22.6463 129.324 22.5616 129.188 22.5616 129.037C22.5593 128.878 22.6508 128.733 22.8047 128.646L32.422 123.095C32.5826 123.003 32.7967 122.983 32.9685 123.041C33.1424 123.101 33.2361 123.291 33.1759 123.467C33.1157 123.641 32.9261 123.735 32.7499 123.675L23.4805 129.03L37.8797 137.347L47.2941 131.914C47.2874 131.847 47.303 131.775 47.341 131.713C47.4369 131.555 47.6421 131.503 47.8004 131.599L47.8562 131.633C47.9878 131.706 48.0703 131.842 48.0703 131.994C48.0703 132.152 47.9766 132.297 47.8227 132.382L38.2121 137.931C38.1095 137.987 37.9913 138.016 37.8753 138.016ZM47.5105 132.204C47.5127 132.206 47.5172 132.208 47.5194 132.21L47.5105 132.204ZM23.1058 128.811L23.1147 128.816C23.1102 128.816 23.108 128.813 23.1058 128.811Z" fill="#3A3A3A"/>
<path d="M39.234 134.711C39.1761 134.711 39.1181 134.695 39.0668 134.666L28.4524 128.537C28.3498 128.477 28.2852 128.367 28.2852 128.247C28.2852 128.127 28.3498 128.017 28.4524 127.957L32.5764 125.575C32.679 125.515 32.8083 125.515 32.9109 125.575L43.5253 131.704C43.6279 131.764 43.6925 131.874 43.6925 131.994C43.6925 132.115 43.6279 132.224 43.5253 132.284L39.4013 134.666C39.35 134.697 39.292 134.711 39.234 134.711ZM29.2888 128.247L39.234 133.99L42.6889 131.994L32.7437 126.251L29.2888 128.247Z" fill="#3A3A3A"/>
<path d="M35.6467 134.766C35.591 134.766 35.533 134.753 35.4795 134.722L28.3401 130.6C28.1795 130.509 28.1259 130.303 28.2174 130.143C28.3088 129.982 28.514 129.929 28.6746 130.02L35.814 134.142C35.9746 134.233 36.0281 134.439 35.9367 134.599C35.8742 134.706 35.7627 134.766 35.6467 134.766Z" fill="#3A3A3A"/>
<path d="M47.6982 132.239C47.6179 132.239 47.5354 132.217 47.4596 132.172L32.6589 123.627C32.4604 123.511 32.3488 123.277 32.3845 123.061L34.2803 112.901C34.3093 112.754 34.3985 112.638 34.5279 112.58C34.6595 112.52 34.8112 112.531 34.945 112.609L49.7435 121.152C49.9398 121.268 50.0535 121.506 50.0178 121.72L48.122 131.88C48.093 132.027 48.0016 132.141 47.8744 132.199C47.8187 132.226 47.7585 132.239 47.6982 132.239ZM33.0603 123.088L47.5243 131.438L49.3443 121.696L34.8825 113.345L33.0603 123.088Z" fill="#3A3A3A"/>
<path d="M17.4363 138.972C17.4653 139.028 17.4987 139.084 17.5299 139.14C17.6236 140.966 17.6861 142.652 17.7173 144.374C17.2913 145.068 16.5374 145.726 15.2014 146.034C14.5524 146.185 13.8766 146.25 13.2744 146.136C11.2938 145.759 9.75264 144.883 8.12447 143.964C6.9736 143.315 6.19743 142.541 5.71567 141.316C5.68668 141.243 5.65768 141.167 5.63091 141.089C5.69337 137.353 5.56624 134.853 5.43911 133.039C5.35658 131.842 5.27406 130.943 5.24953 130.184L4.17672 130.869C4.17672 130.869 1.60733 130.167 1.87275 127.236C2.54632 126.743 3.20873 126.274 3.92691 125.777C5.35435 124.789 7.19887 124.633 8.77128 125.364L9.87085 125.877C9.87085 126.051 9.86863 126.228 9.86417 126.402C9.85524 126.444 9.853 126.489 9.85524 126.535C9.87977 127.053 10.6024 127.617 11.4477 127.798C12.1904 127.954 12.7815 127.762 12.9019 127.37C12.9131 127.332 12.9198 127.289 12.9198 127.247C14.4899 127.883 15.5137 128.525 16.4705 129.381C17.6571 130.439 18.5782 131.761 19.2206 133.216L20.8287 136.858C20.8287 136.856 19.8183 139.822 17.4363 138.972Z" fill="white"/>
<path d="M20.5787 173.177C21.3259 173.858 19.6085 174.792 19.6085 174.792C19.6085 174.792 18.616 175.568 16.8852 176.445C15.9418 176.922 15.1768 176.789 14.6749 176.568C14.2668 176.387 14.0214 175.983 14.0326 175.56L14.0504 174.948C14.2043 175.111 14.4006 175.236 14.6326 175.301C16.1247 175.734 17.7239 175.192 18.1119 173.438C18.1053 173.271 18.0986 173.106 18.0896 172.943C19.3922 172.756 20.0234 172.673 20.5787 173.177Z" fill="#3A3A3A"/>
<path d="M11.4587 152.245C10.0514 156.897 9.27742 161.476 9.18152 167.394C9.16814 168.313 9.16814 169.265 9.18598 170.253C9.19044 170.438 9.14584 170.603 9.06778 170.746C8.56372 171.656 6.59652 171.683 5.88281 170.969C5.71999 170.806 5.62186 170.603 5.62186 170.364C5.62186 170.364 5.55271 158.673 6.07685 155.811C6.60098 152.949 5.43228 147.059 5.55272 143.869C5.58617 142.93 5.61071 142.056 5.62632 141.24C5.65532 141.264 5.6843 141.289 5.7133 141.313C6.19283 142.538 6.97122 143.314 8.12209 143.961C9.75026 144.88 11.2915 145.756 13.272 146.133C13.8742 146.247 14.55 146.182 15.1991 146.031C16.5351 145.723 17.2889 145.065 17.7149 144.371C17.7595 146.773 17.7484 149.24 17.6904 152.242C17.5499 159.674 17.6257 163.334 18.0874 172.943C18.0963 173.106 18.103 173.271 18.1097 173.438C17.7216 175.189 16.1224 175.733 14.6303 175.3C14.4006 175.236 14.2021 175.111 14.0482 174.948C13.872 174.761 13.7582 174.522 13.7359 174.259C13.5107 171.687 13.0401 162.803 12.9642 159.614C12.9241 157.714 12.2081 154.926 11.4587 152.245Z" fill="#3A3A3A"/>
<path d="M17.4365 138.972C19.8208 139.821 20.8289 136.855 20.8289 136.855L24.8882 134.274C25.3008 134.011 25.6666 133.679 25.9655 133.291L26.2264 132.954C26.6948 132.347 27.3349 131.899 28.0598 131.662L28.807 131.417C29.0389 131.341 29.2932 131.384 29.4894 131.526C29.6902 131.676 29.795 131.906 29.795 132.135C29.795 132.316 29.7303 132.499 29.5965 132.644L29.2173 133.054L29.2441 133.304C29.2776 133.616 29.1058 133.913 28.8181 134.038L28.2672 134.277C27.3817 134.662 26.6011 135.26 26.0123 136.027C24.6852 137.756 22.8095 139.549 20.8155 141.024C20.0238 141.608 18.8996 141.387 18.3733 140.553C18.0633 140.062 17.7845 139.596 17.5235 139.134C17.499 139.083 17.4655 139.027 17.4365 138.972Z" fill="#D7DCE0"/>
<path d="M16.1253 118.31L14.205 122.684C14.205 122.684 13.7924 121.827 13.0675 122.235C12.3426 122.643 12.9359 124.265 12.2512 124.68C11.7404 124.992 10.9063 125.467 9.85354 124.838C9.80894 123.38 9.69965 121.992 9.75987 120.79C9.82678 119.485 11.0669 118.519 12.4296 118.696C13.7768 118.87 15.3626 118.908 16.1253 118.31Z" fill="#3A3A3A"/>
<path d="M9.8644 126.402C9.86886 126.226 9.87108 126.052 9.87108 125.878C9.87108 125.528 9.86439 125.182 9.85547 124.838C10.9104 125.467 11.7424 124.992 12.2531 124.68C12.9378 124.265 12.3446 122.646 13.0694 122.236C13.7943 121.825 14.2069 122.684 14.2069 122.684L15.3712 120.036C15.4158 121.292 15.3913 122.358 15.2307 123.549C15.1147 124.412 14.5036 125.144 13.6516 125.465C13.6426 125.467 13.6337 125.47 13.627 125.474C12.9981 125.708 12.9044 126.239 12.9044 126.879V127.372C12.7884 127.767 12.1929 127.959 11.4502 127.8C10.6049 127.62 9.88447 127.055 9.8577 126.538C9.85324 126.489 9.85548 126.444 9.8644 126.402Z" fill="#D7DCE0"/>
<path d="M12.9203 127.19C12.9225 127.208 12.9225 127.23 12.9203 127.246C12.9158 127.242 12.9091 127.242 12.9023 127.237V127.069C12.9113 127.109 12.9158 127.15 12.9203 127.19Z" fill="white"/>
<path d="M12.9004 127.238C12.9071 127.242 12.9139 127.242 12.9183 127.246C12.9183 127.289 12.9116 127.332 12.9004 127.37V127.238Z" fill="white"/>
<path d="M9.85541 167.719C10.471 168.047 9.81972 169.599 9.18853 170.808L9.07031 170.746C9.14838 170.603 9.19299 170.438 9.18853 170.253C9.17069 169.262 9.17068 168.312 9.18406 167.393C9.40487 167.491 9.63683 167.603 9.85541 167.719Z" fill="#3A3A3A"/>
<path d="M9.06833 170.747L9.18654 170.809C9.03041 171.108 8.87429 171.385 8.74046 171.619C8.47282 172.083 7.96207 172.382 7.40447 172.375C7.14352 172.37 6.90934 172.344 6.6863 172.297C6.17778 172.185 5.83206 171.735 5.86551 171.24L5.88336 170.972C6.59708 171.686 8.56427 171.657 9.06833 170.747Z" fill="#3A3A3A"/>
<path d="M5.63111 141.088C5.65806 141.166 5.68726 141.243 5.71646 141.317C5.68726 141.292 5.65806 141.267 5.62886 141.243C5.62661 141.191 5.62886 141.139 5.63111 141.088Z" fill="white"/>
<path d="M5.63126 141.089C5.62902 141.138 5.6268 141.191 5.6268 141.243C5.34355 141 5.09151 140.739 4.85509 140.433C4.63651 140.15 4.57852 139.775 4.69896 139.438L4.73687 139.331C4.99783 138.604 4.90416 137.792 4.48039 137.143C3.15109 135.102 1.99799 133.345 0.717759 131.172C0.00181025 129.957 0.318518 128.391 1.45155 127.548C1.59206 127.443 1.73481 127.34 1.87309 127.236C1.60767 130.166 4.17706 130.869 4.17706 130.869L5.43945 133.039C5.56435 134.853 5.72493 137.355 5.63126 141.089Z" fill="#D7DCE0"/>
<path d="M7.41085 171.807C6.77742 171.807 6.07262 171.635 5.64662 171.209C5.41243 170.972 5.28753 170.682 5.28753 170.368C5.2853 169.891 5.22508 158.614 5.74699 155.754C6.04139 154.148 5.78267 151.516 5.53286 148.969C5.34328 147.047 5.16709 145.231 5.21839 143.857C5.23846 143.306 5.29645 141.078 5.29645 141.078C5.38789 137.534 5.25184 135.174 5.10687 133.06C5.08011 132.687 5.05557 132.344 5.03103 132.023C4.97973 131.324 4.93512 130.72 4.91728 130.194C4.90167 129.71 4.90837 129.319 4.93959 128.965C4.95521 128.78 5.12025 128.646 5.30314 128.661C5.48826 128.677 5.62431 128.84 5.60647 129.025C5.57748 129.351 5.57078 129.716 5.58639 130.171C5.60423 130.684 5.64884 131.282 5.70014 131.974C5.72468 132.295 5.74922 132.64 5.77598 133.013C5.88527 134.588 6.06593 137.222 5.96779 141.094C5.96779 141.094 5.90981 143.326 5.88973 143.88C5.84066 145.207 6.01462 147.002 6.20198 148.9C6.45624 151.492 6.71943 154.173 6.40718 155.87C5.89643 158.667 5.95664 170.245 5.95887 170.361C5.95887 170.5 6.0124 170.62 6.12169 170.732C6.43171 171.042 7.12758 171.2 7.77662 171.108C8.26507 171.039 8.62863 170.848 8.77583 170.582C8.82936 170.486 8.85389 170.377 8.85166 170.256C8.83381 169.257 8.83381 168.291 8.84719 167.386C8.93418 161.799 9.64121 157.097 11.14 152.145C11.1935 151.969 11.3809 151.869 11.5571 151.922C11.7333 151.976 11.8337 152.163 11.7801 152.339C10.3014 157.229 9.60329 161.872 9.5163 167.395C9.50292 168.294 9.50292 169.253 9.52077 170.243C9.52523 170.482 9.4717 170.705 9.36019 170.906C9.10592 171.363 8.5751 171.671 7.86807 171.771C7.72309 171.795 7.5692 171.807 7.41085 171.807Z" fill="#3A3A3A"/>
<path d="M15.5992 175.781C15.2535 175.781 14.8944 175.729 14.5397 175.627C14.2587 175.547 14.0067 175.393 13.8082 175.181C13.5785 174.935 13.4357 174.619 13.4067 174.293C13.177 171.663 12.7064 162.755 12.635 159.628C12.5926 157.779 11.8923 155.031 11.1407 152.339C11.0091 151.873 10.8797 151.409 10.7503 150.954C10.3333 149.48 9.93849 148.086 9.682 146.959C9.64185 146.779 9.75337 146.6 9.93403 146.56C10.1169 146.518 10.2931 146.631 10.3333 146.812C10.5853 147.923 10.9778 149.308 11.3927 150.773C11.5221 151.228 11.6536 151.694 11.783 152.161C12.5458 154.895 13.2595 157.692 13.3019 159.615C13.3733 162.733 13.8416 171.617 14.0714 174.237C14.087 174.418 14.1628 174.587 14.2944 174.726C14.4104 174.848 14.5576 174.938 14.7226 174.984C15.4832 175.205 16.2437 175.138 16.8103 174.804C17.2942 174.516 17.6288 174.037 17.776 173.414C17.7693 173.263 17.7626 173.113 17.7559 172.966C17.2898 163.248 17.2206 159.568 17.3589 152.243C17.4191 149.123 17.4258 146.698 17.3835 144.385C17.3522 142.688 17.292 141.029 17.1961 139.162C17.1872 138.977 17.3277 138.82 17.5128 138.809C17.7002 138.8 17.8541 138.941 17.8652 139.126C17.9611 141 18.0213 142.666 18.0526 144.372C18.0949 146.694 18.0883 149.125 18.028 152.254C17.8898 159.561 17.9589 163.232 18.4228 172.932C18.4317 173.095 18.4384 173.263 18.4451 173.43C18.4451 173.459 18.4429 173.488 18.4384 173.517C18.2555 174.344 17.8095 174.989 17.1515 175.379C16.701 175.645 16.1634 175.781 15.5992 175.781Z" fill="#3A3A3A"/>
<path d="M17.4365 139.307C17.3205 139.307 17.2067 139.245 17.1443 139.136C16.5666 138.103 16.0581 137.086 15.4715 135.906L15.0344 135.032C14.9518 134.867 15.0188 134.666 15.1838 134.583C15.3488 134.501 15.5496 134.568 15.6321 134.733L16.0692 135.609C16.6536 136.78 17.1577 137.793 17.7264 138.81C17.8179 138.97 17.7599 139.176 17.5971 139.265C17.548 139.294 17.4922 139.307 17.4365 139.307Z" fill="#3A3A3A"/>
<path d="M19.8294 141.694C19.7022 141.694 19.5751 141.683 19.448 141.659C18.8904 141.554 18.3975 141.219 18.0964 140.74C17.7819 140.24 17.5009 139.772 17.2377 139.305C17.2377 139.305 17.1641 139.176 17.1395 139.131C17.0526 138.969 17.115 138.766 17.2778 138.679C17.4406 138.592 17.6436 138.654 17.7306 138.817C17.7529 138.857 17.8198 138.978 17.8198 138.978C18.0763 139.435 18.3529 139.894 18.6606 140.383C18.8636 140.706 19.1959 140.931 19.5706 141.001C19.9453 141.07 20.3178 140.985 20.6211 140.762C22.6307 139.274 24.4529 137.523 25.751 135.83C26.3643 135.03 27.1896 134.39 28.1375 133.977L28.6884 133.738C28.8423 133.671 28.9337 133.513 28.9137 133.348L28.8869 133.098C28.8757 133.002 28.907 132.906 28.9739 132.835L29.353 132.425C29.4244 132.349 29.4623 132.248 29.4623 132.144C29.4623 132.007 29.3999 131.885 29.2906 131.802C29.1813 131.722 29.0386 131.7 28.9114 131.742L28.1643 131.987C27.4974 132.206 26.9175 132.614 26.4915 133.167L26.2305 133.504C25.9071 133.921 25.5168 134.278 25.0685 134.564L21.0092 137.144C20.9267 137.198 20.8263 137.211 20.7327 137.182C20.639 137.153 20.5632 137.086 20.523 136.997L18.9149 133.355C18.2681 131.889 17.3715 130.638 16.2474 129.634C15.266 128.758 14.2646 128.158 12.7925 127.562C12.7836 127.56 12.7769 127.556 12.768 127.551C12.7591 127.547 12.7502 127.542 12.7457 127.54C12.5807 127.455 12.516 127.252 12.6007 127.089C12.6833 126.929 12.8773 126.864 13.0379 126.94C13.0424 126.942 13.0468 126.944 13.0513 126.947C14.5768 127.564 15.6653 128.22 16.6912 129.137C17.8845 130.203 18.8369 131.53 19.5238 133.085L20.9735 136.372L24.705 134.001C25.0863 133.758 25.4209 133.453 25.6975 133.096L25.9584 132.759C26.4669 132.101 27.1584 131.615 27.9524 131.354L28.6995 131.109C29.0341 130.999 29.4021 131.06 29.6854 131.267C29.9619 131.472 30.127 131.8 30.127 132.146C30.127 132.418 30.0244 132.679 29.8415 132.88L29.5649 133.178L29.5761 133.277C29.6274 133.736 29.3753 134.169 28.9516 134.354L28.4007 134.593C27.5576 134.961 26.8238 135.529 26.2796 136.239C24.9436 137.978 23.0746 139.776 21.0159 141.302C20.668 141.558 20.2554 141.694 19.8294 141.694Z" fill="#3A3A3A"/>
<path d="M13.9285 146.529C13.6765 146.529 13.4378 146.509 13.2126 146.467C11.1918 146.083 9.63951 145.206 7.99573 144.276L7.96004 144.256C6.67534 143.531 5.8858 142.664 5.40404 141.439C5.37505 141.363 5.34382 141.288 5.31705 141.207C5.31259 141.196 5.30814 141.185 5.30591 141.176C5.25015 141 5.34604 140.812 5.52001 140.754C5.69175 140.699 5.87464 140.788 5.93709 140.955C5.94155 140.964 5.94601 140.973 5.94824 140.984C5.97277 141.056 5.99955 141.125 6.02631 141.194C6.45454 142.28 7.13035 143.021 8.28791 143.674L8.32359 143.694C9.9183 144.595 11.4238 145.445 13.3375 145.809C13.8371 145.902 14.4393 145.869 15.1262 145.708C16.1946 145.463 16.9707 144.954 17.4324 144.2C17.5283 144.042 17.7358 143.993 17.8919 144.091C18.0502 144.187 18.0993 144.395 18.0012 144.551C17.4413 145.463 16.5247 146.072 15.2756 146.36C14.7939 146.473 14.3411 146.529 13.9285 146.529Z" fill="#3A3A3A"/>
<path d="M12.9 127.705C12.8666 127.705 12.8331 127.7 12.7996 127.689C12.6234 127.633 12.5253 127.446 12.5811 127.27C12.5833 127.263 12.5855 127.254 12.5855 127.247C12.5855 127.236 12.5855 127.225 12.5878 127.214C12.5855 127.2 12.5833 127.178 12.5788 127.156C12.532 126.977 12.6413 126.795 12.8197 126.748C12.9981 126.701 13.181 126.808 13.2279 126.989C13.2435 127.047 13.2502 127.102 13.2569 127.16C13.2591 127.196 13.2591 127.232 13.2591 127.263C13.2569 127.334 13.2457 127.406 13.2256 127.473C13.1743 127.613 13.0428 127.705 12.9 127.705Z" fill="#3A3A3A"/>
<path d="M11.9433 128.187C11.7649 128.187 11.5753 128.167 11.3791 128.124C10.3531 127.906 9.55686 127.23 9.52117 126.552C9.51671 126.472 9.52117 126.4 9.53678 126.331C9.5747 126.15 9.75314 126.034 9.9338 126.072C10.1145 126.11 10.2304 126.289 10.1925 126.469C10.1925 126.474 10.1903 126.489 10.1903 126.518C10.2059 126.837 10.7769 127.31 11.5174 127.469C12.1352 127.6 12.5322 127.44 12.5812 127.272C12.6325 127.094 12.8199 126.993 12.9961 127.045C13.1723 127.096 13.2749 127.283 13.2236 127.46C13.0875 127.921 12.5924 128.187 11.9433 128.187Z" fill="#3A3A3A"/>
<path d="M9.86431 126.739H9.86208C9.67919 126.737 9.52975 126.596 9.52975 126.413C9.52975 126.413 9.53644 126.03 9.53644 125.878C9.53644 125.548 9.53198 125.205 9.52082 124.854C9.52082 124.85 9.52082 124.848 9.52082 124.843C9.50744 124.413 9.4896 123.989 9.46953 123.574C9.42492 122.577 9.38254 121.634 9.42715 120.773C9.46284 120.075 9.78623 119.437 10.3394 118.975C10.926 118.487 11.7021 118.264 12.4738 118.364C14.1578 118.582 15.38 118.471 15.9198 118.047C16.0402 117.951 16.2097 117.951 16.3324 118.045C16.4528 118.139 16.4952 118.304 16.4327 118.444L14.5124 122.818C14.4589 122.939 14.3429 123.017 14.2113 123.019C14.0797 123.019 13.9615 122.947 13.9035 122.829C13.8656 122.751 13.7206 122.53 13.5377 122.472C13.4797 122.455 13.3861 122.441 13.2322 122.526C13.0247 122.644 13.0002 123.077 12.9779 123.494C12.9489 124.045 12.9132 124.667 12.4248 124.964C12.0122 125.216 11.2137 125.706 10.1989 125.365C10.2011 125.539 10.1989 126.327 10.1966 126.4C10.1944 126.585 10.045 126.739 9.86431 126.739ZM10.181 124.638C10.9438 125.015 11.5349 124.727 12.0768 124.397C12.2642 124.283 12.2865 123.866 12.3088 123.463C12.34 122.892 12.3757 122.245 12.9021 121.948C13.1786 121.792 13.4686 121.754 13.7385 121.839C13.8879 121.886 14.0128 121.964 14.1176 122.051L15.4648 118.984C14.7176 119.185 13.6872 119.2 12.3846 119.031C11.798 118.955 11.2092 119.122 10.7654 119.493C10.3572 119.832 10.1186 120.3 10.0918 120.811C10.0494 121.64 10.0896 122.566 10.1342 123.547C10.152 123.902 10.1676 124.268 10.181 124.638Z" fill="#3A3A3A"/>
<path d="M12.9 127.705C12.7149 127.705 12.5654 127.556 12.5654 127.371V126.878C12.5654 126.436 12.5654 125.52 13.4933 125.165C13.5111 125.158 13.5267 125.152 13.5446 125.145C14.2806 124.864 14.7958 124.237 14.8962 123.503C15.0434 122.421 15.0835 121.42 15.0345 120.048C15.0278 119.863 15.1727 119.709 15.3578 119.703C15.5519 119.698 15.6969 119.841 15.7036 120.026C15.7526 121.42 15.7102 122.488 15.5586 123.595C15.4248 124.576 14.7378 125.412 13.7654 125.778C13.7609 125.78 13.7564 125.783 13.7498 125.783C13.7475 125.785 13.7431 125.785 13.7408 125.787C13.3594 125.93 13.2368 126.195 13.2368 126.878V127.371C13.2345 127.554 13.0851 127.705 12.9 127.705Z" fill="#3A3A3A"/>
<path d="M15.6228 177.106C15.1856 177.106 14.8198 177.001 14.5388 176.877C14.0102 176.642 13.6801 176.123 13.698 175.552L13.7158 174.941C13.7203 174.755 13.8764 174.606 14.0593 174.615C14.2444 174.619 14.3894 174.773 14.3849 174.958L14.3671 175.57C14.3581 175.868 14.5321 176.141 14.8109 176.263C15.4131 176.529 16.0599 176.488 16.7335 176.147C18.4107 175.297 19.3921 174.537 19.4032 174.528C19.4166 174.517 19.4322 174.506 19.4501 174.499C19.827 174.294 20.4002 173.859 20.4337 173.58C20.4359 173.553 20.4426 173.506 20.3556 173.426C19.9296 173.038 19.4545 173.085 18.1386 173.277C17.9557 173.303 17.7862 173.176 17.7595 172.993C17.7327 172.811 17.8598 172.641 18.0427 172.614C19.3408 172.425 20.1237 172.311 20.8062 172.931C21.0894 173.187 21.1206 173.468 21.0983 173.658C21.0136 174.352 20.0478 174.932 19.7958 175.072C19.6352 175.195 18.6605 175.922 17.0391 176.743C16.5127 177.013 16.0376 177.106 15.6228 177.106Z" fill="#3A3A3A"/>
<path d="M7.41978 172.712H7.40193C7.1276 172.708 6.87111 172.681 6.61462 172.625C5.93882 172.478 5.48381 171.885 5.53065 171.216L5.5485 170.948C5.55965 170.763 5.72024 170.625 5.90313 170.636C6.08825 170.647 6.22653 170.808 6.21538 170.991L6.19754 171.258C6.17524 171.595 6.40943 171.892 6.75514 171.967C6.96479 172.012 7.1789 172.037 7.4064 172.039H7.41755C7.84355 172.039 8.23832 171.814 8.44798 171.45C8.61303 171.165 8.75578 170.904 8.88737 170.652C9.91111 168.693 9.81074 168.075 9.69476 168.013C9.50072 167.908 9.28213 167.803 9.04348 167.696C8.87397 167.62 8.79815 167.424 8.87399 167.255C8.94982 167.085 9.14609 167.011 9.31559 167.085C9.56763 167.197 9.80181 167.31 10.0092 167.422C10.714 167.797 10.5445 168.923 9.48064 170.962C9.34459 171.22 9.19739 171.49 9.02788 171.785C8.70225 172.36 8.08666 172.712 7.41978 172.712Z" fill="#3A3A3A"/>
<path d="M5.71363 141.652C5.6378 141.652 5.56198 141.628 5.49953 141.576L5.41031 141.501C5.11367 141.251 4.84379 140.967 4.58953 140.64C4.29958 140.265 4.22152 139.774 4.38211 139.328L4.42002 139.221C4.64529 138.594 4.56277 137.887 4.19922 137.327L3.92042 136.897C2.68703 135.003 1.62314 133.368 0.429889 131.343C-0.375275 129.976 -0.0206452 128.23 1.2529 127.282L1.67667 126.969C2.27218 126.53 2.88776 126.093 3.73976 125.504C5.25641 124.453 7.23921 124.284 8.91422 125.062L10.0138 125.575C10.1811 125.653 10.2547 125.852 10.1744 126.019C10.0963 126.186 9.89781 126.258 9.73053 126.18L8.63096 125.667C7.17007 124.989 5.44154 125.136 4.11893 126.053C3.27362 126.637 2.66249 127.072 2.07367 127.507L1.65214 127.817C0.652935 128.56 0.374133 129.929 1.00533 131.002C2.19188 133.014 3.25131 134.644 4.48025 136.531L4.75904 136.962C5.23634 137.693 5.34563 138.623 5.04899 139.444L5.01108 139.549C4.92855 139.781 4.96869 140.035 5.1159 140.227C5.34116 140.519 5.57758 140.767 5.83853 140.988L5.92329 141.059C6.06603 141.177 6.08611 141.387 5.9679 141.53C5.90545 141.612 5.80954 141.652 5.71363 141.652Z" fill="#3A3A3A"/>
<path d="M5.4392 133.375C5.32322 133.375 5.2117 133.315 5.14925 133.208L3.88686 131.038C3.79541 130.881 3.84448 130.683 3.99614 130.587L5.06896 129.902C5.22509 129.804 5.43027 129.849 5.53064 130.005C5.631 130.161 5.58417 130.368 5.42805 130.467L4.62511 130.98L5.72691 132.871C5.82059 133.032 5.76483 133.235 5.60648 133.328C5.55518 133.362 5.49719 133.375 5.4392 133.375Z" fill="#3A3A3A"/>
<path d="M4.1765 131.205C4.14751 131.205 4.11851 131.201 4.08728 131.194C4.05829 131.185 1.25248 130.382 1.53797 127.208C1.55358 127.023 1.72086 126.889 1.90152 126.905C2.08664 126.923 2.22046 127.083 2.20485 127.268C1.96843 129.889 4.1698 130.523 4.26348 130.549C4.44191 130.598 4.54673 130.781 4.49766 130.96C4.45752 131.107 4.32371 131.205 4.1765 131.205Z" fill="#3A3A3A"/>
<path d="M18.2689 139.461C17.9633 139.461 17.6466 139.403 17.3232 139.287C17.1492 139.224 17.0578 139.033 17.1202 138.859C17.1827 138.685 17.3723 138.593 17.5485 138.656C18.0838 138.847 18.5633 138.834 19.0116 138.618C20.0264 138.129 20.5059 136.76 20.5104 136.746C20.5706 136.572 20.7602 136.476 20.9342 136.539C21.1081 136.599 21.2018 136.789 21.1438 136.963C21.1215 137.03 20.5728 138.609 19.3038 139.22C18.9759 139.381 18.6302 139.461 18.2689 139.461Z" fill="#3A3A3A"/>
<path d="M146.709 178.332L153.081 191.079L146.709 194.759V178.332Z" fill="#3A3A3A"/>
<path d="M146.709 178.332V194.759L140.335 191.079L146.709 178.332Z" fill="white"/>
<path d="M146.709 195.096C146.651 195.096 146.593 195.081 146.542 195.052L140.168 191.372C140.014 191.282 139.956 191.091 140.036 190.932L146.41 178.185C146.466 178.072 146.582 178 146.709 178C146.836 178 146.952 178.072 147.008 178.185L153.38 190.932C153.458 191.091 153.403 191.282 153.249 191.372L146.877 195.052C146.825 195.081 146.767 195.096 146.709 195.096ZM140.774 190.95L146.709 194.376L152.642 190.95L146.709 179.084L140.774 190.95Z" fill="#3A3A3A"/>
<path d="M146.71 195.096C146.524 195.096 146.375 194.947 146.375 194.762V178.335C146.375 178.149 146.524 178 146.71 178C146.895 178 147.044 178.149 147.044 178.335V194.762C147.044 194.947 146.895 195.096 146.71 195.096Z" fill="#3A3A3A"/>
<path d="M56.4726 65.4405V74.7859L48.3809 79.4587C48.3809 74.2952 52.0008 68.0233 56.4726 65.4405Z" fill="white"/>
<path d="M56.4731 49.0896V58.4328C54.671 59.4744 52.9469 60.8617 51.3589 62.4899C47.6587 66.2861 44.7057 71.4005 43.2671 76.5059C42.6493 78.6939 42.3125 80.882 42.3125 82.963L34.2207 87.6357C34.2185 73.4413 44.1793 56.1868 56.4731 49.0896Z" fill="white"/>
<path d="M56.4729 32.7359V42.0791C54.5815 43.1698 52.7325 44.4545 50.9438 45.8976C39.7518 54.9263 30.9128 70.2359 28.6914 84.4437C28.3345 86.712 28.1494 88.9558 28.1494 91.1394L20.0576 95.8122C20.0576 72.5868 36.3594 44.3497 56.4729 32.7359Z" fill="white"/>
<path d="M48.9233 28.3779L56.4731 32.7383C36.3597 44.3521 20.0579 72.5893 20.0579 95.8146L12.5059 91.4542C12.5059 68.2288 28.8099 39.9917 48.9233 28.3779Z" fill="#D7DCE0"/>
<path d="M50.9438 45.8976L56.4729 49.0871C44.1791 56.1843 34.2183 73.4388 34.2183 87.6332L28.6914 84.4437C30.9129 70.2381 39.7518 54.9285 50.9438 45.8976Z" fill="#3A3A3A"/>
<path d="M51.3594 62.491L56.4736 65.4418C52.0017 68.0247 48.3818 74.2966 48.3818 79.46L43.2676 76.507C44.7039 71.4015 47.6592 66.2872 51.3594 62.491Z" fill="#3A3A3A"/>
<path d="M48.3805 79.7917C48.3225 79.7917 48.2645 79.7761 48.2132 79.7471C48.1106 79.6869 48.0459 79.5776 48.0459 79.4571C48.0459 74.1978 51.7505 67.7787 56.305 65.149C56.4076 65.0888 56.5369 65.0888 56.6395 65.149C56.7421 65.2092 56.8068 65.3185 56.8068 65.439V74.7844C56.8068 74.9049 56.7421 75.0142 56.6395 75.0744L48.5477 79.7471C48.4964 79.7783 48.4384 79.7917 48.3805 79.7917ZM56.1377 66.0367C52.1676 68.6173 48.9804 74.1376 48.7306 78.8683L56.1377 74.5926V66.0367Z" fill="#3A3A3A"/>
<path d="M34.2183 87.9678C34.1604 87.9678 34.1024 87.9522 34.0511 87.9232C33.9485 87.863 33.8838 87.7537 33.8838 87.6332C33.8838 73.3585 43.9428 55.9367 56.3057 48.7971C56.4083 48.7369 56.5377 48.7369 56.6403 48.7971C56.7429 48.8574 56.8075 48.9667 56.8075 49.0871V58.4303C56.8075 58.5508 56.7429 58.6601 56.6403 58.7203C54.9073 59.7195 53.2099 61.0667 51.5974 62.7217C47.9329 66.4777 45.0133 71.5341 43.5881 76.5949C42.9636 78.8142 42.6447 80.9554 42.6447 82.9605C42.6447 83.081 42.58 83.1902 42.4774 83.2505L34.3856 87.9232C34.3343 87.9522 34.2763 87.9678 34.2183 87.9678ZM56.1384 49.6737C44.3576 56.7798 34.8228 73.2961 34.5574 87.0511L41.9756 82.7687C41.9956 80.7591 42.3213 78.6223 42.9436 76.4142C44.4 71.2508 47.3798 66.0896 51.1179 62.2555C52.7215 60.6095 54.4099 59.2601 56.1384 58.2408V49.6737Z" fill="#3A3A3A"/>
<path d="M20.0572 96.1448C19.9992 96.1448 19.9412 96.1292 19.8899 96.1002C19.7873 96.04 19.7227 95.9307 19.7227 95.8103C19.7227 72.518 36.1337 44.0913 56.3052 32.4462C56.4078 32.386 56.5371 32.386 56.6397 32.4462C56.7423 32.5065 56.807 32.6158 56.807 32.7362V42.0794C56.807 42.1999 56.7423 42.3092 56.6397 42.3694C54.7997 43.4311 52.9529 44.7069 51.153 46.1566C40.1127 55.0605 31.218 70.4682 29.0211 84.4931C28.6642 86.7726 28.4836 89.0075 28.4836 91.1375C28.4836 91.258 28.4189 91.3673 28.3163 91.4275L20.2245 96.1002C20.1732 96.1292 20.1152 96.1448 20.0572 96.1448ZM56.1379 33.3183C36.5463 44.9366 20.6616 72.4533 20.394 95.2281L27.8144 90.9435C27.8256 88.838 28.0085 86.6343 28.3609 84.3905C29.4582 77.3781 32.157 70.0021 36.1649 63.061C40.1729 56.1155 45.2113 50.0911 50.7337 45.637C52.5069 44.2073 54.3224 42.9471 56.1379 41.8876V33.3183Z" fill="#3A3A3A"/>
<path d="M20.0575 96.1454C20.0017 96.1454 19.9437 96.132 19.8902 96.1008L12.3382 91.7403C12.2356 91.6801 12.1709 91.5708 12.1709 91.4504C12.1709 68.1581 28.582 39.7336 48.7557 28.0864C48.8582 28.0262 48.9876 28.0262 49.0902 28.0864L56.64 32.4468C56.8006 32.5383 56.8541 32.7435 56.7627 32.9041C56.6712 33.0647 56.466 33.1182 56.3054 33.0268L48.9229 28.7644C29.0682 40.3336 12.9292 68.283 12.84 91.2608L20.2248 95.5231C20.3853 95.6146 20.4389 95.8198 20.3474 95.9804C20.285 96.0852 20.1735 96.1454 20.0575 96.1454Z" fill="#3A3A3A"/>
<path d="M34.2178 87.969C34.162 87.969 34.104 87.9556 34.0505 87.9244L28.5236 84.7348C28.3631 84.6434 28.3095 84.4382 28.401 84.2776C28.4924 84.117 28.6976 84.0635 28.8582 84.1549L34.385 87.3444C34.5456 87.4359 34.5992 87.6411 34.5077 87.8017C34.4453 87.9087 34.3337 87.969 34.2178 87.969Z" fill="#3A3A3A"/>
<path d="M56.4731 65.7733C56.4174 65.7733 56.3594 65.7577 56.3058 65.7287L51.1916 62.7779C51.031 62.6864 50.9775 62.4812 51.0689 62.3206C51.1604 62.16 51.3656 62.1065 51.5262 62.1979L56.6404 65.1488C56.801 65.2402 56.8545 65.4454 56.7631 65.606C56.7006 65.7131 56.5891 65.7733 56.4731 65.7733Z" fill="#3A3A3A"/>
<path d="M48.3813 79.7917C48.3256 79.7917 48.2676 79.7783 48.2141 79.7471L43.0998 76.794C42.9392 76.7025 42.8857 76.4973 42.9771 76.3368C43.0686 76.1762 43.2738 76.1226 43.4344 76.2141L48.5486 79.1672C48.7092 79.2586 48.7627 79.4638 48.6713 79.6244C48.6088 79.7337 48.4973 79.7917 48.3813 79.7917Z" fill="#3A3A3A"/>
<path d="M56.4729 49.4223C56.4172 49.4223 56.3592 49.4089 56.3057 49.3776L50.7766 46.1881C50.616 46.0967 50.5625 45.8915 50.6539 45.7309C50.7453 45.5703 50.9506 45.5168 51.1111 45.6082L56.6402 48.7977C56.8008 48.8892 56.8543 49.0944 56.7629 49.255C56.7004 49.362 56.5889 49.4223 56.4729 49.4223Z" fill="#3A3A3A"/>
<path d="M68.8977 156.087C68.8754 156.087 68.8531 156.085 68.833 156.08C68.6524 156.045 68.5341 155.868 68.5698 155.688L77.7701 109.195C77.8058 109.014 77.982 108.896 78.1627 108.931C78.3433 108.967 78.4615 109.143 78.4258 109.324L69.2256 155.817C69.1944 155.978 69.0538 156.087 68.8977 156.087Z" fill="#3A3A3A"/>
<path d="M59.9805 150.94C59.9582 150.94 59.9337 150.937 59.9114 150.933C59.7307 150.895 59.6148 150.719 59.6527 150.536L69.357 104.226C69.3949 104.045 69.5734 103.929 69.754 103.967C69.9347 104.005 70.0507 104.181 70.0127 104.364L60.3084 150.674C60.275 150.833 60.1367 150.94 59.9805 150.94Z" fill="#3A3A3A"/>
<path d="M76.3227 118.567C76.2669 118.567 76.2089 118.554 76.1576 118.523L67.622 113.642C67.4614 113.551 67.4057 113.346 67.4971 113.185C67.5885 113.025 67.7937 112.969 67.9543 113.06L76.4899 117.94C76.6505 118.032 76.7063 118.237 76.6148 118.398C76.5502 118.507 76.4386 118.567 76.3227 118.567Z" fill="#3A3A3A"/>
<path d="M74.8575 125.968C74.8017 125.968 74.7437 125.954 74.6924 125.923L66.081 120.998C65.9204 120.907 65.8646 120.702 65.9561 120.541C66.0475 120.381 66.2527 120.325 66.4133 120.416L75.0248 125.341C75.1854 125.433 75.2411 125.638 75.1497 125.798C75.0872 125.908 74.9735 125.968 74.8575 125.968Z" fill="#3A3A3A"/>
<path d="M73.3916 133.368C73.3358 133.368 73.2779 133.355 73.2266 133.324L64.537 128.354C64.3765 128.263 64.3207 128.058 64.4121 127.897C64.5036 127.737 64.7088 127.681 64.8694 127.772L73.5589 132.742C73.7195 132.833 73.7752 133.038 73.6838 133.199C73.6213 133.308 73.5076 133.368 73.3916 133.368Z" fill="#3A3A3A"/>
<path d="M71.9264 140.771C71.8707 140.771 71.8127 140.757 71.7614 140.726L62.996 135.714C62.8354 135.623 62.7797 135.418 62.8711 135.257C62.9626 135.096 63.1678 135.041 63.3284 135.132L72.0937 140.144C72.2543 140.235 72.31 140.44 72.2186 140.601C72.1561 140.71 72.0446 140.771 71.9264 140.771Z" fill="#3A3A3A"/>
<path d="M70.4635 148.172C70.4077 148.172 70.3497 148.159 70.2984 148.127L61.455 143.071C61.2944 142.98 61.2387 142.774 61.3301 142.614C61.4216 142.453 61.6267 142.398 61.7873 142.489L70.6307 147.545C70.7913 147.637 70.8471 147.842 70.7556 148.003C70.691 148.112 70.5794 148.172 70.4635 148.172Z" fill="#3A3A3A"/>
<path d="M226.579 74.4028V76.5708L225.758 85.1691V83.0011L226.579 74.4028Z" fill="white"/>
<path d="M214.42 78.6251L216.298 77.5389L211.686 74.8758L226.578 74.4029L225.757 83.0012L221.147 80.3381L209.445 87.094L204.596 84.2948L214.42 78.6251Z" fill="white"/>
<path d="M225.758 83.0013V85.1693L221.147 82.5061V80.3382L225.758 83.0013Z" fill="#3A3A3A"/>
<path d="M221.147 80.3382V82.5061L209.444 89.2621V87.0941L221.147 80.3382Z" fill="#3A3A3A"/>
<path d="M216.298 77.5398L214.42 78.626L211.686 77.0446V74.8767L216.298 77.5398Z" fill="#3A3A3A"/>
<path d="M209.445 87.0943V89.2622L204.596 86.4631V84.2951L209.445 87.0943Z" fill="#3A3A3A"/>
<path d="M209.444 87.4279C209.386 87.4279 209.328 87.4123 209.277 87.3833L204.428 84.5841C204.325 84.5239 204.261 84.4146 204.261 84.2941C204.261 84.1737 204.325 84.0644 204.428 84.0042L215.627 77.5382L211.516 75.165C211.387 75.0892 211.322 74.9397 211.358 74.7948C211.393 74.6498 211.523 74.5472 211.672 74.5427L226.564 74.0699C226.66 74.0699 226.754 74.1056 226.819 74.1747C226.883 74.2439 226.917 74.3398 226.908 74.4357L226.089 83.0339C226.078 83.1477 226.011 83.2481 225.909 83.2994C225.808 83.3507 225.686 83.3484 225.588 83.2927L221.142 80.7255L209.609 87.3855C209.56 87.4145 209.502 87.4279 209.444 87.4279ZM205.264 84.2964L209.444 86.7097L220.977 80.0496C221.08 79.9894 221.209 79.9894 221.312 80.0496L225.474 82.4518L226.208 74.7502L212.868 75.1739L216.463 77.2505C216.566 77.3107 216.63 77.42 216.63 77.5404C216.63 77.6609 216.566 77.7702 216.463 77.8304L205.264 84.2964Z" fill="#3A3A3A"/>
<path d="M209.444 89.5955C209.386 89.5955 209.328 89.5799 209.277 89.5509L204.428 86.7518C204.325 86.6915 204.261 86.5822 204.261 86.4618V84.2938C204.261 84.1087 204.41 83.9593 204.595 83.9593C204.78 83.9593 204.93 84.1087 204.93 84.2938V86.2677L209.444 88.8729L220.977 82.2128C221.08 82.1526 221.209 82.1526 221.312 82.2128L225.474 84.615L226.243 76.552V74.3997C226.243 74.2146 226.393 74.0651 226.578 74.0651C226.763 74.0651 226.912 74.2146 226.912 74.3997V76.5676C226.912 76.5788 226.912 76.59 226.91 76.5989L226.092 85.1971C226.08 85.3109 226.014 85.4113 225.911 85.4626C225.811 85.5139 225.688 85.5116 225.59 85.4559L221.145 82.8887L209.611 89.5487C209.56 89.5799 209.502 89.5955 209.444 89.5955Z" fill="#3A3A3A"/>
<path d="M209.444 89.5967C209.259 89.5967 209.109 89.4473 209.109 89.2621V87.0942C209.109 86.909 209.259 86.7596 209.444 86.7596C209.629 86.7596 209.778 86.909 209.778 87.0942V89.2621C209.778 89.4473 209.629 89.5967 209.444 89.5967Z" fill="#3A3A3A"/>
<path d="M221.147 82.8396C220.962 82.8396 220.812 82.6901 220.812 82.505V80.337C220.812 80.1519 220.962 80.0025 221.147 80.0025C221.332 80.0025 221.482 80.1519 221.482 80.337V82.505C221.482 82.6901 221.33 82.8396 221.147 82.8396Z" fill="#3A3A3A"/>
<path d="M214.421 78.9581C214.365 78.9581 214.307 78.9447 214.253 78.9135L211.519 77.3344C211.416 77.2742 211.352 77.1649 211.352 77.0444V74.8765C211.352 74.6913 211.501 74.5419 211.686 74.5419C211.871 74.5419 212.021 74.6913 212.021 74.8765V76.8504L214.588 78.3336C214.748 78.4251 214.802 78.6303 214.71 78.7908C214.648 78.8979 214.537 78.9581 214.421 78.9581Z" fill="#3A3A3A"/>
<path d="M225.757 85.5036C225.572 85.5036 225.423 85.3542 225.423 85.1691V83.0011C225.423 82.816 225.572 82.6665 225.757 82.6665C225.943 82.6665 226.092 82.816 226.092 83.0011V85.1691C226.092 85.3542 225.943 85.5036 225.757 85.5036Z" fill="#3A3A3A"/>
<defs>
<clipPath id="clip0_3465_2210">
<rect width="54.1527" height="50.2846" fill="white" transform="translate(119)"/>
</clipPath>
</defs>
</svg>
