<svg width="113" height="29" viewBox="0 0 113 29" fill="none" xmlns="http://www.w3.org/2000/svg">
    <path
        d="M38.156 9.083H47.557V11.531H41.267V13.809H46.945V16.24H41.267V18.552H47.727V21H38.156V9.083ZM56.0197 16.053C56.0197 15.5317 55.878 15.118 55.5947 14.812C55.3113 14.506 54.9317 14.353 54.4557 14.353C53.889 14.3643 53.4413 14.5683 53.1127 14.965C52.7953 15.3503 52.6367 15.849 52.6367 16.461H51.9227C51.9227 15.4183 52.0757 14.5457 52.3817 13.843C52.6877 13.129 53.1183 12.5907 53.6737 12.228C54.2403 11.8653 54.9147 11.684 55.6967 11.684C56.3653 11.684 56.949 11.8313 57.4477 12.126C57.9577 12.4093 58.3487 12.8173 58.6207 13.35C58.8927 13.8713 59.0287 14.489 59.0287 15.203V21H56.0197V16.053ZM49.6277 11.82H52.6537V21H49.6277V11.82ZM66.4378 9.083C68.0244 9.083 69.2484 9.45133 70.1098 10.188C70.9711 10.9133 71.4018 11.939 71.4018 13.265C71.4018 14.659 70.9711 15.747 70.1098 16.529C69.2484 17.2997 68.0244 17.685 66.4378 17.685H64.1938V21H61.0828V9.083H66.4378ZM66.4378 15.237C67.0838 15.237 67.5768 15.0783 67.9168 14.761C68.2681 14.4437 68.4438 13.9733 68.4438 13.35C68.4438 12.7493 68.2681 12.296 67.9168 11.99C67.5768 11.684 67.0838 11.531 66.4378 11.531H64.1938V15.237H66.4378ZM65.8938 16.546H68.9198L71.7588 21H68.2398L65.8938 16.546ZM79.1475 15.611C79.1588 15.237 79.0908 14.9197 78.9435 14.659C78.8075 14.387 78.6092 14.1773 78.3485 14.03C78.0878 13.8827 77.7875 13.809 77.4475 13.809C77.0508 13.809 76.7108 13.9167 76.4275 14.132C76.1555 14.336 75.9402 14.625 75.7815 14.999C75.6342 15.3617 75.5605 15.7867 75.5605 16.274C75.5605 16.8067 75.6512 17.2657 75.8325 17.651C76.0138 18.0363 76.2688 18.3367 76.5975 18.552C76.9375 18.756 77.3285 18.858 77.7705 18.858C78.5865 18.858 79.3062 18.5463 79.9295 17.923L81.5105 19.487C81.0458 19.997 80.4735 20.3937 79.7935 20.677C79.1248 20.9603 78.3598 21.102 77.4985 21.102C76.5012 21.102 75.6342 20.9093 74.8975 20.524C74.1722 20.1387 73.6112 19.5947 73.2145 18.892C72.8292 18.1893 72.6365 17.3733 72.6365 16.444C72.6365 15.492 72.8348 14.6647 73.2315 13.962C73.6282 13.248 74.1892 12.6983 74.9145 12.313C75.6398 11.9163 76.4785 11.718 77.4305 11.718C78.5072 11.718 79.3968 11.9447 80.0995 12.398C80.8135 12.84 81.3348 13.4747 81.6635 14.302C82.0035 15.1293 82.1395 16.0983 82.0715 17.209H75.1355V15.611H79.1475ZM87.0277 17.09C86.597 17.09 86.274 17.1693 86.0587 17.328C85.8547 17.4753 85.7527 17.7133 85.7527 18.042C85.7527 18.3707 85.8603 18.6313 86.0757 18.824C86.291 19.0053 86.597 19.096 86.9937 19.096C87.2997 19.096 87.5773 19.045 87.8267 18.943C88.0873 18.841 88.3027 18.6993 88.4727 18.518C88.654 18.3253 88.773 18.11 88.8297 17.872L89.2547 19.215C89.0053 19.8383 88.6087 20.3143 88.0647 20.643C87.5207 20.9717 86.852 21.136 86.0587 21.136C85.4013 21.136 84.8347 21.0113 84.3587 20.762C83.894 20.5127 83.537 20.1727 83.2877 19.742C83.0383 19.3113 82.9137 18.8183 82.9137 18.263C82.9137 17.3903 83.214 16.7103 83.8147 16.223C84.4267 15.7357 85.2993 15.4863 86.4327 15.475H89.1187V17.09H87.0277ZM88.8297 15.373C88.8297 14.931 88.6823 14.5853 88.3877 14.336C88.093 14.0867 87.6567 13.962 87.0787 13.962C86.6933 13.962 86.2627 14.0243 85.7867 14.149C85.3107 14.2737 84.8233 14.4607 84.3247 14.71L83.4917 12.704C83.979 12.4887 84.4493 12.3073 84.9027 12.16C85.3673 12.0013 85.8377 11.8823 86.3137 11.803C86.7897 11.7237 87.277 11.684 87.7757 11.684C89.0563 11.684 90.0423 11.9787 90.7337 12.568C91.4363 13.146 91.7933 13.962 91.8047 15.016V21H88.8297V15.373ZM99.7706 15.118C99.5666 14.812 99.3116 14.5797 99.0056 14.421C98.711 14.251 98.3653 14.166 97.9686 14.166C97.606 14.166 97.283 14.2623 96.9996 14.455C96.7276 14.6363 96.5123 14.897 96.3536 15.237C96.2063 15.577 96.1326 15.9737 96.1326 16.427C96.1326 16.8803 96.2063 17.277 96.3536 17.617C96.5123 17.957 96.7276 18.2233 96.9996 18.416C97.283 18.6087 97.606 18.705 97.9686 18.705C98.3766 18.705 98.728 18.62 99.0226 18.45C99.3286 18.28 99.578 18.0137 99.7706 17.651L101.998 18.926C101.635 19.6173 101.091 20.1557 100.366 20.541C99.6403 20.915 98.7903 21.102 97.8156 21.102C96.875 21.102 96.0476 20.9093 95.3336 20.524C94.6196 20.1387 94.0643 19.5947 93.6676 18.892C93.2823 18.1893 93.0896 17.3733 93.0896 16.444C93.0896 15.492 93.288 14.6647 93.6846 13.962C94.0813 13.248 94.6366 12.6983 95.3506 12.313C96.0646 11.9163 96.8976 11.718 97.8496 11.718C98.7676 11.718 99.5836 11.905 100.298 12.279C101.012 12.6417 101.567 13.163 101.964 13.843L99.7706 15.118ZM109.861 16.053C109.861 15.5317 109.719 15.118 109.436 14.812C109.152 14.506 108.773 14.353 108.297 14.353C107.741 14.3643 107.299 14.5683 106.971 14.965C106.653 15.3503 106.495 15.849 106.495 16.461H105.764C105.764 15.4183 105.917 14.5457 106.223 13.843C106.529 13.129 106.965 12.5907 107.532 12.228C108.098 11.8653 108.767 11.684 109.538 11.684C110.218 11.684 110.807 11.8313 111.306 12.126C111.804 12.4093 112.19 12.8173 112.462 13.35C112.745 13.8713 112.887 14.489 112.887 15.203V21H109.861V16.053ZM103.469 8.386H106.495V21H103.469V8.386Z"
        fill="white" />
    <path fill-rule="evenodd" clip-rule="evenodd"
        d="M12.1363 18.6972L1.0977 18.6972C1.0977 18.6972 0 17.9653 0 15.7694C0 13.5736 1.0977 12.8417 1.0977 12.8417L12.1297 12.8417L6.42592 2.9605C6.42592 2.9605 6.70259 1.60732 8.23275 0.692398C9.76291 -0.222526 11.496 0.0327455 11.496 0.0327455L17.201 9.91607L21.432 2.59347C21.432 2.59347 22.6858 1.86261 24.6983 2.96052C26.7107 4.05843 26.5015 5.5223 26.5015 5.5223L22.2764 12.8417L28.9561 12.8417C28.9561 12.8417 29.6879 13.8853 29.6879 15.7695C29.6879 17.6536 28.9561 18.6972 28.9561 18.6972H22.2699L25.3719 24.0711C25.3719 24.0711 25.3719 25.2847 23.6006 26.3826C21.8292 27.4805 20.3018 26.9988 20.3018 26.9988L17.2031 21.6307L12.9813 28.9444C12.9813 28.9444 11.6907 29.1861 10.0623 28.2124C8.43384 27.2388 7.91126 26.0166 7.91126 26.0166L12.1363 18.6972ZM19.0591 18.5685C20.5619 17.7007 21.0219 15.7207 20.0199 13.9848C19.0179 12.249 17.109 11.6655 15.5831 12.5467C14.0803 13.4145 13.631 15.3597 14.633 17.0956C15.635 18.8314 17.5563 19.4363 19.0591 18.5685Z"
        fill="white" />
</svg>