<svg width="449" height="158" viewBox="0 0 449 158" fill="none" xmlns="http://www.w3.org/2000/svg">
<path fill-rule="evenodd" clip-rule="evenodd" d="M44.4509 90.3667C43.4774 90.3667 42.507 90.0788 41.9221 89.3007C41.0693 88.1664 40 86.0348 40 82.4772C40 78.9197 41.0693 76.7881 41.9221 75.6537C42.507 74.8757 43.4774 74.5878 44.4509 74.5878L72.686 74.5878L58.2509 49.5808C57.6485 48.5372 57.4361 47.2925 57.9897 46.2223C58.647 44.9515 59.8951 43.2182 62.1848 41.8492C64.4451 40.4977 66.8696 40.0937 68.5992 40.0046C70.1034 39.9271 71.4173 40.8323 72.1703 42.1368L86.3516 66.7041L96.836 48.5588C97.4368 47.5189 98.3087 46.623 99.4944 46.4321C101.008 46.1885 103.445 46.2649 106.554 47.9611C110.166 49.9316 111.122 52.3395 111.358 53.7281C111.484 54.4721 111.22 55.2001 110.842 55.8538L100.028 74.5878L115.464 74.5878C117.071 74.5878 118.588 75.385 119.112 76.9042C119.571 78.2315 120 80.1077 120 82.4772C120 84.8468 119.571 86.723 119.112 88.0502C118.588 89.5695 117.071 90.3667 115.464 90.3667L100.011 90.3667L107.709 103.704C108.142 104.453 108.38 105.317 108.085 106.131C107.641 107.354 106.505 109.273 103.596 111.076C100.811 112.803 98.2495 113.08 96.599 113.011C95.3669 112.96 94.3653 112.145 93.7487 111.077L86.3571 98.2714L76.1142 116.016C75.3948 117.262 74.1501 118.144 72.7203 117.98C71.3003 117.819 69.3227 117.328 67.1147 116.007C64.9805 114.731 63.5512 113.297 62.646 112.16C61.6791 110.945 61.7752 109.299 62.5512 107.955L72.7037 90.3667L44.4509 90.3667ZM91.3579 90.1177C95.4074 87.7792 96.6471 82.4436 93.947 77.7661C91.2469 73.0885 86.1028 71.5162 81.991 73.8907C77.9414 76.2291 76.7307 81.471 79.4308 86.1486C82.1309 90.8261 87.3083 92.4562 91.3579 90.1177Z" fill="#F3F3F3"/>
<path d="M320.522 96.8V68H330.282V79C331.922 74.52 334.882 72.36 339.682 72.36C346.002 72.36 349.322 76.2 349.322 83.56V96.8H339.522V85.64C339.522 82.12 338.002 80.28 335.122 80.28C331.922 80.28 330.282 82.16 330.282 85.8V96.8H320.522Z" fill="#F3F3F3"/>
<path d="M306.516 97.6001C296.476 97.6001 291.276 91.9201 291.276 84.8801C291.276 77.8001 296.716 72.3601 306.676 72.3601C311.316 72.3601 314.436 73.4801 316.636 74.8801V82.2001C314.956 81.0401 312.436 80.0401 309.396 80.0401C304.316 80.0401 301.476 82.1201 301.476 84.9601C301.476 87.6801 304.036 89.8801 309.436 89.8801C312.276 89.8801 314.996 88.9201 316.716 87.8801V94.9601C313.916 96.6401 310.476 97.6001 306.516 97.6001Z" fill="#F3F3F3"/>
<path d="M270.814 97.6001C265.374 97.6001 262.254 94.3201 262.254 90.0001C262.254 85.5201 265.654 82.3601 271.374 82.3601C274.654 82.3601 277.014 83.2801 278.854 85.4801C278.574 81.7601 275.454 79.9201 271.174 79.9201C268.254 79.9201 265.534 80.9601 263.374 82.8001V75.4801C265.894 73.7601 269.454 72.3601 274.374 72.3601C283.414 72.3601 288.374 76.8401 288.374 85.0401V96.8001H278.894V93.8801C277.254 96.2801 274.614 97.6001 270.814 97.6001ZM274.774 92.0801C277.174 92.0801 278.894 91.0401 278.894 89.4001C278.894 87.8401 277.254 86.8001 274.814 86.8001C272.574 86.8001 271.174 87.8801 271.174 89.4401C271.174 91.0401 272.574 92.0801 274.774 92.0801Z" fill="#F3F3F3"/>
<path d="M247.778 97.6001C237.938 97.6001 232.018 92.3201 232.018 84.7601C232.018 77.6401 237.378 72.3601 246.498 72.3601C255.498 72.3601 259.818 77.0401 259.818 84.1601V86.8401H241.938C243.098 88.9601 245.898 90.2001 250.298 90.2001C253.818 90.2001 256.498 89.3201 259.018 87.8001V94.7201C256.458 96.4001 252.298 97.6001 247.778 97.6001ZM241.698 82.5601H251.938C251.538 80.5201 249.818 79.3601 246.978 79.3601C244.098 79.3601 242.258 80.6401 241.698 82.5601Z" fill="#F3F3F3"/>
<path d="M199.398 96.8001V68.8H219.118C225.758 68.8 229.918 72.5601 229.918 78.24C229.918 83.24 226.758 86.7201 221.918 87.1201L230.198 96.8001H218.438L209.398 85.3201V96.8001H199.398ZM209.398 82.3601H215.038C217.998 82.3601 219.558 81.2001 219.558 79C219.558 76.92 218.118 75.84 215.318 75.84H209.398V82.3601Z" fill="#F3F3F3"/>
<path d="M166.264 96.8001V73.4001H175.944V79.2001C177.584 74.5601 180.544 72.3601 185.424 72.3601C191.744 72.3601 195.064 76.2001 195.064 83.5601V96.8001H185.264V85.6401C185.264 82.1201 183.744 80.2801 180.864 80.2801C177.664 80.2801 176.024 82.1601 176.024 85.8001V96.8001H166.264Z" fill="#F3F3F3"/>
<path d="M136 96.8001V68.8H161.96V75.92H146V79.3601H161.16V85.92H146V89.6801H162.08V96.8001H136Z" fill="#F3F3F3"/>
</svg>
