<svg width="269" height="95" viewBox="0 0 269 95" fill="none" xmlns="http://www.w3.org/2000/svg">
    <path fill-rule="evenodd" clip-rule="evenodd"
        d="M26.6705 54.22C26.0865 54.22 25.5042 54.0473 25.1532 53.5804C24.6416 52.8999 24 51.6209 24 49.4863C24 47.3518 24.6416 46.0728 25.1532 45.3922C25.5042 44.9254 26.0865 44.7527 26.6705 44.7527L43.6116 44.7527L34.9506 29.7485C34.5891 29.1223 34.4617 28.3755 34.7938 27.7334C35.1882 26.9709 35.9371 25.9309 37.3109 25.1095C38.667 24.2986 40.1218 24.0562 41.1595 24.0028C42.0621 23.9563 42.8504 24.4994 43.3022 25.2821L51.811 40.0225L58.1016 29.1353C58.4621 28.5114 58.9852 27.9738 59.6966 27.8593C60.6048 27.7131 62.0671 27.7589 63.9326 28.7766C66.0997 29.9589 66.6734 31.4037 66.8149 32.2368C66.8907 32.6833 66.7318 33.1201 66.5054 33.5123L60.0169 44.7527L69.2783 44.7527C70.2427 44.7527 71.1528 45.231 71.4674 46.1425C71.7423 46.9389 72 48.0646 72 49.4863C72 50.9081 71.7423 52.0338 71.4674 52.8301C71.1528 53.7417 70.2427 54.22 69.2783 54.22L60.0063 54.22L64.6256 62.2223C64.8851 62.6719 65.0281 63.1904 64.8511 63.6784C64.5849 64.4127 63.9032 65.564 62.1578 66.6458C60.4866 67.6817 58.9497 67.8479 57.9594 67.8067C57.2201 67.7759 56.6192 67.2867 56.2492 66.6459L51.8143 58.9628L45.6685 69.6096C45.2369 70.3574 44.4901 70.8862 43.6322 70.7883C42.7802 70.6911 41.5936 70.3965 40.2688 69.6044C38.9883 68.8387 38.1307 67.978 37.5876 67.2959C37.0075 66.5672 37.0651 65.5794 37.5307 64.7728L43.6222 54.22L26.6705 54.22ZM54.8148 54.0706C57.2445 52.6675 57.9883 49.4662 56.3682 46.6596C54.7482 43.8531 51.6617 42.9097 49.1946 44.3344C46.7649 45.7375 46.0385 48.8826 47.6585 51.6891C49.2786 54.4957 52.385 55.4737 54.8148 54.0706Z"
        fill="#4281FF" />
    <path d="M238.921 58.08V41.256H244.921V58.08H238.921Z" fill="#2D2D2D" />
    <path
        d="M216.9 58.08L222.828 41.28H231.42L237.3 58.08H231.204L230.172 54.864H223.86L222.828 58.08H216.9ZM224.964 51.504H229.092L227.028 45.096L224.964 51.504Z"
        fill="#2D2D2D" />
    <path
        d="M215.391 55.1282C216.15 56.4429 215.868 57.9041 214.813 58.5132C213.758 59.1223 212.368 58.6264 211.609 57.3117C210.85 55.9969 211.125 54.5614 212.18 53.9523C213.251 53.3338 214.632 53.8135 215.391 55.1282Z"
        fill="#2D2D2D" />
    <path
        d="M192.313 58.08V40.8H198.169V47.4C199.153 44.712 200.929 43.416 203.809 43.416C207.601 43.416 209.593 45.72 209.593 50.136V58.08H203.713V51.384C203.713 49.272 202.801 48.168 201.073 48.168C199.153 48.168 198.169 49.296 198.169 51.48V58.08H192.313Z"
        fill="#2D2D2D" />
    <path
        d="M183.91 58.5601C177.886 58.5601 174.766 55.1521 174.766 50.9281C174.766 46.6801 178.03 43.4161 184.006 43.4161C186.79 43.4161 188.662 44.0881 189.982 44.9281V49.3201C188.974 48.6241 187.462 48.0241 185.638 48.0241C182.59 48.0241 180.886 49.2721 180.886 50.9761C180.886 52.6081 182.422 53.9281 185.662 53.9281C187.366 53.9281 188.998 53.3521 190.03 52.7281V56.9761C188.35 57.9841 186.286 58.5601 183.91 58.5601Z"
        fill="#2D2D2D" />
    <path
        d="M162.489 58.5601C159.225 58.5601 157.353 56.5921 157.353 54.0001C157.353 51.3121 159.393 49.4161 162.825 49.4161C164.793 49.4161 166.209 49.9681 167.313 51.2881C167.145 49.0561 165.273 47.9521 162.705 47.9521C160.953 47.9521 159.321 48.5761 158.025 49.6801V45.2881C159.537 44.2561 161.673 43.4161 164.625 43.4161C170.049 43.4161 173.025 46.1041 173.025 51.0241V58.0801H167.337V56.3281C166.353 57.7681 164.769 58.5601 162.489 58.5601ZM164.865 55.2481C166.305 55.2481 167.337 54.6241 167.337 53.6401C167.337 52.7041 166.353 52.0801 164.889 52.0801C163.545 52.0801 162.705 52.7281 162.705 53.6641C162.705 54.6241 163.545 55.2481 164.865 55.2481Z"
        fill="#2D2D2D" />
    <path
        d="M148.667 58.5601C142.763 58.5601 139.211 55.3921 139.211 50.8561C139.211 46.5841 142.427 43.4161 147.899 43.4161C153.299 43.4161 155.891 46.2241 155.891 50.4961V52.1041H145.163C145.859 53.3761 147.539 54.1201 150.179 54.1201C152.291 54.1201 153.899 53.5921 155.411 52.6801V56.8321C153.875 57.8401 151.379 58.5601 148.667 58.5601ZM145.019 49.5361H151.163C150.923 48.3121 149.891 47.6161 148.187 47.6161C146.459 47.6161 145.355 48.3841 145.019 49.5361Z"
        fill="#2D2D2D" />
    <path
        d="M119.639 58.08V41.28H131.471C135.455 41.28 137.951 43.536 137.951 46.944C137.951 49.944 136.055 52.032 133.151 52.272L138.119 58.08H131.063L125.639 51.192V58.08H119.639ZM125.639 49.416H129.023C130.799 49.416 131.735 48.72 131.735 47.4C131.735 46.152 130.871 45.504 129.191 45.504H125.639V49.416Z"
        fill="#2D2D2D" />
    <path
        d="M99.7584 58.0801V44.0401H105.566V47.5201C106.55 44.7361 108.326 43.4161 111.254 43.4161C115.046 43.4161 117.038 45.7201 117.038 50.1361V58.0801H111.158V51.3841C111.158 49.2721 110.246 48.1681 108.518 48.1681C106.598 48.1681 105.614 49.2961 105.614 51.4801V58.0801H99.7584Z"
        fill="#2D2D2D" />
    <path d="M81.6 58.08V41.28H97.176V45.552H87.6V47.616H96.696V51.552H87.6V53.808H97.248V58.08H81.6Z" fill="#2D2D2D" />
</svg>