<svg width="48" height="46" viewBox="0 0 48 46" fill="none" xmlns="http://www.w3.org/2000/svg">
    <path fill-rule="evenodd" clip-rule="evenodd"
        d="M1.23086 29.3519C1.52942 29.7144 1.99551 29.8512 2.46511 29.8512H19.2952L13.19 40.3077C12.8052 40.9669 12.7587 41.7759 13.2205 42.3837C13.7425 43.0707 14.6218 43.9944 15.9977 44.8077C17.4286 45.6536 18.6954 45.9159 19.5425 45.9813C20.2385 46.035 20.841 45.6115 21.193 45.0086L27.3507 34.4622L31.8078 42.0961C32.1098 42.6133 32.5975 43.0051 33.1949 43.0487C34.1539 43.1187 35.7622 43.0098 37.5218 41.9314C39.3332 40.8214 39.9795 39.6362 40.2101 38.9318C40.3424 38.5276 40.225 38.1046 40.0106 37.7374L35.4062 29.8512L44.7964 29.8512C45.5743 29.8512 46.3071 29.4695 46.5869 28.7437C46.8878 27.9629 47.2 26.7834 47.2 25.2493C47.2 23.7152 46.8878 22.5356 46.5869 21.7549C46.3071 21.029 45.5743 20.6473 44.7964 20.6473H35.4166L41.8981 9.5462C42.0539 9.27947 42.1611 8.98336 42.1286 8.6762C42.0482 7.91497 41.5827 6.36464 39.267 5.11563C37.0984 3.9459 35.4838 4.09682 34.6686 4.31549C34.2653 4.42368 33.9633 4.72833 33.7526 5.08888L27.3474 16.0487L18.7981 1.40586C18.4655 0.8363 17.9111 0.422221 17.2518 0.403119C16.3084 0.375785 14.8384 0.514295 13.3799 1.37652C11.9579 2.21712 11.1174 3.35252 10.6645 4.15089C10.3296 4.7412 10.4117 5.45006 10.7539 6.03616L19.2847 20.6473L2.46511 20.6473C1.99551 20.6473 1.52942 20.7842 1.23087 21.1466C0.716086 21.7716 7.84933e-08 23.0384 0 25.2493C-7.84932e-08 27.4601 0.716085 28.7269 1.23086 29.3519ZM29.7721 29.1582C28.2836 30.0102 26.4154 30.0103 24.9269 29.1583C23.4479 28.3117 22.5149 26.7274 22.5129 25.0232C22.511 23.3125 23.4472 21.7213 24.9332 20.8738C26.4175 20.0272 28.2788 20.0276 29.7634 20.8737C31.2498 21.7208 32.1878 23.3129 32.1858 25.0238C32.1839 26.7276 31.2508 28.3118 29.7721 29.1582Z"
        fill="white" />
</svg>