<svg width="50" height="45" viewBox="0 0 50 45" fill="none" xmlns="http://www.w3.org/2000/svg">
<path d="M23.7928 6.77212C25.2774 3.90246 25.7949 1.22127 24.9487 0.783511C24.1025 0.34575 22.2131 2.31719 20.7285 5.18684C19.2439 8.0565 18.7264 10.7377 19.5726 11.1755C20.4187 11.6132 22.3082 9.64177 23.7928 6.77212Z" fill="#255EBA"/>
<path d="M23.0243 10.6545C23.8469 9.95942 22.8233 7.39547 20.7381 4.92773C18.6529 2.46 16.2957 1.02297 15.4731 1.71803C14.6505 2.4131 15.6741 4.97706 17.7593 7.44479C19.8445 9.91253 22.2017 11.3496 23.0243 10.6545Z" fill="#255EBA"/>
<path d="M21.7296 10.1084C22.293 9.01945 20.4234 6.93315 17.5537 5.44857C14.6841 3.96398 11.901 3.6433 11.3377 4.7323C10.7743 5.82129 12.6439 7.90759 15.5135 9.39218C18.3832 10.8768 21.1662 11.1974 21.7296 10.1084Z" fill="#5579CE"/>
<path d="M22.2308 12.5499C23.4143 12.2295 23.6894 9.44152 22.8452 6.32277C22.001 3.20402 20.3571 0.935479 19.1736 1.25585C17.9901 1.57622 17.715 4.36419 18.5592 7.48294C19.4035 10.6017 21.0473 12.8702 22.2308 12.5499Z" fill="#255EBA"/>
<path d="M22.531 12.5499C23.7145 12.2295 23.9896 9.44152 23.1453 6.32277C22.3011 3.20402 20.6573 0.935479 19.4738 1.25585C18.2902 1.57622 18.0152 4.36419 18.8594 7.48294C19.7036 10.6017 21.3475 12.8702 22.531 12.5499Z" fill="#5579CE"/>
<path d="M25.1205 8.72231C27.6587 6.72337 29.1595 4.39595 28.4727 3.52386C27.7859 2.65177 25.1715 3.56526 22.6334 5.5642C20.0952 7.56314 18.5944 9.89056 19.2812 10.7626C19.968 11.6347 22.5824 10.7212 25.1205 8.72231Z" fill="#255EBA"/>
<path d="M25.3178 8.92153C27.856 6.92259 29.3568 4.59517 28.67 3.72308C27.9832 2.85099 25.3688 3.76448 22.8306 5.76342C20.2925 7.76235 18.7916 10.0898 19.4785 10.9619C20.1653 11.834 22.7796 10.9205 25.3178 8.92153Z" fill="#5579CE"/>
<path d="M38.1202 9.34173L35.8823 9.74958C35.5475 9.80545 35.3206 10.0957 35.3671 10.3747L36.5208 16.8419C36.5674 17.1209 36.8809 17.3152 37.2157 17.2594L48.2144 15.2806C48.5492 15.2248 48.7761 14.9345 48.7296 14.6555L47.5759 8.18836C47.5293 7.90932 47.2158 7.71498 46.8809 7.77085L38.1202 9.34173Z" fill="white"/>
<path d="M48.2601 15.4517L37.2614 17.4304C36.815 17.5049 36.401 17.2585 36.333 16.8855L35.1793 10.4184C35.1113 10.0454 35.408 9.6575 35.8544 9.583L46.8531 7.60427C47.2995 7.52977 47.7135 7.77618 47.7815 8.14916L48.9352 14.6163C49.0032 14.9892 48.7093 15.3595 48.2601 15.4517ZM35.9103 9.91784C35.6871 9.95509 35.5299 10.1477 35.5727 10.3355L36.7265 16.8027C36.7693 16.9905 36.9674 17.1124 37.1907 17.0751L48.1893 15.0964C48.4125 15.0591 48.5697 14.8666 48.5269 14.6787L47.3731 8.21156C47.3303 8.02368 47.1322 7.90187 46.9089 7.93912L35.9103 9.91784Z" fill="#3E3A39"/>
<path d="M38.6961 9.9406L36.7577 10.287C36.4787 10.3336 36.2629 10.5531 36.303 10.7587L37.1475 15.5106C37.1876 15.7162 37.4564 15.8492 37.7354 15.8026L47.2245 14.093C47.5035 14.0464 47.7193 13.8269 47.6793 13.6213L46.8347 8.86934C46.7946 8.66378 46.5258 8.53082 46.2468 8.57738L38.6961 9.9406Z" fill="#95D4EB"/>
<path d="M41.5592 15.1009L38.1619 13.098L36.9921 14.5437L37.236 15.8682L41.5592 15.1009Z" fill="#75BFAB"/>
<path d="M38.6276 11.8672C38.7542 12.5573 39.4994 13.0009 40.3011 12.8556C41.1029 12.7104 41.6441 12.035 41.5175 11.3448C41.3908 10.6547 40.6457 10.2111 39.8439 10.3564C39.0422 10.5016 38.5009 11.177 38.6276 11.8672Z" fill="#F9F5B1"/>
<path d="M47.6383 13.3078L42.52 10.2728L38.1112 15.7178L47.7677 13.9803L47.6383 13.3078Z" fill="#57B79C"/>
<path d="M47.3824 11.9445L45.9721 11.1244L42.9573 14.8512L47.7474 13.9945L47.3824 11.9445Z" fill="#75BFAB"/>
<path d="M45.7747 15.1333L45.2901 15.2199C45.2724 15.2171 45.2724 15.2171 45.2575 15.1966L45.1774 14.7855C45.1802 14.7679 45.1802 14.7679 45.1979 14.7706L45.6825 14.6841C45.7002 14.6868 45.7002 14.6868 45.7151 14.7073L45.7951 15.1184L45.7747 15.1333ZM46.7085 14.9545L46.2239 15.0411C46.2062 15.0383 46.2062 15.0383 46.1913 15.0179L46.1113 14.6068C46.1141 14.5891 46.1141 14.5891 46.1317 14.5919L46.6163 14.5053C46.634 14.5081 46.634 14.5081 46.6489 14.5285L46.729 14.9396C46.729 14.9396 46.7262 14.9573 46.7085 14.9545ZM47.6395 14.7934L47.155 14.88C47.1373 14.8772 47.1373 14.8772 47.1224 14.8568L47.0423 14.4457C47.0451 14.428 47.0451 14.428 47.0628 14.4308L47.5474 14.3442C47.565 14.347 47.5651 14.347 47.5799 14.3674L47.66 14.7785C47.66 14.7785 47.6572 14.7962 47.6395 14.7934Z" fill="#3E3A39"/>
<path d="M39.6898 24.8584C39.6898 35.6734 30.9298 44.4334 20.1148 44.4334C9.2998 44.4334 0.0447972 35.6584 0.539797 24.8584C1.0948 12.7834 8.9398 7.56344 20.1148 6.64844C32.5648 6.90344 39.6898 15.8884 39.6898 24.8584Z" fill="#5579CE"/>
<path d="M26.7298 32.9745C30.9051 32.9745 34.2898 29.5898 34.2898 25.4145C34.2898 21.2392 30.9051 17.8545 26.7298 17.8545C22.5545 17.8545 19.1698 21.2392 19.1698 25.4145C19.1698 29.5898 22.5545 32.9745 26.7298 32.9745Z" fill="white"/>
<path d="M32.0746 23.9049C32.0746 25.9749 30.4096 27.6399 28.3396 27.6399C26.2696 27.6399 24.6046 25.9749 24.6046 23.9049C24.6046 23.4549 24.6946 23.0049 24.8296 22.5999C25.0546 22.9149 25.4146 23.0949 25.8196 23.0949C26.4946 23.0949 27.0346 22.5549 27.0346 21.8799C27.0346 21.3849 26.7196 20.9799 26.3146 20.7549C26.8996 20.3949 27.6196 20.1699 28.3396 20.1699C30.4096 20.1699 32.0746 21.8349 32.0746 23.9049Z" fill="black"/>
<path d="M14.1749 33.5145C18.3501 33.5145 21.7349 30.1298 21.7349 25.9545C21.7349 21.7793 18.3501 18.3945 14.1749 18.3945C9.9996 18.3945 6.61487 21.7793 6.61487 25.9545C6.61487 30.1298 9.9996 33.5145 14.1749 33.5145Z" fill="white"/>
<path d="M18.9799 24.3082C18.9799 26.3782 17.3149 28.0432 15.2449 28.0432C13.1749 28.0432 11.5099 26.3782 11.5099 24.3082C11.5099 23.8582 11.5999 23.4082 11.7349 23.0032C11.9599 23.3182 12.3199 23.4982 12.7249 23.4982C13.3999 23.4982 13.9399 22.9582 13.9399 22.2832C13.9399 21.7882 13.6249 21.3832 13.2199 21.1582C13.8049 20.7982 14.5249 20.5732 15.2449 20.5732C17.3149 20.5732 18.9799 22.2382 18.9799 24.3082Z" fill="black"/>
</svg>
