<svg width="41" height="45" viewBox="0 0 41 45" fill="none" xmlns="http://www.w3.org/2000/svg">
<path d="M24.1681 7.33559C25.6527 4.46594 26.1702 1.78475 25.3241 1.34699C24.4779 0.909226 22.5884 2.88066 21.1038 5.75032C19.6193 8.61997 19.1017 11.3012 19.9479 11.7389C20.7941 12.1767 22.6836 10.2052 24.1681 7.33559Z" fill="#255EBA"/>
<path d="M23.3995 11.218C24.2221 10.5229 23.1985 7.95894 21.1133 5.49121C19.0281 3.02347 16.6709 1.58644 15.8483 2.28151C15.0257 2.97658 16.0493 5.54053 18.1345 8.00827C20.2197 10.476 22.5769 11.913 23.3995 11.218Z" fill="#255EBA"/>
<path d="M22.1049 10.6719C22.6683 9.58293 20.7987 7.49663 17.929 6.01204C15.0594 4.52746 12.2763 4.20678 11.713 5.29577C11.1496 6.38477 13.0192 8.47107 15.8888 9.95565C18.7585 11.4402 21.5415 11.7609 22.1049 10.6719Z" fill="#5579CE"/>
<path d="M22.6062 13.1133C23.7897 12.793 24.0648 10.005 23.2205 6.88625C22.3763 3.76749 20.7325 1.49896 19.549 1.81933C18.3654 2.1397 18.0904 4.92766 18.9346 8.04642C19.7788 11.1652 21.4227 13.4337 22.6062 13.1133Z" fill="#255EBA"/>
<path d="M22.9061 13.1133C24.0896 12.793 24.3647 10.005 23.5205 6.88625C22.6762 3.76749 21.0324 1.49896 19.8489 1.81933C18.6654 2.1397 18.3903 4.92766 19.2345 8.04642C20.0788 11.1652 21.7226 13.4337 22.9061 13.1133Z" fill="#5579CE"/>
<path d="M25.4959 9.28481C28.0341 7.28587 29.5349 4.95845 28.8481 4.08636C28.1613 3.21427 25.5469 4.12776 23.0087 6.1267C20.4706 8.12564 18.9697 10.4531 19.6566 11.3251C20.3434 12.1972 22.9577 11.2837 25.4959 9.28481Z" fill="#255EBA"/>
<path d="M25.6932 9.48403C28.2313 7.48509 29.7321 5.15767 29.0453 4.28558C28.3585 3.41349 25.7442 4.32698 23.206 6.32592C20.6678 8.32485 19.167 10.6523 19.8538 11.5244C20.5406 12.3965 23.155 11.483 25.6932 9.48403Z" fill="#5579CE"/>
<path d="M40.0651 25.4229C40.0651 36.2379 31.3051 44.9979 20.4901 44.9979C9.6751 44.9979 0.420102 36.2229 0.915102 25.4229C1.4701 13.3479 9.3151 8.12789 20.4901 7.21289C32.9401 7.46789 40.0651 16.4529 40.0651 25.4229Z" fill="#5579CE"/>
<path d="M27.1052 33.5399C31.2804 33.5399 34.6652 30.1552 34.6652 25.9799C34.6652 21.8047 31.2804 18.4199 27.1052 18.4199C22.9299 18.4199 19.5452 21.8047 19.5452 25.9799C19.5452 30.1552 22.9299 33.5399 27.1052 33.5399Z" fill="white"/>
<path d="M31.65 26.07C31.65 28.14 29.985 29.805 27.915 29.805C25.845 29.805 24.1801 28.14 24.1801 26.07C24.1801 25.62 24.2701 25.17 24.4051 24.765C24.6301 25.08 24.9901 25.26 25.3951 25.26C26.0701 25.26 26.6101 24.72 26.6101 24.045C26.6101 23.55 26.295 23.145 25.89 22.92C26.475 22.56 27.195 22.335 27.915 22.335C29.985 22.335 31.65 24 31.65 26.07Z" fill="black"/>
<path d="M14.5502 34.079C18.7255 34.079 22.1102 30.6943 22.1102 26.519C22.1102 22.3437 18.7255 18.959 14.5502 18.959C10.375 18.959 6.99023 22.3437 6.99023 26.519C6.99023 30.6943 10.375 34.079 14.5502 34.079Z" fill="white"/>
<path d="M18.5553 26.4733C18.5553 28.5433 16.8903 30.2083 14.8203 30.2083C12.7503 30.2083 11.0853 28.5433 11.0853 26.4733C11.0853 26.0233 11.1753 25.5733 11.3103 25.1683C11.5353 25.4833 11.8953 25.6633 12.3003 25.6633C12.9753 25.6633 13.5153 25.1233 13.5153 24.4483C13.5153 23.9533 13.2003 23.5483 12.7953 23.3233C13.3803 22.9633 14.1003 22.7383 14.8203 22.7383C16.8903 22.7383 18.5553 24.4033 18.5553 26.4733Z" fill="black"/>
</svg>
