<svg width="47" height="45" viewBox="0 0 47 45" fill="none" xmlns="http://www.w3.org/2000/svg">
    <path
        d="M23.9928 6.97231C25.4774 4.10266 25.995 1.42147 25.1488 0.983707C24.3026 0.545945 22.4131 2.51738 20.9286 5.38704C19.444 8.25669 18.9264 10.9379 19.7726 11.3756C20.6188 11.8134 22.5083 9.84197 23.9928 6.97231Z"
        fill="#255EBA" />
    <path
        d="M23.2242 10.8547C24.0468 10.1596 23.0232 7.59566 20.938 5.12793C18.8528 2.66019 16.4956 1.22316 15.673 1.91823C14.8504 2.61329 15.874 5.17725 17.9592 7.64499C20.0444 10.1127 22.4016 11.5498 23.2242 10.8547Z"
        fill="#255EBA" />
    <path
        d="M21.9296 10.3086C22.493 9.21964 20.6234 7.13335 17.7537 5.64876C14.8841 4.16418 12.101 3.8435 11.5377 4.93249C10.9743 6.02149 12.8439 8.10779 15.7135 9.59237C18.5832 11.077 21.3662 11.3976 21.9296 10.3086Z"
        fill="#5579CE" />
    <path
        d="M22.4309 12.7501C23.6144 12.4297 23.8895 9.64172 23.0453 6.52297C22.201 3.40421 20.5572 1.13567 19.3737 1.45605C18.1902 1.77642 17.9151 4.56438 18.7593 7.68314C19.6035 10.8019 21.2474 13.0704 22.4309 12.7501Z"
        fill="#255EBA" />
    <path
        d="M22.7309 12.7501C23.9144 12.4297 24.1895 9.64172 23.3452 6.52297C22.501 3.40421 20.8572 1.13567 19.6737 1.45605C18.4901 1.77642 18.2151 4.56438 19.0593 7.68314C19.9035 10.8019 21.5473 13.0704 22.7309 12.7501Z"
        fill="#5579CE" />
    <path
        d="M25.3205 8.92251C27.8587 6.92357 29.3595 4.59614 28.6727 3.72406C27.9858 2.85197 25.3715 3.76546 22.8333 5.76439C20.2951 7.76333 18.7943 10.0908 19.4811 10.9628C20.1679 11.8349 22.7823 10.9214 25.3205 8.92251Z"
        fill="#255EBA" />
    <path
        d="M25.5178 9.12173C28.056 7.12279 29.5568 4.79536 28.87 3.92327C28.1832 3.05119 25.5688 3.96468 23.0306 5.96361C20.4925 7.96255 18.9916 10.29 19.6785 11.1621C20.3653 12.0342 22.9796 11.1207 25.5178 9.12173Z"
        fill="#5579CE" />
    <path
        d="M39.8898 25.0586C39.8898 35.8736 31.1298 44.6336 20.3148 44.6336C9.49981 44.6336 0.244809 35.8586 0.739809 25.0586C1.29481 12.9836 9.13981 7.76363 20.3148 6.84863C32.7648 7.10363 39.8898 16.0886 39.8898 25.0586Z"
        fill="#5579CE" />
    <path
        d="M11.7575 27.5539C8.56759 27.3237 6.25526 25.8946 6.08035 25.8112C5.82092 25.6522 5.73723 25.3035 5.89819 25.0215C6.05915 24.7394 6.40786 24.6557 6.66534 24.8373C6.73117 24.8658 12.5891 28.468 18.2624 24.7241C18.5265 24.5648 18.8616 24.6393 19.0209 24.9034C19.1802 25.1676 19.1037 25.5252 18.8376 25.7071C16.354 27.3137 13.8609 27.7129 11.7575 27.5539Z"
        fill="black" />
    <path
        d="M28.2205 27.5539C25.0305 27.3237 22.7182 25.8946 22.5433 25.8112C22.2839 25.6522 22.2002 25.3035 22.3611 25.0215C22.5221 24.7394 22.8708 24.6557 23.1283 24.8373C23.1941 24.8658 29.0521 28.468 34.7253 24.7241C34.9895 24.5648 35.3245 24.6393 35.4838 24.9034C35.6431 25.1676 35.5667 25.5252 35.3005 25.7071C32.8169 27.3137 30.3239 27.7129 28.2205 27.5539Z"
        fill="black" />
    <path d="M36.7006 13.125L39.5852 11.5743L38.8282 15.6995L41.7128 14.1487" stroke="#A0A0A0" stroke-width="0.6"
        stroke-linecap="round" stroke-linejoin="round" />
    <path d="M41.3829 3L45.3948 4.28457L40.9007 7.26882L44.9127 8.55339" stroke="#A0A0A0" stroke-width="0.6"
        stroke-linecap="round" stroke-linejoin="round" />
</svg>